<svg width="607" height="829" xmlns="http://www.w3.org/2000/svg" xmlns:xlink="http://www.w3.org/1999/xlink" overflow="hidden"><defs><clipPath id="clip0"><rect x="34" y="30" width="607" height="829"/></clipPath></defs><g clip-path="url(#clip0)" transform="translate(-34 -30)"><rect x="35.5001" y="32.5001" width="605" height="826" stroke="#D9D9D9" stroke-width="1.33333" stroke-miterlimit="8" fill="none"/><rect x="253.5" y="99.5001" width="252" height="62" stroke="#000000" stroke-width="1.33333" stroke-miterlimit="8" fill="#FFFFFF"/><text font-family="Yu Gothic,Yu Gothic_MSFontService,sans-serif" font-weight="400" font-size="11" transform="translate(340.155 114)">&lt;&lt; interface&gt;&gt;<tspan font-weight="700" font-size="11" x="-77.3333" y="13">DomainModelAdaptor</tspan></text><path d="M371.5 174.5 379.5 161.5 387.5 174.5Z" stroke="#000000" stroke-width="1.33333" stroke-miterlimit="8" fill="#FFFFFF" fill-rule="evenodd"/><rect x="284.5" y="501.5" width="206" height="46" stroke="#000000" stroke-width="1.33333" stroke-miterlimit="8" fill="#FFFFFF"/><text font-family="Yu Gothic,Yu Gothic_MSFontService,sans-serif" font-weight="400" font-size="11" transform="translate(313.226 521)">InstanceRepositoryInMemory<tspan font-size="11" x="144.5" y="0">:</tspan><tspan font-size="11" x="26.2534" y="13">InstanceRepository</tspan></text><path d="M0 0.333333-23.9994 0.333333-23.6661 0-23.6661 60.2507-23.9994 59.9173 274.456 59.9173 274.456 128.611 250.783 128.611 250.783 127.944 274.123 127.944 273.79 128.277 273.79 60.2507 274.123 60.584-24.3328 60.584-24.3328-0.333333 0-0.333333ZM258.616 133.232 250.122 128.277 258.616 123.323C258.775 123.23 258.979 123.284 259.071 123.443 259.164 123.602 259.11 123.806 258.951 123.899L250.951 128.565 250.951 127.99 258.951 132.656C259.11 132.749 259.164 132.953 259.071 133.112 258.979 133.271 258.775 133.325 258.616 133.232Z" transform="matrix(-1 0 0 1 534.624 295.5)"/><path d="M0 14.5 8 0 16 14.5 8 29Z" stroke="#000000" stroke-width="1.33333" stroke-miterlimit="8" fill="#FFFFFF" fill-rule="evenodd" transform="matrix(-6.12323e-17 -1 -1 6.12323e-17 534.5 303.5)"/><rect x="254.5" y="249.5" width="251" height="62" stroke="#000000" stroke-width="1.33333" stroke-miterlimit="8" fill="#FFFFFF"/><text font-family="Yu Gothic,Yu Gothic_MSFontService,sans-serif" font-style="oblique" font-weight="700" font-size="11" transform="translate(263.426 264)">AppDomainName<tspan font-style="normal" font-size="11" x="90.8333" y="0">DomainModelAdaptor</tspan></text><path d="M380.104 249.564 379.5 174.5" stroke="#000000" stroke-width="0.666667" stroke-miterlimit="8" stroke-dasharray="2 0.666667" fill="none" fill-rule="evenodd"/><rect x="284.5" y="400.5" width="206" height="46" stroke="#000000" stroke-width="1.33333" stroke-miterlimit="8" fill="#FFFFFF"/><text font-family="Yu Gothic,Yu Gothic_MSFontService,sans-serif" font-weight="400" font-size="11" transform="translate(325.809 426)">CIM<tspan font-style="oblique" font-size="11" x="20.3333" y="0">AppDomainName</tspan><tspan font-size="11" x="107" y="0">Lib</tspan></text><path d="M0 15 8 0 16 15 8 30Z" stroke="#000000" stroke-width="1.33333" stroke-miterlimit="8" fill="#FFFFFF" fill-rule="evenodd" transform="matrix(-6.12323e-17 -1 -1 6.12323e-17 524.5 431.5)"/><path d="M0 0.333333-23.9992 0.333333-23.6659 0-23.6659 46.5949-23.9992 46.2616 263.678 46.2616 263.678 101.3 240.005 101.3 240.005 100.633 263.345 100.633 263.011 100.966 263.011 46.5949 263.345 46.9282-24.3325 46.9282-24.3325-0.333333 0-0.333333ZM247.837 105.921 239.344 100.966 247.837 96.0116C247.996 95.9188 248.201 95.9725 248.293 96.1316 248.386 96.2906 248.332 96.4947 248.173 96.5874L240.173 101.254 240.173 100.678 248.173 105.345C248.332 105.438 248.386 105.642 248.293 105.801 248.201 105.96 247.996 106.014 247.837 105.921Z" transform="matrix(-1 0 0 1 523.845 423.5)"/><rect x="358.5" y="607.5" width="205" height="45" stroke="#000000" stroke-width="1.33333" stroke-miterlimit="8" fill="#FFFFFF"/><text font-family="Yu Gothic,Yu Gothic_MSFontService,sans-serif" font-weight="400" font-size="11" transform="translate(423.318 626)">&lt;&lt;interface&gt;&gt;<tspan font-size="11" x="-55.7467" y="13">DomainClassDef</tspan></text><rect x="358.5" y="689.5" width="205" height="46" stroke="#000000" stroke-width="1.33333" stroke-miterlimit="8" fill="#FFFFFF"/><text font-family="Yu Gothic,Yu Gothic_MSFontService,sans-serif" font-weight="400" font-size="11" transform="translate(423.384 709)">&lt;&lt;interface&gt;&gt;<tspan font-size="11" x="-23.58" y="13">DomainClass</tspan><tspan font-style="oblique" font-size="11" x="41.7534" y="13">ClassName</tspan></text><rect x="358.5" y="772.5" width="205" height="45" stroke="#000000" stroke-width="1.33333" stroke-miterlimit="8" fill="#FFFFFF"/><text font-family="Yu Gothic,Yu Gothic_MSFontService,sans-serif" font-weight="400" font-size="11" transform="translate(387.471 798)">DomainClass<tspan font-style="oblique" font-size="11" x="65.3333" y="0">ClassName</tspan><tspan font-size="11" x="121.667" y="0">Base</tspan></text><path d="M453.5 666.5 461.5 653.5 469.5 666.5Z" stroke="#000000" stroke-width="1.33333" stroke-miterlimit="8" fill="#FFFFFF" fill-rule="evenodd"/><path d="M0 0 0.299528 22.9175" stroke="#000000" stroke-width="0.666667" stroke-miterlimit="8" stroke-dasharray="2 0.666667" fill="none" fill-rule="evenodd" transform="matrix(1 0 0 -1 461.5 689.418)"/><path d="M453.5 750.5 461.5 737.5 469.5 750.5Z" stroke="#000000" stroke-width="1.33333" stroke-miterlimit="8" fill="#FFFFFF" fill-rule="evenodd"/><path d="M0 0 0.299528 21.6576" stroke="#000000" stroke-width="0.666667" stroke-miterlimit="8" fill="none" fill-rule="evenodd" transform="matrix(1 0 0 -1 461.5 772.158)"/><path d="M0 15 8 0 16 15 8 30Z" stroke="#000000" stroke-width="1.33333" stroke-miterlimit="8" fill="#FFFFFF" fill-rule="evenodd" transform="matrix(-6.12323e-17 -1 -1 6.12323e-17 523.5 534.5)"/><path d="M0 0.333333-23.9996 0.333333-23.6663 0-23.6663 47.6191-23.9996 47.2858 189.449 47.2858 189.449 103.349 165.776 103.349 165.776 102.683 189.115 102.683 188.782 103.016 188.782 47.6191 189.115 47.9524-24.3329 47.9524-24.3329-0.333333 0-0.333333ZM173.608 107.97 165.114 103.016 173.608 98.0613C173.767 97.9685 173.971 98.0222 174.064 98.1812 174.157 98.3402 174.103 98.5443 173.944 98.6371L165.944 103.304 165.944 102.728 173.944 107.395C174.103 107.487 174.157 107.691 174.064 107.85 173.971 108.009 173.767 108.063 173.608 107.97Z" transform="matrix(-1 0 0 1 523.616 526.5)"/><path d="M254.5 280.833 253.833 280.833 253.833 280.167 254.5 280.167ZM253.167 280.833 252.5 280.833 252.5 280.167 253.167 280.167ZM251.833 280.833 251.167 280.833 251.167 280.167 251.833 280.167ZM250.5 280.833 249.833 280.833 249.833 280.167 250.5 280.167ZM249.167 280.833 248.5 280.833 248.5 280.167 249.167 280.167ZM247.833 280.833 247.167 280.833 247.167 280.167 247.833 280.167ZM246.5 280.833 245.833 280.833 245.833 280.167 246.5 280.167ZM245.167 280.833 244.5 280.833 244.5 280.167 245.167 280.167ZM243.833 280.833 243.167 280.833 243.167 280.167 243.833 280.167ZM242.5 280.833 241.833 280.833 241.833 280.167 242.5 280.167ZM241.167 280.833 240.5 280.833 240.5 280.167 241.167 280.167ZM239.833 280.833 239.167 280.833 239.167 280.167 239.833 280.167ZM238.5 280.833 237.833 280.833 237.833 280.167 238.5 280.167ZM237.167 280.833 236.5 280.833 236.5 280.167 237.167 280.167ZM235.833 280.833 235.167 280.833 235.167 280.167 235.833 280.167ZM234.5 280.833 233.833 280.833 233.833 280.167 234.5 280.167ZM233.167 280.833 232.5 280.833 232.5 280.167 233.167 280.167ZM231.833 280.833 231.167 280.833 231.167 280.167 231.833 280.167ZM230.5 280.833 230.5 280.833 230.833 280.5 230.833 281.167 230.167 281.167 230.167 280.167 230.5 280.167ZM230.833 281.833 230.833 282.5 230.167 282.5 230.167 281.833ZM230.833 283.167 230.833 283.833 230.167 283.833 230.167 283.167ZM230.833 284.5 230.833 285.167 230.167 285.167 230.167 284.5ZM230.833 285.833 230.833 286.5 230.167 286.5 230.167 285.833ZM230.833 287.167 230.833 287.833 230.167 287.833 230.167 287.167ZM230.833 288.5 230.833 289.167 230.167 289.167 230.167 288.5ZM230.833 289.833 230.833 290.5 230.167 290.5 230.167 289.833ZM230.833 291.167 230.833 291.833 230.167 291.833 230.167 291.167ZM230.833 292.5 230.833 293.167 230.167 293.167 230.167 292.5ZM230.833 293.833 230.833 294.5 230.167 294.5 230.167 293.833ZM230.833 295.167 230.833 295.833 230.167 295.833 230.167 295.167ZM230.833 296.5 230.833 297.167 230.167 297.167 230.167 296.5ZM230.833 297.833 230.833 298.5 230.167 298.5 230.167 297.833ZM230.833 299.167 230.833 299.833 230.167 299.833 230.167 299.167ZM230.833 300.5 230.833 301.167 230.167 301.167 230.167 300.5ZM230.833 301.833 230.833 302.5 230.167 302.5 230.167 301.833ZM230.833 303.167 230.833 303.833 230.167 303.833 230.167 303.167ZM230.833 304.5 230.833 305.167 230.167 305.167 230.167 304.5ZM230.833 305.833 230.833 306.5 230.167 306.5 230.167 305.833ZM230.833 307.167 230.833 307.833 230.167 307.833 230.167 307.167ZM230.833 308.5 230.833 309.167 230.167 309.167 230.167 308.5ZM230.833 309.833 230.833 310.5 230.167 310.5 230.167 309.833ZM230.833 311.167 230.833 311.833 230.167 311.833 230.167 311.167ZM230.833 312.5 230.833 313.167 230.167 313.167 230.167 312.5ZM230.833 313.833 230.833 314.5 230.167 314.5 230.167 313.833ZM230.833 315.167 230.833 315.833 230.167 315.833 230.167 315.167ZM230.833 316.5 230.833 317.167 230.167 317.167 230.167 316.5ZM230.833 317.833 230.833 318.5 230.167 318.5 230.167 317.833ZM230.833 319.167 230.833 319.833 230.167 319.833 230.167 319.167ZM230.833 320.5 230.833 321.167 230.167 321.167 230.167 320.5ZM230.833 321.833 230.833 322.5 230.167 322.5 230.167 321.833ZM230.833 323.167 230.833 323.833 230.167 323.833 230.167 323.167ZM230.833 324.5 230.833 325.167 230.167 325.167 230.167 324.5ZM230.833 325.833 230.833 326.5 230.167 326.5 230.167 325.833ZM230.833 327.167 230.833 327.833 230.167 327.833 230.167 327.167ZM230.833 328.5 230.833 329.167 230.167 329.167 230.167 328.5ZM230.833 329.833 230.833 330.5 230.167 330.5 230.167 329.833ZM230.833 331.167 230.833 331.833 230.167 331.833 230.167 331.167ZM230.833 332.5 230.833 333.167 230.167 333.167 230.167 332.5ZM230.833 333.833 230.833 334.5 230.167 334.5 230.167 333.833ZM230.833 335.167 230.833 335.833 230.167 335.833 230.167 335.167ZM230.833 336.5 230.833 337.167 230.167 337.167 230.167 336.5ZM230.833 337.833 230.833 338.5 230.167 338.5 230.167 337.833ZM230.833 339.167 230.833 339.833 230.167 339.833 230.167 339.167ZM230.833 340.5 230.833 341.167 230.167 341.167 230.167 340.5ZM230.833 341.833 230.833 342.5 230.167 342.5 230.167 341.833ZM230.833 343.167 230.833 343.833 230.167 343.833 230.167 343.167ZM230.833 344.5 230.833 345.167 230.167 345.167 230.167 344.5ZM230.833 345.833 230.833 346.5 230.167 346.5 230.167 345.833ZM230.833 347.167 230.833 347.833 230.167 347.833 230.167 347.167ZM230.833 348.5 230.833 349.167 230.167 349.167 230.167 348.5ZM230.833 349.833 230.833 350.5 230.167 350.5 230.167 349.833ZM230.833 351.167 230.833 351.833 230.167 351.833 230.167 351.167ZM230.833 352.5 230.833 353.167 230.167 353.167 230.167 352.5ZM230.833 353.833 230.833 354.5 230.167 354.5 230.167 353.833ZM230.833 355.167 230.833 355.833 230.167 355.833 230.167 355.167ZM230.833 356.5 230.833 357.167 230.167 357.167 230.167 356.5ZM230.833 357.833 230.833 358.5 230.167 358.5 230.167 357.833ZM230.833 359.167 230.833 359.833 230.167 359.833 230.167 359.167ZM230.833 360.5 230.833 361.167 230.167 361.167 230.167 360.5ZM230.833 361.833 230.833 362.5 230.167 362.5 230.167 361.833ZM230.833 363.167 230.833 363.833 230.167 363.833 230.167 363.167ZM230.833 364.5 230.833 365.167 230.167 365.167 230.167 364.5ZM230.833 365.833 230.833 366.5 230.167 366.5 230.167 365.833ZM230.833 367.167 230.833 367.833 230.167 367.833 230.167 367.167ZM230.833 368.5 230.833 369.167 230.167 369.167 230.167 368.5ZM230.833 369.833 230.833 370.5 230.167 370.5 230.167 369.833ZM230.833 371.167 230.833 371.833 230.167 371.833 230.167 371.167ZM230.833 372.5 230.833 373.167 230.167 373.167 230.167 372.5ZM230.833 373.833 230.833 374.5 230.167 374.5 230.167 373.833ZM230.833 375.167 230.833 375.833 230.167 375.833 230.167 375.167ZM230.833 376.5 230.833 377.167 230.167 377.167 230.167 376.5ZM230.833 377.833 230.833 378.5 230.167 378.5 230.167 377.833ZM230.833 379.167 230.833 379.833 230.167 379.833 230.167 379.167ZM230.833 380.5 230.833 381.167 230.167 381.167 230.167 380.5ZM230.833 381.833 230.833 382.5 230.167 382.5 230.167 381.833ZM230.833 383.167 230.833 383.833 230.167 383.833 230.167 383.167ZM230.833 384.5 230.833 385.167 230.167 385.167 230.167 384.5ZM230.833 385.833 230.833 386.5 230.167 386.5 230.167 385.833ZM230.833 387.167 230.833 387.833 230.167 387.833 230.167 387.167ZM230.833 388.5 230.833 389.167 230.167 389.167 230.167 388.5ZM230.833 389.833 230.833 390.5 230.167 390.5 230.167 389.833ZM230.833 391.167 230.833 391.833 230.167 391.833 230.167 391.167ZM230.833 392.5 230.833 393.167 230.167 393.167 230.167 392.5ZM230.833 393.833 230.833 394.5 230.167 394.5 230.167 393.833ZM230.833 395.167 230.833 395.833 230.167 395.833 230.167 395.167ZM230.833 396.5 230.833 397.167 230.167 397.167 230.167 396.5ZM230.833 397.833 230.833 398.5 230.167 398.5 230.167 397.833ZM230.833 399.167 230.833 399.833 230.167 399.833 230.167 399.167ZM230.833 400.5 230.833 401.167 230.167 401.167 230.167 400.5ZM230.833 401.833 230.833 402.5 230.167 402.5 230.167 401.833ZM230.833 403.167 230.833 403.833 230.167 403.833 230.167 403.167ZM230.833 404.5 230.833 405.167 230.167 405.167 230.167 404.5ZM230.833 405.833 230.833 406.5 230.167 406.5 230.167 405.833ZM230.833 407.167 230.833 407.833 230.167 407.833 230.167 407.167ZM230.833 408.5 230.833 409.167 230.167 409.167 230.167 408.5ZM230.833 409.833 230.833 410.5 230.167 410.5 230.167 409.833ZM230.833 411.167 230.833 411.833 230.167 411.833 230.167 411.167ZM230.833 412.5 230.833 413.167 230.167 413.167 230.167 412.5ZM230.833 413.833 230.833 414.5 230.167 414.5 230.167 413.833ZM230.833 415.167 230.833 415.833 230.167 415.833 230.167 415.167ZM230.833 416.5 230.833 417.167 230.167 417.167 230.167 416.5ZM230.833 417.833 230.833 418.5 230.167 418.5 230.167 417.833ZM230.833 419.167 230.833 419.833 230.167 419.833 230.167 419.167ZM230.833 420.5 230.833 421.167 230.167 421.167 230.167 420.5ZM230.833 421.833 230.833 422.5 230.167 422.5 230.167 421.833ZM230.833 423.167 230.833 423.833 230.167 423.833 230.167 423.167ZM230.833 424.5 230.833 425.167 230.167 425.167 230.167 424.5ZM230.833 425.833 230.833 426.5 230.167 426.5 230.167 425.833ZM230.833 427.167 230.833 427.833 230.167 427.833 230.167 427.167ZM230.833 428.5 230.833 429.167 230.167 429.167 230.167 428.5ZM230.833 429.833 230.833 430.5 230.167 430.5 230.167 429.833ZM230.833 431.167 230.833 431.833 230.167 431.833 230.167 431.167ZM230.833 432.5 230.833 433.167 230.167 433.167 230.167 432.5ZM230.833 433.833 230.833 434.5 230.167 434.5 230.167 433.833ZM230.833 435.167 230.833 435.833 230.167 435.833 230.167 435.167ZM230.833 436.5 230.833 437.167 230.167 437.167 230.167 436.5ZM230.833 437.833 230.833 438.5 230.167 438.5 230.167 437.833ZM230.833 439.167 230.833 439.833 230.167 439.833 230.167 439.167ZM230.833 440.5 230.833 441.167 230.167 441.167 230.167 440.5ZM230.833 441.833 230.833 442.5 230.167 442.5 230.167 441.833ZM230.833 443.167 230.833 443.833 230.167 443.833 230.167 443.167ZM230.833 444.5 230.833 445.167 230.167 445.167 230.167 444.5ZM230.833 445.833 230.833 446.5 230.167 446.5 230.167 445.833ZM230.833 447.167 230.833 447.833 230.167 447.833 230.167 447.167ZM230.833 448.5 230.833 449.167 230.167 449.167 230.167 448.5ZM230.833 449.833 230.833 450.5 230.167 450.5 230.167 449.833ZM230.833 451.167 230.833 451.833 230.167 451.833 230.167 451.167ZM230.833 452.5 230.833 453.167 230.167 453.167 230.167 452.5ZM230.833 453.833 230.833 454.5 230.167 454.5 230.167 453.833ZM230.833 455.167 230.833 455.833 230.167 455.833 230.167 455.167ZM230.833 456.5 230.833 457.167 230.167 457.167 230.167 456.5ZM230.833 457.833 230.833 458.5 230.167 458.5 230.167 457.833ZM230.833 459.167 230.833 459.833 230.167 459.833 230.167 459.167ZM230.833 460.5 230.833 461.167 230.167 461.167 230.167 460.5ZM230.833 461.833 230.833 462.5 230.167 462.5 230.167 461.833ZM230.833 463.167 230.833 463.833 230.167 463.833 230.167 463.167ZM230.833 464.5 230.833 465.167 230.167 465.167 230.167 464.5ZM230.833 465.833 230.833 466.5 230.167 466.5 230.167 465.833ZM230.833 467.167 230.833 467.833 230.167 467.833 230.167 467.167ZM230.833 468.5 230.833 469.167 230.167 469.167 230.167 468.5ZM230.833 469.833 230.833 470.5 230.167 470.5 230.167 469.833ZM230.833 471.167 230.833 471.833 230.167 471.833 230.167 471.167ZM230.833 472.5 230.833 473.167 230.167 473.167 230.167 472.5ZM230.833 473.833 230.833 474.5 230.167 474.5 230.167 473.833ZM230.833 475.167 230.833 475.833 230.167 475.833 230.167 475.167ZM230.833 476.5 230.833 477.167 230.167 477.167 230.167 476.5ZM230.833 477.833 230.833 478.5 230.167 478.5 230.167 477.833ZM230.833 479.167 230.833 479.833 230.167 479.833 230.167 479.167ZM230.833 480.5 230.833 481.167 230.167 481.167 230.167 480.5ZM230.833 481.833 230.833 482.5 230.167 482.5 230.167 481.833ZM230.833 483.167 230.833 483.833 230.167 483.833 230.167 483.167ZM230.833 484.5 230.833 485.167 230.167 485.167 230.167 484.5ZM230.833 485.833 230.833 486.5 230.167 486.5 230.167 485.833ZM230.833 487.167 230.833 487.833 230.167 487.833 230.167 487.167ZM230.833 488.5 230.833 489.167 230.167 489.167 230.167 488.5ZM230.833 489.833 230.833 490.5 230.167 490.5 230.167 489.833ZM230.833 491.167 230.833 491.833 230.167 491.833 230.167 491.167ZM230.833 492.5 230.833 493.167 230.167 493.167 230.167 492.5ZM230.833 493.833 230.833 494.5 230.167 494.5 230.167 493.833ZM230.833 495.167 230.833 495.833 230.167 495.833 230.167 495.167ZM230.833 496.5 230.833 497.167 230.167 497.167 230.167 496.5ZM230.833 497.833 230.833 498.5 230.167 498.5 230.167 497.833ZM230.833 499.167 230.833 499.833 230.167 499.833 230.167 499.167ZM230.833 500.5 230.833 501.167 230.167 501.167 230.167 500.5ZM230.833 501.833 230.833 502.5 230.167 502.5 230.167 501.833ZM230.833 503.167 230.833 503.833 230.167 503.833 230.167 503.167ZM230.833 504.5 230.833 505.167 230.167 505.167 230.167 504.5ZM230.833 505.833 230.833 506.5 230.167 506.5 230.167 505.833ZM230.833 507.167 230.833 507.833 230.167 507.833 230.167 507.167ZM230.833 508.5 230.833 509.167 230.167 509.167 230.167 508.5ZM230.833 509.833 230.833 510.5 230.167 510.5 230.167 509.833ZM230.833 511.167 230.833 511.833 230.167 511.833 230.167 511.167ZM230.833 512.5 230.833 513.167 230.167 513.167 230.167 512.5ZM230.833 513.833 230.833 514.5 230.167 514.5 230.167 513.833ZM230.833 515.167 230.833 515.833 230.167 515.833 230.167 515.167ZM230.833 516.5 230.833 517.167 230.167 517.167 230.167 516.5ZM230.833 517.833 230.833 518.5 230.167 518.5 230.167 517.833ZM230.833 519.167 230.833 519.833 230.167 519.833 230.167 519.167ZM230.833 520.5 230.833 521.167 230.167 521.167 230.167 520.5ZM230.833 521.833 230.833 522.5 230.167 522.5 230.167 521.833ZM230.833 523.167 230.833 523.833 230.167 523.833 230.167 523.167ZM230.833 524.5 230.833 525.167 230.167 525.167 230.167 524.5ZM230.833 525.833 230.833 526.5 230.167 526.5 230.167 525.833ZM230.833 527.167 230.833 527.833 230.167 527.833 230.167 527.167ZM230.833 528.5 230.833 529.167 230.167 529.167 230.167 528.5ZM230.833 529.833 230.833 530.5 230.167 530.5 230.167 529.833ZM230.833 531.167 230.833 531.833 230.167 531.833 230.167 531.167ZM230.833 532.5 230.833 533.167 230.167 533.167 230.167 532.5ZM230.833 533.833 230.833 534.5 230.167 534.5 230.167 533.833ZM230.833 535.167 230.833 535.833 230.167 535.833 230.167 535.167ZM230.833 536.5 230.833 537.167 230.167 537.167 230.167 536.5ZM230.833 537.833 230.833 538.5 230.167 538.5 230.167 537.833ZM230.833 539.167 230.833 539.833 230.167 539.833 230.167 539.167ZM230.833 540.5 230.833 541.167 230.167 541.167 230.167 540.5ZM230.833 541.833 230.833 542.5 230.167 542.5 230.167 541.833ZM230.833 543.167 230.833 543.833 230.167 543.833 230.167 543.167ZM230.833 544.5 230.833 545.167 230.167 545.167 230.167 544.5ZM230.833 545.833 230.833 546.5 230.167 546.5 230.167 545.833ZM230.833 547.167 230.833 547.833 230.167 547.833 230.167 547.167ZM230.833 548.5 230.833 549.167 230.167 549.167 230.167 548.5ZM230.833 549.833 230.833 550.5 230.167 550.5 230.167 549.833ZM230.833 551.167 230.833 551.833 230.167 551.833 230.167 551.167ZM230.833 552.5 230.833 553.167 230.167 553.167 230.167 552.5ZM230.833 553.833 230.833 554.5 230.167 554.5 230.167 553.833ZM230.833 555.167 230.833 555.833 230.167 555.833 230.167 555.167ZM230.833 556.5 230.833 557.167 230.167 557.167 230.167 556.5ZM230.833 557.833 230.833 558.5 230.167 558.5 230.167 557.833ZM230.833 559.167 230.833 559.833 230.167 559.833 230.167 559.167ZM230.833 560.5 230.833 561.167 230.167 561.167 230.167 560.5ZM230.833 561.833 230.833 562.5 230.167 562.5 230.167 561.833ZM230.833 563.167 230.833 563.833 230.167 563.833 230.167 563.167ZM230.833 564.5 230.833 565.167 230.167 565.167 230.167 564.5ZM230.833 565.833 230.833 566.5 230.167 566.5 230.167 565.833ZM230.833 567.167 230.833 567.833 230.167 567.833 230.167 567.167ZM230.833 568.5 230.833 569.167 230.167 569.167 230.167 568.5ZM230.833 569.833 230.833 570.5 230.167 570.5 230.167 569.833ZM230.833 571.167 230.833 571.833 230.167 571.833 230.167 571.167ZM230.833 572.5 230.833 573.167 230.167 573.167 230.167 572.5ZM230.833 573.833 230.833 574.5 230.167 574.5 230.167 573.833ZM230.833 575.167 230.833 575.833 230.167 575.833 230.167 575.167ZM230.833 576.5 230.833 577.167 230.167 577.167 230.167 576.5ZM230.833 577.833 230.833 578.5 230.167 578.5 230.167 577.833ZM230.833 579.167 230.833 579.833 230.167 579.833 230.167 579.167ZM230.833 580.5 230.833 581.167 230.167 581.167 230.167 580.5ZM230.833 581.833 230.833 582.5 230.167 582.5 230.167 581.833ZM230.833 583.167 230.833 583.833 230.167 583.833 230.167 583.167ZM230.833 584.5 230.833 585.167 230.167 585.167 230.167 584.5ZM230.833 585.833 230.833 586.5 230.167 586.5 230.167 585.833ZM230.833 587.167 230.833 587.833 230.167 587.833 230.167 587.167ZM230.833 588.5 230.833 589.167 230.167 589.167 230.167 588.5ZM230.833 589.833 230.833 590.5 230.167 590.5 230.167 589.833ZM230.833 591.167 230.833 591.833 230.167 591.833 230.167 591.167ZM230.833 592.5 230.833 593.167 230.167 593.167 230.167 592.5ZM230.833 593.833 230.833 594.5 230.167 594.5 230.167 593.833ZM230.833 595.167 230.833 595.833 230.167 595.833 230.167 595.167ZM230.833 596.5 230.833 597.167 230.167 597.167 230.167 596.5ZM230.833 597.833 230.833 598.5 230.167 598.5 230.167 597.833ZM230.833 599.167 230.833 599.833 230.167 599.833 230.167 599.167ZM230.833 600.5 230.833 601.167 230.167 601.167 230.167 600.5ZM230.833 601.833 230.833 602.5 230.167 602.5 230.167 601.833ZM230.833 603.167 230.833 603.833 230.167 603.833 230.167 603.167ZM230.833 604.5 230.833 605.167 230.167 605.167 230.167 604.5ZM230.833 605.833 230.833 606.5 230.167 606.5 230.167 605.833ZM230.833 607.167 230.833 607.833 230.167 607.833 230.167 607.167ZM230.833 608.5 230.833 609.167 230.167 609.167 230.167 608.5ZM230.833 609.833 230.833 610.5 230.167 610.5 230.167 609.833ZM230.833 611.167 230.833 611.833 230.167 611.833 230.167 611.167ZM230.833 612.5 230.833 613.167 230.167 613.167 230.167 612.5ZM230.833 613.833 230.833 614.5 230.167 614.5 230.167 613.833ZM230.833 615.167 230.833 615.833 230.167 615.833 230.167 615.167ZM230.833 616.5 230.833 617.167 230.167 617.167 230.167 616.5ZM230.833 617.833 230.833 618.5 230.167 618.5 230.167 617.833ZM230.833 619.167 230.833 619.833 230.167 619.833 230.167 619.167ZM230.833 620.5 230.833 621.167 230.167 621.167 230.167 620.5ZM230.833 621.833 230.833 622.5 230.167 622.5 230.167 621.833ZM230.833 623.167 230.833 623.833 230.167 623.833 230.167 623.167ZM230.833 624.5 230.833 625.167 230.167 625.167 230.167 624.5ZM230.833 625.833 230.833 626.5 230.167 626.5 230.167 625.833ZM230.833 627.167 230.833 627.833 230.167 627.833 230.167 627.167ZM230.833 628.5 230.833 629.167 230.167 629.167 230.167 628.5ZM230.833 629.833 230.833 630.5 230.167 630.5 230.167 629.833ZM230.833 631.167 230.833 631.833 230.167 631.833 230.167 631.167ZM230.833 632.5 230.833 633.167 230.167 633.167 230.167 632.5ZM230.833 633.833 230.833 634.5 230.167 634.5 230.167 633.833ZM230.833 635.167 230.833 635.833 230.167 635.833 230.167 635.167ZM230.833 636.5 230.833 637.167 230.167 637.167 230.167 636.5ZM230.833 637.833 230.833 638.5 230.167 638.5 230.167 637.833ZM230.833 639.167 230.833 639.833 230.167 639.833 230.167 639.167ZM230.833 640.5 230.833 641.167 230.167 641.167 230.167 640.5ZM230.833 641.833 230.833 642.5 230.167 642.5 230.167 641.833ZM230.833 643.167 230.833 643.833 230.167 643.833 230.167 643.167ZM230.833 644.5 230.833 645.167 230.167 645.167 230.167 644.5ZM230.833 645.833 230.833 646.5 230.167 646.5 230.167 645.833ZM230.833 647.167 230.833 647.833 230.167 647.833 230.167 647.167ZM230.833 648.5 230.833 649.167 230.167 649.167 230.167 648.5ZM230.833 649.833 230.833 650.5 230.167 650.5 230.167 649.833ZM230.833 651.167 230.833 651.833 230.167 651.833 230.167 651.167ZM230.833 652.5 230.833 653.167 230.167 653.167 230.167 652.5ZM230.833 653.833 230.833 654.5 230.167 654.5 230.167 653.833ZM230.833 655.167 230.833 655.833 230.167 655.833 230.167 655.167ZM230.833 656.5 230.833 657.167 230.167 657.167 230.167 656.5ZM230.833 657.833 230.833 658.5 230.167 658.5 230.167 657.833ZM230.833 659.167 230.833 659.833 230.167 659.833 230.167 659.167ZM230.833 660.5 230.833 661.167 230.167 661.167 230.167 660.5ZM230.833 661.833 230.833 662.5 230.167 662.5 230.167 661.833ZM230.833 663.167 230.833 663.833 230.167 663.833 230.167 663.167ZM230.833 664.5 230.833 665.167 230.167 665.167 230.167 664.5ZM230.833 665.833 230.833 666.5 230.167 666.5 230.167 665.833ZM230.833 667.167 230.833 667.833 230.167 667.833 230.167 667.167ZM230.833 668.5 230.833 669.167 230.167 669.167 230.167 668.5ZM230.833 669.833 230.833 670.5 230.167 670.5 230.167 669.833ZM230.833 671.167 230.833 671.833 230.167 671.833 230.167 671.167ZM230.833 672.5 230.833 673.167 230.167 673.167 230.167 672.5ZM230.833 673.833 230.833 674.5 230.167 674.5 230.167 673.833ZM230.833 675.167 230.833 675.833 230.167 675.833 230.167 675.167ZM230.833 676.5 230.833 677.167 230.167 677.167 230.167 676.5ZM230.833 677.833 230.833 678.5 230.167 678.5 230.167 677.833ZM230.833 679.167 230.833 679.833 230.167 679.833 230.167 679.167ZM230.833 680.5 230.833 681.167 230.167 681.167 230.167 680.5ZM230.833 681.833 230.833 682.5 230.167 682.5 230.167 681.833ZM230.833 683.167 230.833 683.833 230.167 683.833 230.167 683.167ZM230.833 684.5 230.833 685.167 230.167 685.167 230.167 684.5ZM230.833 685.833 230.833 686.5 230.167 686.5 230.167 685.833ZM230.833 687.167 230.833 687.833 230.167 687.833 230.167 687.167ZM230.833 688.5 230.833 689.167 230.167 689.167 230.167 688.5ZM230.833 689.833 230.833 690.5 230.167 690.5 230.167 689.833ZM230.833 691.167 230.833 691.833 230.167 691.833 230.167 691.167ZM230.833 692.5 230.833 693.167 230.167 693.167 230.167 692.5ZM230.833 693.833 230.833 694.5 230.167 694.5 230.167 693.833ZM230.833 695.167 230.833 695.833 230.167 695.833 230.167 695.167ZM230.833 696.5 230.833 697.167 230.167 697.167 230.167 696.5ZM230.833 697.833 230.833 698.5 230.167 698.5 230.167 697.833ZM230.833 699.167 230.833 699.833 230.167 699.833 230.167 699.167ZM230.833 700.5 230.833 701.167 230.167 701.167 230.167 700.5ZM230.833 701.833 230.833 702.5 230.167 702.5 230.167 701.833ZM230.833 703.167 230.833 703.833 230.167 703.833 230.167 703.167ZM230.833 704.5 230.833 705.167 230.167 705.167 230.167 704.5ZM230.833 705.833 230.833 706.5 230.167 706.5 230.167 705.833ZM230.833 707.167 230.833 707.833 230.167 707.833 230.167 707.167ZM230.833 708.5 230.833 709.167 230.167 709.167 230.167 708.5ZM230.833 709.833 230.833 710.5 230.167 710.5 230.167 709.833ZM230.833 711.167 230.833 711.833 230.167 711.833 230.167 711.167ZM230.88 711.786 231.547 711.786 231.547 712.453 230.88 712.453ZM232.214 711.786 232.88 711.786 232.88 712.453 232.214 712.453ZM233.547 711.786 234.214 711.786 234.214 712.453 233.547 712.453ZM234.88 711.786 235.547 711.786 235.547 712.453 234.88 712.453ZM236.214 711.786 236.88 711.786 236.88 712.453 236.214 712.453ZM237.547 711.786 238.214 711.786 238.214 712.453 237.547 712.453ZM238.88 711.786 239.547 711.786 239.547 712.453 238.88 712.453ZM240.214 711.786 240.88 711.786 240.88 712.453 240.214 712.453ZM241.547 711.786 242.214 711.786 242.214 712.453 241.547 712.453ZM242.88 711.786 243.547 711.786 243.547 712.453 242.88 712.453ZM244.214 711.786 244.88 711.786 244.88 712.453 244.214 712.453ZM245.547 711.786 246.214 711.786 246.214 712.453 245.547 712.453ZM246.88 711.786 247.547 711.786 247.547 712.453 246.88 712.453ZM248.214 711.786 248.88 711.786 248.88 712.453 248.214 712.453ZM249.547 711.786 250.214 711.786 250.214 712.453 249.547 712.453ZM250.88 711.786 251.547 711.786 251.547 712.453 250.88 712.453ZM252.214 711.786 252.88 711.786 252.88 712.453 252.214 712.453ZM253.547 711.786 254.214 711.786 254.214 712.453 253.547 712.453ZM254.88 711.786 255.547 711.786 255.547 712.453 254.88 712.453ZM256.214 711.786 256.88 711.786 256.88 712.453 256.214 712.453ZM257.547 711.786 258.214 711.786 258.214 712.453 257.547 712.453ZM258.88 711.786 259.547 711.786 259.547 712.453 258.88 712.453ZM260.214 711.786 260.88 711.786 260.88 712.453 260.214 712.453ZM261.547 711.786 262.214 711.786 262.214 712.453 261.547 712.453ZM262.88 711.786 263.547 711.786 263.547 712.453 262.88 712.453ZM264.214 711.786 264.88 711.786 264.88 712.453 264.214 712.453ZM265.547 711.786 266.214 711.786 266.214 712.453 265.547 712.453ZM266.88 711.786 267.547 711.786 267.547 712.453 266.88 712.453ZM268.214 711.786 268.88 711.786 268.88 712.453 268.214 712.453ZM269.547 711.786 270.214 711.786 270.214 712.453 269.547 712.453ZM270.88 711.786 271.547 711.786 271.547 712.453 270.88 712.453ZM272.214 711.786 272.88 711.786 272.88 712.453 272.214 712.453ZM273.547 711.786 274.214 711.786 274.214 712.453 273.547 712.453ZM274.88 711.786 275.547 711.786 275.547 712.453 274.88 712.453ZM276.214 711.786 276.88 711.786 276.88 712.453 276.214 712.453ZM277.547 711.786 278.214 711.786 278.214 712.453 277.547 712.453ZM278.88 711.786 279.547 711.786 279.547 712.453 278.88 712.453ZM280.214 711.786 280.88 711.786 280.88 712.453 280.214 712.453ZM281.547 711.786 282.214 711.786 282.214 712.453 281.547 712.453ZM282.88 711.786 283.547 711.786 283.547 712.453 282.88 712.453ZM284.214 711.786 284.88 711.786 284.88 712.453 284.214 712.453ZM285.547 711.786 286.214 711.786 286.214 712.453 285.547 712.453ZM286.88 711.786 287.547 711.786 287.547 712.453 286.88 712.453ZM288.214 711.786 288.88 711.786 288.88 712.453 288.214 712.453ZM289.547 711.786 290.214 711.786 290.214 712.453 289.547 712.453ZM290.88 711.786 291.547 711.786 291.547 712.453 290.88 712.453ZM292.214 711.786 292.88 711.786 292.88 712.453 292.214 712.453ZM293.547 711.786 294.214 711.786 294.214 712.453 293.547 712.453ZM294.88 711.786 295.547 711.786 295.547 712.453 294.88 712.453ZM296.214 711.786 296.88 711.786 296.88 712.453 296.214 712.453ZM297.547 711.786 298.214 711.786 298.214 712.453 297.547 712.453ZM298.88 711.786 299.547 711.786 299.547 712.453 298.88 712.453ZM300.214 711.786 300.88 711.786 300.88 712.453 300.214 712.453ZM301.547 711.786 302.214 711.786 302.214 712.453 301.547 712.453ZM302.88 711.786 303.547 711.786 303.547 712.453 302.88 712.453ZM304.214 711.786 304.88 711.786 304.88 712.453 304.214 712.453ZM305.547 711.786 306.214 711.786 306.214 712.453 305.547 712.453ZM306.88 711.786 307.547 711.786 307.547 712.453 306.88 712.453ZM308.214 711.786 308.88 711.786 308.88 712.453 308.214 712.453ZM309.547 711.786 310.214 711.786 310.214 712.453 309.547 712.453ZM310.88 711.786 311.547 711.786 311.547 712.453 310.88 712.453ZM312.214 711.786 312.88 711.786 312.88 712.453 312.214 712.453ZM313.547 711.786 314.214 711.786 314.214 712.453 313.547 712.453ZM314.88 711.786 315.547 711.786 315.547 712.453 314.88 712.453ZM316.214 711.786 316.88 711.786 316.88 712.453 316.214 712.453ZM317.547 711.786 318.214 711.786 318.214 712.453 317.547 712.453ZM318.88 711.786 319.547 711.786 319.547 712.453 318.88 712.453ZM320.214 711.786 320.88 711.786 320.88 712.453 320.214 712.453ZM321.547 711.786 322.214 711.786 322.214 712.453 321.547 712.453ZM322.88 711.786 323.547 711.786 323.547 712.453 322.88 712.453ZM324.214 711.786 324.88 711.786 324.88 712.453 324.214 712.453ZM325.547 711.786 326.214 711.786 326.214 712.453 325.547 712.453ZM326.88 711.786 327.547 711.786 327.547 712.453 326.88 712.453ZM328.214 711.786 328.88 711.786 328.88 712.453 328.214 712.453ZM329.547 711.786 330.214 711.786 330.214 712.453 329.547 712.453ZM330.88 711.786 331.547 711.786 331.547 712.453 330.88 712.453ZM332.214 711.786 332.88 711.786 332.88 712.453 332.214 712.453ZM333.547 711.786 334.214 711.786 334.214 712.453 333.547 712.453ZM334.88 711.786 335.547 711.786 335.547 712.453 334.88 712.453ZM336.214 711.786 336.88 711.786 336.88 712.453 336.214 712.453ZM337.547 711.786 338.214 711.786 338.214 712.453 337.547 712.453ZM338.88 711.786 339.547 711.786 339.547 712.453 338.88 712.453ZM340.214 711.786 340.88 711.786 340.88 712.453 340.214 712.453ZM341.547 711.786 342.214 711.786 342.214 712.453 341.547 712.453ZM342.88 711.786 343.547 711.786 343.547 712.453 342.88 712.453ZM344.214 711.786 344.88 711.786 344.88 712.453 344.214 712.453ZM345.547 711.786 346.214 711.786 346.214 712.453 345.547 712.453ZM346.88 711.786 347.547 711.786 347.547 712.453 346.88 712.453ZM348.214 711.786 348.88 711.786 348.88 712.453 348.214 712.453ZM349.547 711.786 350.214 711.786 350.214 712.453 349.547 712.453ZM350.88 711.786 351.547 711.786 351.547 712.453 350.88 712.453ZM352.214 711.786 352.88 711.786 352.88 712.453 352.214 712.453ZM353.547 711.786 354.214 711.786 354.214 712.453 353.547 712.453ZM354.88 711.786 355.547 711.786 355.547 712.453 354.88 712.453ZM356.214 711.786 356.88 711.786 356.88 712.453 356.214 712.453ZM357.547 711.786 357.984 711.786 357.984 712.453 357.547 712.453ZM350.153 707.165 358.647 712.12 350.153 717.074C349.994 717.167 349.79 717.113 349.697 716.954 349.604 716.795 349.658 716.591 349.817 716.498L357.817 711.832 357.817 712.407 349.817 707.741C349.658 707.648 349.604 707.444 349.697 707.285 349.79 707.126 349.994 707.072 350.153 707.165Z"/><path d="M59.5001 130.5C59.5001 103.99 85.9153 82.5001 118.5 82.5001 151.085 82.5001 177.5 103.99 177.5 130.5 177.5 157.01 151.085 178.5 118.5 178.5 85.9153 178.5 59.5001 157.01 59.5001 130.5Z" stroke="#BC8C00" stroke-width="1.33333" stroke-miterlimit="8" fill="#FFC000" fill-rule="evenodd"/><text fill="#FFFFFF" font-family="Yu Gothic,Yu Gothic_MSFontService,sans-serif" font-weight="400" font-size="16" transform="translate(85.8744 125)">サービス<tspan font-size="16" x="0" y="19">ドメイン</tspan></text><path d="M177.5 130.167 252.99 130.167 252.99 130.833 177.5 130.833ZM245.158 125.546 253.651 130.5 245.158 135.455C244.999 135.547 244.795 135.494 244.702 135.335 244.609 135.176 244.663 134.972 244.822 134.879L252.822 130.212 252.822 130.788 244.822 126.121C244.663 126.029 244.609 125.825 244.702 125.666 244.795 125.507 244.999 125.453 245.158 125.546Z" fill="#ED7D31"/><path d="M164.5 269.987C164.5 245.97 183.97 226.5 207.987 226.5L562.013 226.5C586.03 226.5 605.5 245.97 605.5 269.987L605.5 791.013C605.5 815.03 586.03 834.5 562.013 834.5L207.987 834.5C183.97 834.5 164.5 815.03 164.5 791.013Z" stroke="#2F528F" stroke-width="1.33333" stroke-miterlimit="8" stroke-dasharray="5.33333 4" fill="none" fill-rule="evenodd"/><path d="M134.622 159.501 170.452 162.755 160.681 170.899 209.852 229.894 219.623 221.75 216.369 257.58 180.539 254.326 190.31 246.182 141.138 187.187 131.367 195.331Z" stroke="#2F528F" stroke-width="1.33333" stroke-miterlimit="8" stroke-opacity="0.501961" fill="#4472C4" fill-rule="evenodd" fill-opacity="0.501961"/><path d="M151.575 191.648 160.805 182.252 171 192.268 181.195 182.252 190.425 191.648 180.397 201.5 190.425 211.352 181.195 220.748 171 210.732 160.805 220.748 151.575 211.352 161.603 201.5Z" stroke="#2F528F" stroke-width="1.33333" stroke-miterlimit="8" stroke-opacity="0.501961" fill="#FF0000" fill-rule="evenodd" fill-opacity="0.501961"/></g></svg>