<svg width="607" height="575" xmlns="http://www.w3.org/2000/svg" xmlns:xlink="http://www.w3.org/1999/xlink" overflow="hidden"><defs><filter id="fx0" x="-10%" y="-10%" width="120%" height="120%" filterUnits="userSpaceOnUse" primitiveUnits="userSpaceOnUse"><feComponentTransfer color-interpolation-filters="sRGB"><feFuncR type="discrete" tableValues="0 0"/><feFuncG type="discrete" tableValues="0 0"/><feFuncB type="discrete" tableValues="0 0"/><feFuncA type="linear" slope="0.431373" intercept="0"/></feComponentTransfer><feGaussianBlur stdDeviation="0.413243 0.413243"/></filter><filter id="fx1" x="-10%" y="-10%" width="120%" height="120%" filterUnits="userSpaceOnUse" primitiveUnits="userSpaceOnUse"><feComponentTransfer color-interpolation-filters="sRGB"><feFuncR type="discrete" tableValues="0 0"/><feFuncG type="discrete" tableValues="0 0"/><feFuncB type="discrete" tableValues="0 0"/><feFuncA type="linear" slope="0.431373" intercept="0"/></feComponentTransfer><feGaussianBlur stdDeviation="0.413243 0.413243"/></filter><filter id="fx2" x="-10%" y="-10%" width="120%" height="120%" filterUnits="userSpaceOnUse" primitiveUnits="userSpaceOnUse"><feComponentTransfer color-interpolation-filters="sRGB"><feFuncR type="discrete" tableValues="0 0"/><feFuncG type="discrete" tableValues="0 0"/><feFuncB type="discrete" tableValues="0 0"/><feFuncA type="linear" slope="0.431373" intercept="0"/></feComponentTransfer><feGaussianBlur stdDeviation="0.413243 0.413243"/></filter><filter id="fx3" x="-10%" y="-10%" width="120%" height="120%" filterUnits="userSpaceOnUse" primitiveUnits="userSpaceOnUse"><feComponentTransfer color-interpolation-filters="sRGB"><feFuncR type="discrete" tableValues="0 0"/><feFuncG type="discrete" tableValues="0 0"/><feFuncB type="discrete" tableValues="0 0"/><feFuncA type="linear" slope="0.431373" intercept="0"/></feComponentTransfer><feGaussianBlur stdDeviation="0.413243 0.413243"/></filter><filter id="fx4" x="-10%" y="-10%" width="120%" height="120%" filterUnits="userSpaceOnUse" primitiveUnits="userSpaceOnUse"><feComponentTransfer color-interpolation-filters="sRGB"><feFuncR type="discrete" tableValues="0 0"/><feFuncG type="discrete" tableValues="0 0"/><feFuncB type="discrete" tableValues="0 0"/><feFuncA type="linear" slope="0.431373" intercept="0"/></feComponentTransfer><feGaussianBlur stdDeviation="0.413243 0.413243"/></filter><clipPath id="clip5"><rect x="23" y="136" width="607" height="575"/></clipPath><clipPath id="clip6"><rect x="11" y="7" width="160" height="14"/></clipPath><clipPath id="clip7"><rect x="0" y="0" width="182" height="34"/></clipPath><clipPath id="clip8"><rect x="10" y="7" width="68" height="14"/></clipPath><clipPath id="clip9"><rect x="0" y="0" width="89" height="34"/></clipPath><clipPath id="clip10"><rect x="9" y="8" width="54" height="14"/></clipPath><clipPath id="clip11"><rect x="0" y="0" width="73" height="34"/></clipPath><clipPath id="clip12"><rect x="11" y="7" width="53" height="14"/></clipPath><clipPath id="clip13"><rect x="0" y="0" width="76" height="34"/></clipPath><clipPath id="clip14"><rect x="14" y="7" width="50" height="14"/></clipPath><clipPath id="clip15"><rect x="0" y="0" width="76" height="34"/></clipPath></defs><g clip-path="url(#clip5)" transform="translate(-23 -136)"><rect x="394" y="304" width="191" height="349" stroke="#4472C4" stroke-width="2" stroke-miterlimit="8" fill="#FFFFFF"/><g clip-path="url(#clip6)" filter="url(#fx0)" transform="translate(399 302)"><g clip-path="url(#clip7)"><path d="M1.41553-9.46436C2.24072-9.40511 3.12093-9.37549 4.05615-9.37549L9.62939-9.37549C10.0991-9.37549 10.3996-9.40088 10.5308-9.45166 10.6789-9.51514 10.7614-9.54688 10.7783-9.54688 10.8714-9.54688 10.9709-9.48551 11.0767-9.36279 11.3136-9.15967 11.5739-8.88672 11.8574-8.54395 11.9251-8.46354 11.959-8.38525 11.959-8.30908 11.959-8.21175 11.8976-8.12077 11.7749-8.03613 11.6691-7.95996 11.5527-7.83512 11.4258-7.66162 10.7783-6.68408 10.0166-5.84619 9.14062-5.14795 9.06022-5.07178 8.96924-5.03369 8.86768-5.03369 8.75765-5.03369 8.65186-5.07601 8.55029-5.16064 8.27523-5.38493 7.91553-5.56478 7.47119-5.7002 8.06787-6.14453 8.52913-6.52751 8.85498-6.84912 9.19775-7.18343 9.51302-7.55794 9.80078-7.97266L4.18311-7.97266C3.6626-7.97266 2.89665-7.9388 1.88525-7.87109 1.7583-7.86263 1.68001-7.92822 1.65039-8.06787 1.59115-8.271 1.51286-8.73649 1.41553-9.46436ZM2.19629-0.412598C2.94108-0.801921 3.5293-1.20605 3.96094-1.625 4.3291-1.98047 4.64648-2.40365 4.91309-2.89453 5.33626-3.6901 5.54785-4.71419 5.54785-5.9668 5.54785-6.41113 5.50553-6.81738 5.4209-7.18555 6.19531-7.10938 6.75391-7.02686 7.09668-6.93799 7.24479-6.90413 7.31885-6.82161 7.31885-6.69043 7.31885-6.62272 7.29769-6.54655 7.25537-6.46191 7.18766-6.33073 7.14746-6.15299 7.13477-5.92871 7.08822-4.44336 6.83219-3.25 6.3667-2.34863 5.80811-1.27376 5.021-0.410482 4.00537 0.241211 3.87419 0.325846 3.75146 0.368164 3.63721 0.368164 3.54411 0.368164 3.45736 0.327962 3.37695 0.247559 3.08073-0.0105794 2.68717-0.230632 2.19629-0.412598ZM14.7869-8.90576C15.3328-8.84652 16.1644-8.81689 17.2816-8.81689L21.9217-8.81689C22.2476-8.81689 22.4867-8.86133 22.639-8.9502 22.7152-9.00098 22.7892-9.02637 22.8612-9.02637 22.9458-9.02637 23.0177-8.99674 23.077-8.9375 23.4663-8.62435 23.7625-8.32389 23.9657-8.03613 24.0334-7.94303 24.0672-7.8584 24.0672-7.78223 24.0672-7.70182 24.0249-7.6193 23.9403-7.53467 23.8514-7.4458 23.7498-7.27441 23.6356-7.02051 22.9373-5.33626 22.0973-3.92708 21.1156-2.79297 19.9476-1.45996 18.7183-0.427409 17.4276 0.304688 17.3091 0.380859 17.1906 0.418945 17.0721 0.418945 16.9536 0.418945 16.8457 0.37028 16.7484 0.272949 16.4775 0.0148112 16.0755-0.222168 15.5423-0.437988 16.5452-0.945801 17.3853-1.46842 18.0623-2.00586 18.6506-2.47559 19.2261-3.0363 19.7889-3.68799 20.7664-4.80518 21.5007-6.04297 21.9915-7.40137L17.2943-7.40137C16.8034-7.40137 16.0882-7.38021 15.1488-7.33789 15.0133-7.32943 14.9308-7.41618 14.9012-7.59814 14.8716-7.81396 14.8335-8.24984 14.7869-8.90576ZM24.8734-11.2861C25.2923-11.2861 25.6393-11.1338 25.9144-10.8291 26.1556-10.5667 26.2762-10.2557 26.2762-9.896 26.2762-9.47705 26.1217-9.13004 25.8128-8.85498 25.5505-8.618 25.2373-8.49951 24.8734-8.49951 24.4544-8.49951 24.1074-8.65186 23.8324-8.95654 23.5911-9.21891 23.4705-9.53206 23.4705-9.896 23.4705-10.3234 23.625-10.6704 23.9339-10.937 24.1963-11.1698 24.5094-11.2861 24.8734-11.2861ZM24.8734-10.6641C24.6364-10.6641 24.4438-10.5815 24.2957-10.4165 24.1688-10.2726 24.1053-10.0991 24.1053-9.896 24.1053-9.65479 24.1878-9.46012 24.3529-9.31201 24.4925-9.18506 24.666-9.12158 24.8734-9.12158 25.1104-9.12158 25.3029-9.2041 25.451-9.36914 25.578-9.51302 25.6414-9.68864 25.6414-9.896 25.6414-10.133 25.5589-10.3255 25.3939-10.4736 25.2542-10.6006 25.0807-10.6641 24.8734-10.6641ZM29.9611-10.0356C30.799-9.93408 31.3385-9.8431 31.5798-9.7627 31.7279-9.72461 31.8019-9.65479 31.8019-9.55322 31.8019-9.5109 31.7829-9.44531 31.7448-9.35645 31.6517-9.15755 31.6051-8.74707 31.6051-8.125L31.6051-5.49707C31.6051-5.33626 31.6157-4.79036 31.6369-3.85938 31.6369-3.68587 31.5438-3.59912 31.3576-3.59912L30.3102-3.59912C30.1494-3.59912 30.069-3.6626 30.069-3.78955 30.069-3.79378 30.069-3.80436 30.069-3.82129L30.1071-5.59229 30.1071-8.1377C30.1071-8.9375 30.0584-9.57015 29.9611-10.0356ZM30.6213-0.311035C32.0812-0.759603 33.137-1.39225 33.7887-2.20898 34.3727-2.92839 34.6647-4.08577 34.6647-5.68115L34.6647-8.1377C34.6647-9.07292 34.616-9.77962 34.5187-10.2578 35.2424-10.1943 35.8073-10.0991 36.2135-9.97217 36.332-9.93408 36.3913-9.86003 36.3913-9.75 36.3913-9.6696 36.3744-9.59977 36.3405-9.54053 36.2643-9.35856 36.2262-8.88672 36.2262-8.125L36.2262-5.70654C36.2262-4.6613 36.1331-3.7959 35.9469-3.11035 35.7819-2.48828 35.5216-1.94027 35.1662-1.46631 34.8319-1.01774 34.3791-0.598796 33.8078-0.209473 33.3211 0.124837 32.8218 0.387207 32.3097 0.577637 32.1955 0.619954 32.1045 0.641113 32.0368 0.641113 31.931 0.641113 31.8273 0.588216 31.7257 0.482422 31.4168 0.173503 31.0487-0.0909831 30.6213-0.311035ZM48.4932-6.23975C48.4297-5.32568 48.3091-4.55339 48.1313-3.92285 47.9748-3.37272 47.7441-2.81836 47.4395-2.25977 46.7454-1.03255 45.8864-0.105794 44.8623 0.520508 44.7777 0.588216 44.6888 0.62207 44.5957 0.62207 44.5153 0.62207 44.4391 0.592448 44.3672 0.533203 44.0371 0.313151 43.5907 0.122721 43.0278-0.0380859 43.8276-0.512044 44.4603-0.981771 44.9258-1.44727 45.332-1.85352 45.679-2.31478 45.9668-2.83105 46.5042-3.7959 46.8047-4.93213 46.8682-6.23975L44.1895-6.23975C43.6393-5.37646 43.0363-4.62956 42.3804-3.99902 42.3127-3.93131 42.2386-3.89746 42.1582-3.89746 42.0947-3.89746 42.0334-3.91862 41.9741-3.96094 41.6356-4.18099 41.2336-4.33756 40.7681-4.43066 42.1011-5.72982 43.123-7.14323 43.834-8.6709 44.1217-9.31836 44.2952-9.91715 44.3545-10.4673 45.0697-10.2472 45.5902-10.0462 45.916-9.86426 46.0218-9.82617 46.0747-9.75212 46.0747-9.64209 46.0747-9.53206 46.026-9.45166 45.9287-9.40088 45.7933-9.31201 45.6642-9.13428 45.5415-8.86768 45.3849-8.49951 45.1839-8.08268 44.9385-7.61719L49.1152-7.61719C49.4157-7.61719 49.8579-7.62777 50.4419-7.64893 50.9878-7.66585 51.3771-7.67643 51.6099-7.68066 51.7495-7.68066 51.8193-7.60238 51.8193-7.4458 51.8236-7.26383 51.8257-7.08822 51.8257-6.91895 51.8257-6.75391 51.8236-6.5804 51.8193-6.39844 51.8193-6.25879 51.758-6.18896 51.6353-6.18896 50.9116-6.22282 50.1182-6.23975 49.2549-6.23975ZM54.6981-5.70654C55.3752-5.60075 56.3104-5.54785 57.5037-5.54785L61.6932-5.54785C62.1037-5.54785 62.6327-5.5542 63.2801-5.56689 64.1053-5.57959 64.5729-5.58805 64.6829-5.59229 64.7041-5.59229 64.7253-5.59229 64.7464-5.59229 64.8607-5.59229 64.9178-5.53092 64.9178-5.4082 64.9305-5.20931 64.9369-5.00407 64.9369-4.79248 64.9369-4.58512 64.9305-4.382 64.9178-4.18311 64.9178-4.05192 64.8564-3.98633 64.7337-3.98633L64.6829-3.98633C63.3838-4.00325 62.4168-4.01172 61.7821-4.01172L57.1038-4.01172 55.1932-3.85303C55.0282-3.85303 54.9287-3.94401 54.8949-4.12598 54.8187-4.46875 54.7531-4.99561 54.6981-5.70654ZM67.9552-5.65576C67.9806-5.69385 68.1245-5.92871 68.3869-6.36035 68.5011-6.54655 68.5879-6.67985 68.6471-6.76025 68.7106-6.84912 68.7762-6.89355 68.8439-6.89355 68.8608-6.89355 68.8757-6.89144 68.8884-6.88721 69.7897-6.58675 70.6234-6.16146 71.3893-5.61133 71.4824-5.54362 71.529-5.48014 71.529-5.4209 71.529-5.39128 71.512-5.34261 71.4782-5.2749 71.3682-5.0083 71.1777-4.67822 70.9069-4.28467 70.835-4.20003 70.7778-4.15771 70.7355-4.15771 70.6974-4.15771 70.6467-4.18311 70.5832-4.23389 69.8426-4.77979 68.9666-5.25374 67.9552-5.65576ZM69.5295-8.70898 70.215-9.75C70.2743-9.84733 70.3356-9.896 70.3991-9.896 70.4372-9.896 70.4858-9.88118 70.5451-9.85156 71.5311-9.45378 72.3457-8.97347 72.9889-8.41064 73.0566-8.36409 73.0905-8.30697 73.0905-8.23926 73.0905-8.18424 73.0736-8.12923 73.0397-8.07422 72.79-7.62565 72.5679-7.2998 72.3732-7.09668 72.3436-7.0459 72.3013-7.02051 72.2463-7.02051 72.1912-7.02051 72.1257-7.05013 72.0495-7.10938 71.237-7.78223 70.397-8.31543 69.5295-8.70898ZM68.9836-1.30127C69.5337-1.40706 70.1219-1.61865 70.7482-1.93604 72.1532-2.67659 73.3402-3.42562 74.3092-4.18311 75.6507-5.20719 76.8991-6.41748 78.0544-7.81396 78.1136-7.40348 78.2406-6.91683 78.4352-6.354 78.4775-6.25244 78.4987-6.16992 78.4987-6.10645 78.4987-6.00488 78.4521-5.90544 78.3591-5.80811 77.3688-4.75016 76.2664-3.74935 75.0519-2.80566 74.0448-2.03971 72.7498-1.2251 71.1672-0.361816 70.7101-0.116374 70.4583 0.0317383 70.4118 0.0825195 70.3441 0.150228 70.2743 0.184082 70.2023 0.184082 70.1092 0.184082 70.0225 0.131185 69.9421 0.0253906 69.6966-0.220052 69.3771-0.662272 68.9836-1.30127ZM88.2837-4.09424 88.2837-5.40186 85.2813-5.40186C85.0527-5.40186 84.7248-5.38916 84.2974-5.36377 83.9081-5.34261 83.6288-5.32992 83.4595-5.32568 83.3452-5.31299 83.2796-5.41243 83.2627-5.62402 83.2458-5.83984 83.2246-6.19531 83.1992-6.69043 83.6943-6.64811 84.3884-6.62695 85.2813-6.62695L87.541-6.62695C88.4424-6.62695 89.0835-6.63542 89.4644-6.65234 89.5955-6.65234 89.6611-6.59521 89.6611-6.48096L89.6611-6.44287 89.6357-4.7417 89.6357-1.74561C89.6357-1.38167 89.6527-0.76595 89.6865 0.101562 89.6865 0.203125 89.6633 0.268717 89.6167 0.29834 89.5786 0.32373 89.5067 0.340658 89.4009 0.349121 89.1216 0.366048 88.8275 0.374512 88.5186 0.374512 88.4128 0.374512 88.3451 0.359701 88.3154 0.330078 88.2943 0.304688 88.2837 0.256022 88.2837 0.184082L88.2837-0.209473 85.2051-0.209473C84.6761-0.209473 84.0773-0.188314 83.4087-0.145996 83.2987-0.145996 83.2373-0.232747 83.2246-0.40625 83.1823-0.69401 83.1611-1.05371 83.1611-1.48535 83.6309-1.4515 84.3291-1.43457 85.2559-1.43457L88.2837-1.43457 88.2837-2.86914 85.5288-2.86914C85.0972-2.86914 84.5026-2.85221 83.7451-2.81836 83.6097-2.81836 83.5357-2.91357 83.523-3.104 83.4891-3.33252 83.4722-3.68376 83.4722-4.15771 84.0562-4.1154 84.7332-4.09424 85.5034-4.09424ZM95.0726-8.09961C95.2884-8.36198 95.591-8.70052 95.9803-9.11523 96.0353-9.18294 96.0967-9.2168 96.1644-9.2168 96.2025-9.2168 96.2596-9.19564 96.3358-9.15332 97.1441-8.72168 97.9714-8.10596 98.8177-7.30615 98.8939-7.22998 98.932-7.16862 98.932-7.12207 98.932-7.07552 98.9066-7.02051 98.8558-6.95703 98.5723-6.5804 98.3036-6.25456 98.0497-5.97949 97.9777-5.91178 97.9248-5.87793 97.891-5.87793 97.8486-5.87793 97.7936-5.91178 97.7259-5.97949 96.9346-6.79622 96.0501-7.50293 95.0726-8.09961ZM95.3582-1.6123C96.0522-1.80273 96.6384-2.01855 97.1165-2.25977 97.9544-2.69564 98.6506-3.09554 99.2049-3.45947 99.6916-3.77686 100.242-4.18311 100.855-4.67822 101.727-5.38493 102.419-5.9943 102.931-6.50635 103.418-6.99723 103.915-7.56641 104.423-8.21387 104.49-7.64258 104.611-7.13688 104.785-6.69678 104.827-6.59521 104.848-6.5127 104.848-6.44922 104.848-6.35189 104.778-6.2207 104.639-6.05566 103.881-5.17122 102.884-4.25293 101.649-3.30078 100.574-2.45866 99.2663-1.61019 97.7259-0.755371 97.2689-0.480306 96.979-0.279297 96.8563-0.152344 96.7674-0.0677083 96.6891-0.0253906 96.6214-0.0253906 96.5537-0.0253906 96.4797-0.0719401 96.3993-0.165039 95.9972-0.617839 95.6502-1.10026 95.3582-1.6123ZM112.449-6.68408C114.083-6.17204 115.46-5.58171 116.582-4.91309 116.696-4.85384 116.753-4.77979 116.753-4.69092 116.753-4.65706 116.745-4.61898 116.728-4.57666 116.567-4.17041 116.381-3.79378 116.169-3.44678 116.114-3.34945 116.057-3.30078 115.998-3.30078 115.947-3.30078 115.898-3.32194 115.852-3.36426 114.633-4.14714 113.495-4.70361 112.437-5.03369L112.437-2.1582C112.437-1.68424 112.454-0.835775 112.487 0.387207 112.487 0.404134 112.487 0.416829 112.487 0.425293 112.487 0.531087 112.409 0.583984 112.253 0.583984 112.058 0.59668 111.865 0.603027 111.675 0.603027 111.48 0.603027 111.288 0.59668 111.097 0.583984 110.932 0.583984 110.85 0.518392 110.85 0.387207 110.884-0.450684 110.901-1.30339 110.901-2.1709L110.901-8.56934C110.901-9.36068 110.858-10.0018 110.774-10.4927 111.535-10.4419 112.077-10.3721 112.399-10.2832 112.564-10.2493 112.646-10.1753 112.646-10.061 112.646-9.98909 112.61-9.88965 112.538-9.7627 112.479-9.64844 112.449-9.24219 112.449-8.54395ZM114.792-9.40088 115.477-9.87695C115.507-9.89811 115.534-9.90869 115.56-9.90869 115.589-9.90869 115.627-9.88965 115.674-9.85156 116.118-9.50879 116.529-9.04541 116.905-8.46143 116.931-8.42757 116.944-8.39583 116.944-8.36621 116.944-8.32812 116.92-8.29004 116.874-8.25195L116.321-7.85205C116.283-7.82243 116.25-7.80762 116.22-7.80762 116.182-7.80762 116.144-7.83512 116.106-7.89014 115.699-8.50797 115.261-9.01156 114.792-9.40088ZM115.985-10.2578 116.639-10.7275C116.668-10.7487 116.696-10.7593 116.721-10.7593 116.751-10.7593 116.787-10.7402 116.829-10.7021 117.333-10.3213 117.745-9.87484 118.067-9.36279 118.092-9.32047 118.105-9.2845 118.105-9.25488 118.105-9.20833 118.08-9.16602 118.029-9.12793L117.508-8.72168C117.47-8.69629 117.437-8.68359 117.407-8.68359 117.36-8.68359 117.32-8.7111 117.286-8.76611 116.922-9.34587 116.489-9.8431 115.985-10.2578ZM126.925-6.11914C127.374-6.80469 127.791-7.57275 128.176-8.42334 128.421-9.00732 128.586-9.54053 128.671-10.0229 129.441-9.74365 129.987-9.4707 130.309-9.2041 130.393-9.14062 130.436-9.06657 130.436-8.98193 130.436-8.87191 130.387-8.77669 130.29-8.69629 130.154-8.5778 129.959-8.28792 129.706-7.82666 129.113-6.68408 128.62-5.82503 128.227-5.24951 128.819-4.78825 129.456-4.20003 130.137-3.48486 130.188-3.42139 130.213-3.36003 130.213-3.30078 130.213-3.2627 130.192-3.20768 130.15-3.13574 129.976-2.90723 129.712-2.59831 129.356-2.20898 129.31-2.14974 129.257-2.12012 129.198-2.12012 129.143-2.12012 129.084-2.1582 129.02-2.23438 128.483-2.8776 127.916-3.45101 127.319-3.95459 125.935-2.21533 124.452-0.861165 122.869 0.10791 122.759 0.175618 122.66 0.209473 122.571 0.209473 122.478 0.209473 122.395 0.17985 122.323 0.120605 121.87-0.256022 121.481-0.495117 121.155-0.59668 122.247-1.23568 123.189-1.90641 123.98-2.60889 124.691-3.24365 125.383-3.99479 126.056-4.8623 125.256-5.45898 124.412-5.97526 123.523-6.41113 123.997-7.01628 124.283-7.37174 124.38-7.47754 124.422-7.51986 124.465-7.54102 124.507-7.54102 124.545-7.54102 124.598-7.52409 124.666-7.49023 125.372-7.13477 126.126-6.67773 126.925-6.11914ZM141.319-6.73486 141.319-2.43115C141.319-1.66943 141.331-0.768066 141.357 0.272949 141.357 0.294108 141.357 0.306803 141.357 0.311035 141.357 0.433756 141.291 0.495117 141.16 0.495117 140.948 0.507812 140.733 0.51416 140.513 0.51416 140.292 0.51416 140.077 0.507812 139.865 0.495117 139.742 0.495117 139.681 0.440104 139.681 0.330078 139.681 0.321615 139.681 0.306803 139.681 0.285645 139.685 0.0825195 139.696-0.397786 139.713-1.15527 139.725-1.65039 139.732-2.05876 139.732-2.38037L139.732-5.4082C138.424-4.30794 137.233-3.4764 136.158-2.91357 136.099-2.87972 136.033-2.86279 135.961-2.86279 135.868-2.86279 135.777-2.90511 135.688-2.98975 135.443-3.23519 135.07-3.49121 134.571-3.75781 136.107-4.54915 137.472-5.43783 138.665-6.42383 139.723-7.29134 140.646-8.19694 141.433-9.14062 141.814-9.58496 142.089-10.0314 142.258-10.48 142.944-10.0949 143.424-9.7902 143.699-9.56592 143.767-9.51937 143.801-9.45589 143.801-9.37549 143.801-9.26123 143.739-9.16602 143.617-9.08984 143.426-8.96289 143.168-8.72379 142.842-8.37256 142.394-7.83512 141.886-7.28923 141.319-6.73486ZM148.406-8.09961C148.622-8.36198 148.924-8.70052 149.314-9.11523 149.369-9.18294 149.43-9.2168 149.498-9.2168 149.536-9.2168 149.593-9.19564 149.669-9.15332 150.477-8.72168 151.305-8.10596 152.151-7.30615 152.227-7.22998 152.265-7.16862 152.265-7.12207 152.265-7.07552 152.24-7.02051 152.189-6.95703 151.906-6.5804 151.637-6.25456 151.383-5.97949 151.311-5.91178 151.258-5.87793 151.224-5.87793 151.182-5.87793 151.127-5.91178 151.059-5.97949 150.268-6.79622 149.383-7.50293 148.406-8.09961ZM148.692-1.6123C149.386-1.80273 149.972-2.01855 150.45-2.25977 151.288-2.69564 151.984-3.09554 152.538-3.45947 153.025-3.77686 153.575-4.18311 154.189-4.67822 155.06-5.38493 155.752-5.9943 156.264-6.50635 156.751-6.99723 157.248-7.56641 157.756-8.21387 157.824-7.64258 157.944-7.13688 158.118-6.69678 158.16-6.59521 158.181-6.5127 158.181-6.44922 158.181-6.35189 158.111-6.2207 157.972-6.05566 157.214-5.17122 156.218-4.25293 154.982-3.30078 153.907-2.45866 152.6-1.61019 151.059-0.755371 150.602-0.480306 150.312-0.279297 150.19-0.152344 150.101-0.0677083 150.022-0.0253906 149.955-0.0253906 149.887-0.0253906 149.813-0.0719401 149.733-0.165039 149.331-0.617839 148.984-1.10026 148.692-1.6123Z" transform="translate(11.3649 19)"/></g></g><text font-family="Yu Gothic,Yu Gothic_MSFontService,sans-serif" font-weight="700" font-size="13" transform="translate(409.488 320)">アプリケーションドメイン</text><g clip-path="url(#clip8)" filter="url(#fx1)" transform="translate(446 318)"><g clip-path="url(#clip9)"><path d="M7.17285-4.06885C7.57064-3.45101 7.89648-2.757 8.15039-1.98682 8.15885-1.96143 8.16309-1.93604 8.16309-1.91064 8.64974-2.50309 9.07503-3.20557 9.43896-4.01807 9.53206-4.23389 9.60612-4.42855 9.66113-4.60205L9.4707-4.60205 8.15039-4.57666C8.08268-4.57666 8.04248-4.58512 8.02979-4.60205 8.01709-4.61898 8.01074-4.65706 8.01074-4.71631L8.01074-5.65576C8.01074-5.72347 8.01921-5.76367 8.03613-5.77637 8.05306-5.78906 8.09115-5.79541 8.15039-5.79541L8.50586-5.78271 8.50586-9.04541C8.36621-9.03695 8.25195-9.03271 8.16309-9.03271 8.09538-9.03271 8.05518-9.04118 8.04248-9.05811 8.02979-9.07503 8.02344-9.11523 8.02344-9.17871L8.02344-10.0737C8.02344-10.1499 8.0319-10.1965 8.04883-10.2134 8.06575-10.2261 8.10384-10.2324 8.16309-10.2324L9.43896-10.207 10.8799-10.207 12.1685-10.2324C12.2362-10.2324 12.2764-10.2218 12.2891-10.2007 12.3018-10.1838 12.3081-10.1414 12.3081-10.0737L12.3081-9.17871C12.3081-9.10677 12.2996-9.06445 12.2827-9.05176 12.2658-9.03906 12.2277-9.03271 12.1685-9.03271L11.5845-9.04541C11.5041-7.8055 11.356-6.7137 11.1401-5.77002L12.27-5.79541C12.3462-5.79541 12.3927-5.78695 12.4097-5.77002 12.4224-5.75309 12.4287-5.71501 12.4287-5.65576L12.4287-4.71631C12.4287-4.65283 12.4202-4.61369 12.4033-4.59888 12.3864-4.58407 12.342-4.57666 12.27-4.57666L10.9688-4.60205 10.8418-4.60205C10.7318-4.25928 10.6366-3.98633 10.5562-3.7832 10.6154-3.7832 10.6979-3.77474 10.8037-3.75781 10.9222-3.74512 10.9814-3.69222 10.9814-3.59912 10.9814-3.5568 10.9561-3.46582 10.9053-3.32617 10.8714-3.25 10.8545-3.05534 10.8545-2.74219L10.8545-0.907715C10.8545-0.641113 10.8672-0.480306 10.8926-0.425293 10.9137-0.382975 10.9963-0.361816 11.1401-0.361816 11.284-0.361816 11.3835-0.440104 11.4385-0.59668 11.4808-0.719401 11.5062-1.25684 11.5146-2.20898 11.7474-1.99316 11.9823-1.82812 12.2192-1.71387 12.3462-1.66732 12.4202-1.62923 12.4414-1.59961 12.471-1.56999 12.4858-1.51286 12.4858-1.42822 12.4858-1.4113 12.4837-1.37321 12.4795-1.31396 12.4541-0.738444 12.4054-0.321615 12.3335-0.0634766 12.2785 0.139648 12.1896 0.308919 12.0669 0.444336 11.8384 0.69401 11.4554 0.818848 10.918 0.818848 10.5286 0.818848 10.243 0.757487 10.061 0.634766 9.91715 0.541667 9.82406 0.418945 9.78174 0.266602 9.74365 0.135417 9.72461-0.074056 9.72461-0.361816L9.72461-2.09473C9.06022-0.986003 8.20117-0.0148112 7.14746 0.818848 6.99512 0.933105 6.8999 0.990234 6.86182 0.990234 6.81527 0.990234 6.72852 0.907715 6.60156 0.742676 6.37305 0.471842 6.12972 0.258138 5.87158 0.101562 6.77718-0.486654 7.4987-1.10449 8.03613-1.75195L7.39502-1.45361C7.31885-1.41976 7.26807-1.40283 7.24268-1.40283 7.20882-1.40283 7.18131-1.44303 7.16016-1.52344L7.0459-1.88525C6.52962-1.58057 5.75732-1.17643 4.729-0.672852 4.47933-0.55013 4.31429-0.44222 4.23389-0.349121 4.17887-0.281413 4.12386-0.247559 4.06885-0.247559 3.98421-0.247559 3.91439-0.304688 3.85938-0.418945 3.75358-0.660156 3.63298-1.04948 3.49756-1.58691 3.83187-1.65462 4.13444-1.74137 4.40527-1.84717L4.40527-8.06152 4.37988-10.1118C4.37988-10.2091 4.4222-10.2578 4.50684-10.2578L5.66846-10.2324 6.67773-10.2324 7.52197-10.2578C7.59391-10.2578 7.63623-10.2493 7.64893-10.2324 7.66162-10.2155 7.66797-10.1753 7.66797-10.1118L7.64258-8.6709 7.64258-6.17627 7.66797-4.73535C7.66797-4.65918 7.6595-4.61263 7.64258-4.5957 7.62565-4.58301 7.58545-4.57666 7.52197-4.57666L6.67773-4.60205 5.52246-4.60205 5.52246-2.31689C5.89909-2.48193 6.27572-2.6639 6.65234-2.86279 6.55078-3.09131 6.41325-3.35368 6.23975-3.6499 6.21436-3.69645 6.20166-3.73031 6.20166-3.75146 6.20166-3.78955 6.25244-3.82975 6.354-3.87207L6.95068-4.13232C7.00146-4.15348 7.03743-4.16406 7.05859-4.16406 7.09245-4.16406 7.13053-4.13232 7.17285-4.06885ZM10.3975-9.05811 9.59766-9.05811 9.59766-5.77002 9.99756-5.77002C10.2134-6.74756 10.3467-7.84359 10.3975-9.05811ZM6.58887-5.71924 6.58887-6.9126 5.52246-6.9126 5.52246-5.71924ZM6.58887-9.12793 5.52246-9.12793 5.52246-8.00439 6.58887-8.00439ZM0.247559-3.16748C1.03467-4.37354 1.57633-5.70866 1.87256-7.17285L1.79639-7.17285 0.691895-7.14746C0.603027-7.14746 0.558594-7.19613 0.558594-7.29346L0.558594-8.22656C0.558594-8.32389 0.603027-8.37256 0.691895-8.37256L1.79639-8.34717 1.96143-8.34717 1.96143-9.13428C1.96143-9.88753 1.9318-10.4609 1.87256-10.8545 2.32536-10.8418 2.73161-10.8101 3.09131-10.7593 3.23096-10.7297 3.30078-10.6831 3.30078-10.6196 3.30078-10.5688 3.27539-10.4821 3.22461-10.3594 3.17383-10.224 3.14844-9.82194 3.14844-9.15332L3.14844-8.34717 3.94189-8.37256C4.0096-8.37256 4.0498-8.36409 4.0625-8.34717 4.0752-8.33024 4.08154-8.29004 4.08154-8.22656L4.08154-7.29346C4.08154-7.22152 4.07308-7.1792 4.05615-7.1665 4.03923-7.15381 4.00114-7.14746 3.94189-7.14746 3.93343-7.14746 3.85514-7.15169 3.70703-7.16016 3.55046-7.16439 3.37695-7.16862 3.18652-7.17285 3.4235-6.41113 3.80859-5.67057 4.3418-4.95117 4.16829-4.65072 4.03076-4.35238 3.9292-4.05615 3.87842-3.9165 3.83398-3.84668 3.7959-3.84668 3.76628-3.84668 3.71549-3.9165 3.64355-4.05615 3.44043-4.47087 3.26693-4.94694 3.12305-5.48438L3.19922 0.901367C3.19922 0.969076 3.19075 1.00928 3.17383 1.02197 3.1569 1.03467 3.1167 1.04102 3.05322 1.04102L2.05664 1.04102C1.9847 1.04102 1.94238 1.03255 1.92969 1.01562 1.91699 0.998698 1.91064 0.960612 1.91064 0.901367 1.91064 0.892904 1.91699 0.590332 1.92969-0.00634766 1.97201-1.75407 1.99528-3.37695 1.99951-4.875 1.74137-3.84245 1.40918-2.95801 1.00293-2.22168 0.922526-2.07357 0.865397-1.99951 0.831543-1.99951 0.797689-1.99951 0.755371-2.0778 0.70459-2.23438 0.564941-2.64062 0.412598-2.95166 0.247559-3.16748ZM20.5379-6.93164 19.0145-6.93164 17.7196-6.90625C17.6476-6.90625 17.6053-6.91471 17.5926-6.93164 17.5799-6.94857 17.5736-6.98665 17.5736-7.0459L17.5736-7.7251C16.7314-7.16227 15.8174-6.68408 14.8314-6.29053 14.6663-6.23128 14.5669-6.20166 14.533-6.20166 14.4611-6.20166 14.3828-6.3138 14.2982-6.53809 14.1543-6.85547 13.9723-7.13688 13.7523-7.38232 15.8216-8.0848 17.4678-9.0835 18.6908-10.3784 18.8854-10.5562 19.0589-10.7847 19.2113-11.064 19.8926-10.9751 20.3644-10.901 20.6268-10.8418 20.758-10.8079 20.8236-10.7529 20.8236-10.6768 20.8236-10.6048 20.7812-10.5519 20.6966-10.5181L20.5887-10.4673C22.0106-9.10889 23.8049-8.14616 25.9715-7.5791 25.7769-7.34212 25.6076-7.02262 25.4637-6.62061 25.3791-6.38786 25.3008-6.27148 25.2288-6.27148 25.1992-6.27148 25.0998-6.30111 24.9305-6.36035 23.8726-6.74967 22.8887-7.24268 21.9788-7.83936L21.9788-7.0459C21.9788-6.97819 21.9704-6.93799 21.9535-6.92529 21.9365-6.9126 21.8984-6.90625 21.8392-6.90625ZM18.0179-8.04883C18.1449-8.04036 18.4771-8.03613 19.0145-8.03613L20.5379-8.03613C21.1812-8.03613 21.5578-8.04036 21.6678-8.04883 21.0288-8.48893 20.4089-9.02213 19.8079-9.64844 19.2747-9.06445 18.6781-8.53125 18.0179-8.04883ZM22.3343-6.18896C22.4655-6.18896 22.5734-6.20589 22.658-6.23975 22.7596-6.28206 22.8337-6.30322 22.8802-6.30322 22.9818-6.30322 23.1595-6.17838 23.4134-5.92871 23.6546-5.69596 23.7752-5.53092 23.7752-5.43359 23.7752-5.3278 23.7139-5.24105 23.5911-5.17334 23.443-5.0887 23.2843-4.93213 23.1151-4.70361 22.6623-4.10693 22.2201-3.56103 21.7884-3.06592 21.708-2.98975 21.6466-2.95166 21.6043-2.95166 21.5324-2.95166 21.3674-3.03841 21.1092-3.21191 20.7707-3.45736 20.6014-3.61393 20.6014-3.68164 20.6014-3.71549 20.6226-3.75358 20.6649-3.7959 21.1388-4.30371 21.5007-4.72477 21.7503-5.05908L17.7703-5.05908 15.9993-5.03369C15.9316-5.03369 15.8914-5.04427 15.8787-5.06543 15.866-5.08236 15.8597-5.12256 15.8597-5.18604L15.8597-6.07471C15.8597-6.14242 15.8682-6.18262 15.8851-6.19531 15.902-6.20801 15.9401-6.21436 15.9993-6.21436L17.7703-6.18896ZM21.8138-1.68848C22.1227-1.56152 22.457-1.46631 22.8167-1.40283 22.9564-1.37321 23.041-1.34782 23.0706-1.32666 23.1087-1.30127 23.1278-1.25895 23.1278-1.19971 23.1278-1.16585 23.1193-1.09603 23.1024-0.990234 22.9754-0.220052 22.7109 0.279297 22.3089 0.507812 21.9196 0.723633 21.0796 0.831543 19.7889 0.831543 18.6844 0.831543 17.9735 0.74056 17.6561 0.558594 17.3345 0.376628 17.1737-1.49012e-08 17.1737-0.571289L17.1737-2.12012C17.1737-2.53483 17.1525-2.89453 17.1102-3.19922 17.5588-3.19922 18.001-3.17806 18.4368-3.13574 18.5934-3.11035 18.6717-3.06169 18.6717-2.98975 18.6717-2.93896 18.6506-2.86914 18.6082-2.78027 18.5532-2.67871 18.5257-2.48405 18.5257-2.19629L18.5257-1.01562C18.5257-0.74056 18.5955-0.567057 18.7352-0.495117 18.9087-0.40625 19.298-0.361816 19.9032-0.361816 20.4279-0.361816 20.7855-0.376628 20.9759-0.40625 21.1706-0.435872 21.3335-0.495117 21.4647-0.583984 21.6847-0.719401 21.8011-1.08757 21.8138-1.68848ZM15.2313-2.91357C15.2524-2.98551 15.2799-3.02148 15.3138-3.02148 15.335-3.02148 15.3857-3.00667 15.4661-2.97705L16.4056-2.65332C16.5029-2.61947 16.5516-2.57926 16.5516-2.53271 16.5516-2.51156 16.5452-2.4777 16.5326-2.43115 16.1982-1.34782 15.792-0.459147 15.3138 0.234863 15.2546 0.315267 15.2017 0.355469 15.1551 0.355469 15.117 0.355469 15.0662 0.336426 15.0028 0.29834L14.1141-0.196777C14.0295-0.247559 13.9871-0.296224 13.9871-0.342773 13.9871-0.372396 14.0041-0.410482 14.0379-0.457031 14.5796-1.14258 14.9774-1.96143 15.2313-2.91357ZM24.0863-3.00244C24.6829-2.24919 25.1844-1.4515 25.5907-0.609375 25.616-0.562826 25.6287-0.526855 25.6287-0.501465 25.6287-0.463379 25.578-0.412598 25.4764-0.349121L24.5941 0.152344C24.5094 0.198893 24.4565 0.222168 24.4354 0.222168 24.4015 0.222168 24.3719 0.177734 24.3465 0.0888672 23.953-0.850586 23.4769-1.68213 22.9183-2.40576 22.8802-2.44808 22.8612-2.48405 22.8612-2.51367 22.8612-2.55176 22.9056-2.59408 22.9945-2.64062L23.8133-3.04053C23.8853-3.07438 23.9339-3.09131 23.9593-3.09131 23.9974-3.09131 24.0397-3.06169 24.0863-3.00244ZM19.7826-3.80859C20.3115-3.41504 20.8278-2.94743 21.3314-2.40576 21.3737-2.34652 21.3949-2.30631 21.3949-2.28516 21.3949-2.24707 21.361-2.20052 21.2933-2.14551L20.6268-1.57422C20.5548-1.51074 20.5083-1.479 20.4871-1.479 20.4533-1.479 20.4089-1.51286 20.3538-1.58057 19.9053-2.13493 19.425-2.62158 18.9129-3.04053 18.8621-3.07861 18.8368-3.11881 18.8368-3.16113 18.8368-3.19922 18.8664-3.24154 18.9256-3.28809L19.5223-3.7959C19.5773-3.84668 19.6217-3.87207 19.6556-3.87207 19.6852-3.87207 19.7275-3.85091 19.7826-3.80859ZM33.1286-7.83936 33.1286-5.78271 35.547-5.78271C36.5203-5.78271 37.4725-5.80387 38.4035-5.84619 38.4966-5.84619 38.5495-5.7679 38.5622-5.61133 38.5749-5.45052 38.5812-5.2876 38.5812-5.12256 38.5812-4.95752 38.5749-4.7946 38.5622-4.63379 38.5537-4.47721 38.4945-4.39893 38.3844-4.39893 38.3633-4.39893 38.34-4.39893 38.3146-4.39893 37.1382-4.42008 36.2157-4.43066 35.547-4.43066L33.1159-4.43066 33.1159-2.46924C33.1159-2.10107 33.2323-1.87044 33.465-1.77734 33.7528-1.68424 34.2246-1.6377 34.8805-1.6377 35.8242-1.6377 36.5881-1.68848 37.172-1.79004 37.2778-1.79004 37.3307-1.72656 37.3307-1.59961 37.3561-1.36686 37.3688-1.02409 37.3688-0.571289 37.3688-0.461263 37.3477-0.387207 37.3053-0.349121 37.2715-0.32373 37.2059-0.306803 37.1086-0.29834 36.5457-0.222168 35.7396-0.184082 34.6901-0.184082 33.6999-0.184082 32.9487-0.300456 32.4367-0.533203 31.8654-0.795573 31.5798-1.32454 31.5798-2.12012L31.5798-4.43066 30.7482-4.43066C29.9484-4.43066 29.047-4.4095 28.0441-4.36719 27.9087-4.35872 27.8346-4.44124 27.8219-4.61475 27.8092-4.69515 27.7796-5.10563 27.7331-5.84619 28.3678-5.79541 29.3771-5.77002 30.7609-5.77002L31.5798-5.77002 31.5798-7.82666C30.3737-7.82666 29.6204-7.8182 29.32-7.80127 29.1719-7.80127 29.0978-7.87956 29.0978-8.03613 29.064-8.38314 29.047-8.78516 29.047-9.24219 29.5675-9.19987 30.452-9.17871 31.7004-9.17871L34.3219-9.17871C35.0964-9.17871 35.9512-9.19564 36.8864-9.22949 37.0176-9.22949 37.0832-9.15544 37.0832-9.00732 37.1001-8.59261 37.1086-8.27311 37.1086-8.04883 37.1086-7.90072 37.0366-7.82666 36.8927-7.82666L36.8356-7.82666 34.3219-7.83936ZM49.6484-10.1118 50.3848-10.5308C50.4102-10.5435 50.4334-10.5498 50.4546-10.5498 50.4927-10.5498 50.5308-10.5286 50.5688-10.4863 50.9666-10.1182 51.3348-9.6167 51.6733-8.98193 51.6903-8.95231 51.6987-8.9248 51.6987-8.89941 51.6987-8.85286 51.6691-8.81055 51.6099-8.77246L51.0259-8.42334C50.992-8.40641 50.9624-8.39795 50.937-8.39795 50.8905-8.39795 50.8503-8.42757 50.8164-8.48682 50.4609-9.15967 50.0716-9.70133 49.6484-10.1118ZM50.918-10.8545 51.6226-11.2607C51.6522-11.2777 51.6786-11.2861 51.7019-11.2861 51.7252-11.2861 51.7601-11.2629 51.8066-11.2163 52.2679-10.7847 52.6361-10.3001 52.9111-9.7627 52.9281-9.72884 52.9365-9.6971 52.9365-9.66748 52.9365-9.6167 52.9069-9.57015 52.8477-9.52783L52.3018-9.17871C52.2637-9.15755 52.2298-9.14697 52.2002-9.14697 52.1494-9.14697 52.1092-9.17871 52.0796-9.24219 51.7622-9.86003 51.375-10.3975 50.918-10.8545ZM42.6406-9.68652C43.3981-9.64421 44.1175-9.62305 44.7988-9.62305L47.1919-9.62305C48.0848-9.62305 48.8148-9.63997 49.3818-9.67383 49.4876-9.67383 49.5405-9.59131 49.5405-9.42627 49.5532-9.26969 49.5596-9.11312 49.5596-8.95654 49.5596-8.79997 49.5532-8.64128 49.5405-8.48047 49.5405-8.31543 49.4834-8.23291 49.3691-8.23291 48.6794-8.2583 47.9536-8.271 47.1919-8.271L44.7988-8.271C44.5365-8.271 43.9207-8.25407 42.9517-8.22021 42.8162-8.22021 42.7422-8.29427 42.7295-8.44238 42.7168-8.56087 42.702-8.764 42.6851-9.05176 42.6639-9.34798 42.6491-9.55957 42.6406-9.68652ZM47.3696-5.24951C47.3273-4.45817 47.2448-3.81283 47.1221-3.31348 47.012-2.84798 46.8385-2.38883 46.6016-1.93604 46.335-1.40706 45.9668-0.903483 45.4971-0.425293 45.1077-0.0317383 44.7142 0.283529 44.3164 0.520508 44.1514 0.626302 44.0202 0.683431 43.9229 0.691895 43.8298 0.683431 43.7409 0.636881 43.6562 0.552246 43.3812 0.272949 42.994 0.0423177 42.4946-0.139648 43.1929-0.516276 43.743-0.888672 44.145-1.25684 44.5216-1.60384 44.8348-2.00374 45.0845-2.45654 45.3299-2.89242 45.4992-3.33887 45.5923-3.7959 45.6685-4.16406 45.7192-4.6486 45.7446-5.24951L43.2754-5.24951C42.8607-5.24951 42.2111-5.22412 41.3267-5.17334 41.2293-5.16064 41.1722-5.24316 41.1553-5.4209 41.0876-5.80599 41.0537-6.2207 41.0537-6.66504 41.5404-6.62272 42.2767-6.60156 43.2627-6.60156L49.1025-6.60156C50.0293-6.60156 50.8735-6.62695 51.6353-6.67773 51.7283-6.67773 51.7749-6.59098 51.7749-6.41748 51.7834-6.32861 51.7876-6.16252 51.7876-5.91919 51.7876-5.67586 51.7834-5.50977 51.7749-5.4209 51.7749-5.27279 51.7114-5.19873 51.5845-5.19873 50.6831-5.23258 49.86-5.24951 49.1152-5.24951ZM61.1663-2.74219C61.7461-3.05111 62.3618-3.45524 63.0135-3.95459 63.9106-4.64014 64.6681-5.37646 65.286-6.16357 65.3368-5.70654 65.4722-5.26855 65.6922-4.84961 65.743-4.72689 65.7684-4.65283 65.7684-4.62744 65.7684-4.53857 65.7028-4.43066 65.5716-4.30371 64.9326-3.64779 64.2915-3.07861 63.6483-2.59619 62.9035-2.0249 62.1333-1.50439 61.3377-1.03467 61.215-0.954264 61.0902-0.863281 60.9632-0.761719 60.8786-0.69401 60.7897-0.660156 60.6966-0.660156 60.6289-0.660156 60.5379-0.69401 60.4237-0.761719 60.174-0.935221 59.9137-1.19971 59.6429-1.55518 59.5667-1.67367 59.5286-1.76465 59.5286-1.82812 59.5286-1.8916 59.5456-1.95719 59.5794-2.0249 59.6302-2.12223 59.6556-2.45231 59.6556-3.01514L59.6556-7.08398C59.6556-8.19271 59.6112-8.94808 59.5223-9.3501 60.3433-9.2443 60.887-9.15332 61.1536-9.07715 61.3102-9.03906 61.3885-8.96501 61.3885-8.85498 61.3885-8.77458 61.3547-8.66455 61.2869-8.5249 61.2065-8.36409 61.1663-7.88379 61.1663-7.08398ZM56.6278-8.5249C57.4657-8.42334 58.0158-8.32812 58.2782-8.23926 58.4178-8.20117 58.4876-8.12288 58.4876-8.00439 58.4876-7.95784 58.4749-7.90283 58.4495-7.83936 58.3438-7.632 58.2909-7.33789 58.2909-6.95703 58.2655-5.39974 58.0306-4.12598 57.5863-3.13574 57.2054-2.23438 56.5897-1.41976 55.7391-0.691895 55.5994-0.577637 55.4873-0.520508 55.4027-0.520508 55.335-0.520508 55.2524-0.554362 55.1551-0.62207 54.8504-0.833659 54.4823-1.01562 54.0506-1.16797 55.0662-1.93815 55.7856-2.80143 56.2088-3.75781 56.4162-4.26562 56.5558-4.76709 56.6278-5.26221 56.7082-5.78695 56.7505-6.51058 56.7547-7.43311 56.7547-7.83936 56.7124-8.20329 56.6278-8.5249Z" transform="translate(11.0315 19)"/></g></g><text font-family="Yu Gothic,Yu Gothic_MSFontService,sans-serif" font-weight="700" font-size="13" transform="translate(456.155 336)">概念モデル</text><rect x="423.5" y="360.5" width="154" height="136" stroke="#41719C" stroke-width="1.33333" stroke-miterlimit="8" fill="#5B9BD5"/><text fill="#FFFFFF" font-family="Yu Gothic,Yu Gothic_MSFontService,sans-serif" font-weight="400" font-size="13" transform="translate(453.705 377)">概念情報クラス</text><rect x="24.5001" y="138.5" width="605" height="572" stroke="#D9D9D9" stroke-width="1.33333" stroke-miterlimit="8" fill="none"/><rect x="394" y="172" width="191" height="66" stroke="#70AD47" stroke-width="2" stroke-miterlimit="8" fill="#FFFFFF"/><text font-family="Yu Gothic,Yu Gothic_MSFontService,sans-serif" font-weight="400" font-size="13" transform="translate(415.988 201)">OOA of OOA <tspan font-size="13" x="80.3333" y="0">メタモデル</tspan><tspan font-size="13" x="4.24667" y="16">(</tspan><tspan font-size="13" x="9.41336" y="16">xtumlmc_schema.sql</tspan><tspan font-size="13" x="137.58" y="16">)</tspan></text><rect x="229" y="304" width="125" height="349" stroke="#AE5A21" stroke-width="2" stroke-miterlimit="8" fill="#ED7D31" fill-opacity="0.501961"/><g clip-path="url(#clip10)" filter="url(#fx2)" transform="translate(256 302)"><g clip-path="url(#clip11)"><path d="M5.50977-10.061 8.62012 0.0253906 6.78564 0.0253906 5.92871-2.93896 2.83105-2.93896 1.96143 0.0253906 0.29834 0.0253906 3.38965-10.061ZM5.61768-4.24023 5.02734-6.28418C4.95117-6.57194 4.75228-7.39925 4.43066-8.76611L4.31641-8.76611C4.10059-7.82243 3.89323-6.99935 3.69434-6.29688L3.14844-4.24023ZM16.092-10.2451 16.092 0.0253906 14.5177 0.0253906 14.5177-0.964844C14.0565-0.181966 13.39 0.209473 12.5182 0.209473 11.6634 0.209473 10.9842-0.158691 10.4806-0.89502 10.0194-1.57633 9.78874-2.46924 9.78874-3.57373 9.78874-4.82633 10.0892-5.78483 10.6901-6.44922 11.1725-6.98665 11.7819-7.25537 12.5182-7.25537 13.373-7.25537 14.0226-6.87663 14.467-6.11914L14.467-10.2451ZM14.467-4.75439C14.1369-5.57113 13.6439-5.97949 12.988-5.97949 12.514-5.97949 12.1395-5.75732 11.8644-5.31299 11.5978-4.88558 11.4645-4.29736 11.4645-3.54834 11.4645-2.67236 11.6359-2.01644 11.9787-1.58057 12.2495-1.23779 12.5986-1.06641 13.026-1.06641 13.6439-1.06641 14.1242-1.46419 14.467-2.25977ZM18.1776-5.31299C18.5457-6.62484 19.5296-7.28076 21.1292-7.28076 22.9743-7.28076 23.8968-6.49154 23.8968-4.91309L23.8968-2.08203C23.8968-1.39225 23.9349-0.689779 24.0111 0.0253906L22.5067 0.0253906C22.4601-0.241211 22.4199-0.552246 22.3861-0.907715 21.874-0.171387 21.125 0.196777 20.139 0.196777 19.4323 0.196777 18.8779-0.019043 18.4759-0.450684 18.1204-0.831543 17.9427-1.32243 17.9427-1.92334 17.9427-3.19287 18.7192-3.97786 20.2723-4.27832 20.8478-4.38835 21.527-4.45605 22.3099-4.48145L22.3099-4.8877C22.3099-5.36165 22.1978-5.69808 21.9735-5.89697 21.7788-6.06624 21.4784-6.15088 21.0721-6.15088 20.6997-6.15088 20.3908-6.03027 20.1453-5.78906 19.9211-5.56901 19.7751-5.27279 19.7074-4.90039ZM22.3099-3.47217C21.764-3.45947 21.2181-3.38965 20.6722-3.2627 19.8936-3.0765 19.5042-2.67236 19.5042-2.05029 19.5042-1.33089 19.8851-0.971191 20.6468-0.971191 21.3408-0.971191 21.8952-1.36263 22.3099-2.14551ZM27.7946-7.10938 27.7946-6.05566C28.2897-6.86393 28.9562-7.26807 29.7941-7.26807 30.6616-7.26807 31.3408-6.91895 31.8317-6.2207 32.2845-5.56901 32.5109-4.69092 32.5109-3.58643 32.5109-2.32536 32.202-1.34782 31.5841-0.653809 31.0806-0.0867513 30.4585 0.196777 29.7179 0.196777 28.9012 0.196777 28.277-0.194661 27.8454-0.977539L27.8454 2.53271 26.2204 2.53271 26.2204-7.10938ZM27.8454-4.78613 27.8454-2.25977C28.1882-1.46419 28.6685-1.06641 29.2863-1.06641 29.7772-1.06641 30.1602-1.29281 30.4352-1.74561 30.7018-2.17725 30.8351-2.77816 30.8351-3.54834 30.8351-4.42008 30.6764-5.06755 30.3591-5.49072 30.1094-5.82503 29.7835-5.99219 29.3815-5.99219 28.7087-5.99219 28.1966-5.59017 27.8454-4.78613ZM36.3358-9.43896 36.3358-7.10938 37.9354-7.10938 37.9354-5.91602 36.3358-5.91602 36.3358-1.99951C36.3358-1.31396 36.6299-0.971191 37.2181-0.971191 37.5355-0.971191 37.8127-0.998698 38.0496-1.05371L37.9862 0.114258C37.6265 0.169271 37.2012 0.196777 36.7103 0.196777 35.9867 0.196777 35.4661 0.0232747 35.1488-0.32373 34.8652-0.63265 34.7235-1.0918 34.7235-1.70117L34.7235-5.91602 33.6571-5.91602 33.6571-7.10938 34.7235-7.10938 34.7235-9.0708ZM42.1927-7.26807C43.2337-7.26807 44.0483-6.89355 44.6366-6.14453 45.1571-5.48014 45.4173-4.61475 45.4173-3.54834 45.4173-2.31689 45.083-1.3584 44.4144-0.672852 43.8389-0.0846354 43.0941 0.209473 42.18 0.209473 41.1305 0.209473 40.3138-0.165039 39.7298-0.914062 39.2135-1.57422 38.9554-2.43962 38.9554-3.51025 38.9554-4.73747 39.2918-5.69596 39.9647-6.38574 40.5444-6.97396 41.2871-7.26807 42.1927-7.26807ZM42.1927-6.0874C41.1517-6.0874 40.6312-5.23682 40.6312-3.53564 40.6312-1.82601 41.1475-0.971191 42.18-0.971191 43.221-0.971191 43.7415-1.82601 43.7415-3.53564 43.7415-5.23682 43.2253-6.0874 42.1927-6.0874ZM50.9655-7.26807 50.8576-5.73193C49.9478-5.73193 49.2728-5.12891 48.8327-3.92285L48.8327 0.0253906 47.2204 0.0253906 47.2204-7.10938 48.7565-7.10938 48.7565-5.35742C49.2178-6.63118 49.9541-7.26807 50.9655-7.26807Z" fill="#FFFFFF" transform="translate(10.5587 19)"/></g></g><text fill="#FFFFFF" font-family="Yu Gothic,Yu Gothic_MSFontService,sans-serif" font-weight="700" font-size="13" transform="translate(265.682 320)">Adaptor</text><rect x="445.5" y="525.5" width="125" height="47" stroke="#41719C" stroke-width="1.33333" stroke-miterlimit="8" fill="#5B9BD5"/><text fill="#FFFFFF" font-family="Yu Gothic,Yu Gothic_MSFontService,sans-serif" font-weight="400" font-size="13" transform="translate(480.682 544)">ドメイン<tspan font-size="13" x="-20" y="16">オペレーション</tspan></text><rect x="416.5" y="370.5" width="154" height="136" stroke="#41719C" stroke-width="1.33333" stroke-miterlimit="8" fill="#5B9BD5"/><text fill="#FFFFFF" font-family="Yu Gothic,Yu Gothic_MSFontService,sans-serif" font-weight="400" font-size="13" transform="translate(446.171 387)">概念情報クラス</text><rect x="437.5" y="402.5" width="125" height="26" stroke="#41719C" stroke-width="1.33333" stroke-miterlimit="8" fill="#FFFFFF"/><text font-family="Yu Gothic,Yu Gothic_MSFontService,sans-serif" font-weight="400" font-size="13" transform="translate(479.349 419)">特徴値</text><rect x="437.5" y="432.5" width="125" height="27" stroke="#41719C" stroke-width="1.33333" stroke-miterlimit="8" fill="#FFFFFF"/><text font-family="Yu Gothic,Yu Gothic_MSFontService,sans-serif" font-weight="400" font-size="13" transform="translate(452.682 449)">オペレーション</text><rect x="437.5" y="461.5" width="125" height="27" stroke="#41719C" stroke-width="1.33333" stroke-miterlimit="8" fill="#FFFFFF"/><text font-family="Yu Gothic,Yu Gothic_MSFontService,sans-serif" font-weight="400" font-size="13" transform="translate(472.682 478)">イベント</text><rect x="64" y="304" width="125" height="350" stroke="#5B9BD5" stroke-width="2" stroke-miterlimit="8" fill="#FFFFFF"/><g clip-path="url(#clip12)" filter="url(#fx3)" transform="translate(89 303)"><g clip-path="url(#clip13)"><path d="M9.43262-7.34424 9.88965-7.34424C10.6006-7.34424 11.2544-7.35693 11.8511-7.38232 11.868-7.38232 11.8786-7.38232 11.8828-7.38232 11.9717-7.38232 12.0225-7.3125 12.0352-7.17285 12.0479-7.00781 12.0542-6.83854 12.0542-6.66504 12.0542-6.4873 12.0479-6.31592 12.0352-6.15088 12.0225-6.01123 11.9653-5.94141 11.8638-5.94141 11.8553-5.94141 11.8384-5.94141 11.813-5.94141L9.94043-5.9541 9.40723-5.9541C9.36491-4.97656 9.257-4.16618 9.0835-3.52295 8.93115-2.97282 8.70475-2.44808 8.4043-1.94873 7.78646-0.92041 6.76449-0.114258 5.33838 0.469727 5.15641 0.545898 5.03369 0.583984 4.97021 0.583984 4.90251 0.583984 4.8221 0.535319 4.729 0.437988 4.38623 0.0867513 4.02653-0.171387 3.6499-0.336426 4.62744-0.641113 5.39551-0.988118 5.9541-1.37744 6.44499-1.72021 6.847-2.14128 7.16016-2.64062 7.42676-3.08073 7.6193-3.57373 7.73779-4.11963 7.83936-4.60205 7.90072-5.21354 7.92188-5.9541L5.1543-5.9541 5.1543-5.48438C5.1543-4.50684 5.16699-3.78955 5.19238-3.33252 5.20085-3.22249 5.12679-3.16113 4.97021-3.14844 4.80518-3.13574 4.62109-3.12939 4.41797-3.12939 4.21484-3.12939 4.02653-3.13574 3.85303-3.14844 3.69645-3.16113 3.61816-3.21191 3.61816-3.30078 3.61816-3.30924 3.61816-3.31982 3.61816-3.33252 3.66471-4.06885 3.68799-4.77767 3.68799-5.45898L3.68799-5.9541 3.29443-5.9541C2.54118-5.9541 1.82601-5.93294 1.14893-5.89062 1.06006-5.89062 1.00928-5.97314 0.996582-6.13818 0.971191-6.2736 0.941569-6.69254 0.907715-7.39502 1.51286-7.3527 2.30843-7.33154 3.29443-7.33154L3.68799-7.33154 3.68799-8.27734C3.68799-8.9502 3.63509-9.58708 3.5293-10.188 4.39258-10.1076 4.92155-10.0399 5.11621-9.98486 5.2474-9.95947 5.31299-9.89811 5.31299-9.80078 5.31299-9.75423 5.2876-9.66325 5.23682-9.52783 5.17334-9.37126 5.1416-8.95443 5.1416-8.27734L5.1416-7.33154 7.93457-7.33154 7.94727-8.60742C7.9515-8.66667 7.95361-8.75553 7.95361-8.87402 7.95361-9.48763 7.91341-9.99121 7.83301-10.3848 8.62858-10.3001 9.13639-10.2261 9.35645-10.1626 9.51302-10.1287 9.59131-10.061 9.59131-9.95947 9.59131-9.896 9.57227-9.81771 9.53418-9.72461 9.46647-9.53418 9.43262-9.15332 9.43262-8.58203ZM14.6981-5.70654C15.3752-5.60075 16.3104-5.54785 17.5037-5.54785L21.6932-5.54785C22.1037-5.54785 22.6326-5.5542 23.2801-5.56689 24.1053-5.57959 24.5729-5.58805 24.6829-5.59229 24.7041-5.59229 24.7253-5.59229 24.7464-5.59229 24.8607-5.59229 24.9178-5.53092 24.9178-5.4082 24.9305-5.20931 24.9368-5.00407 24.9368-4.79248 24.9368-4.58512 24.9305-4.382 24.9178-4.18311 24.9178-4.05192 24.8564-3.98633 24.7337-3.98633L24.6829-3.98633C23.3838-4.00325 22.4168-4.01172 21.7821-4.01172L17.1038-4.01172 15.1932-3.85303C15.0282-3.85303 14.9287-3.94401 14.8949-4.12598 14.8187-4.46875 14.7531-4.99561 14.6981-5.70654ZM31.0466-5.91602C32.2526-6.3138 33.3105-6.73275 34.2204-7.17285 34.8467-7.47754 35.3101-7.79069 35.6105-8.1123 35.966-7.81608 36.3257-7.42676 36.6896-6.94434 36.7573-6.8597 36.7912-6.78141 36.7912-6.70947 36.7912-6.59098 36.7171-6.51269 36.569-6.47461 36.3955-6.43229 36.0358-6.28841 35.4899-6.04297 34.2542-5.48438 32.7668-4.94694 31.0275-4.43066L31.0275-2.7041C31.0275-2.37826 31.0614-2.15186 31.1291-2.0249 31.1925-1.91064 31.3047-1.83024 31.4655-1.78369 31.8167-1.68636 32.3605-1.6377 33.0968-1.6377 34.2437-1.6377 35.4666-1.73714 36.7658-1.93604 36.7954-1.94027 36.8229-1.94238 36.8483-1.94238 36.9372-1.94238 36.988-1.87891 37.0007-1.75195 37.0514-1.26953 37.0768-0.895019 37.0768-0.628418 37.0768-0.484538 36.9858-0.40625 36.8039-0.393555 35.5428-0.236979 34.2563-0.158691 32.9445-0.158691 31.84-0.158691 31.0148-0.275065 30.4689-0.507812 29.8553-0.76595 29.5485-1.41553 29.5485-2.45654L29.5485-7.25537C29.5485-8.30062 29.5062-9.09408 29.4216-9.63574 30.1875-9.55111 30.7334-9.46436 31.0592-9.37549 31.1989-9.3374 31.2687-9.26758 31.2687-9.16602 31.2687-9.08984 31.2391-8.99886 31.1799-8.89307 31.091-8.71956 31.0465-8.33024 31.0466-7.7251ZM35.7946-9.19141 36.4801-9.67383C36.5055-9.69499 36.5309-9.70557 36.5563-9.70557 36.5902-9.70557 36.6304-9.68652 36.6769-9.64844 37.1213-9.30566 37.5317-8.84017 37.9084-8.25195 37.9338-8.2181 37.9465-8.18848 37.9465-8.16309 37.9465-8.12077 37.9211-8.08268 37.8703-8.04883L37.3244-7.64258C37.2863-7.61719 37.2524-7.60449 37.2228-7.60449 37.1805-7.60449 37.1403-7.632 37.1022-7.68701 36.7002-8.30062 36.2643-8.80208 35.7946-9.19141ZM36.988-10.0483 37.6354-10.5181C37.6693-10.5392 37.6968-10.5498 37.7179-10.5498 37.7476-10.5498 37.7856-10.5308 37.8322-10.4927 38.3315-10.116 38.7441-9.6696 39.07-9.15332 39.0954-9.111 39.1081-9.07503 39.1081-9.04541 39.1081-8.99886 39.0806-8.95654 39.0256-8.91846L38.5114-8.51221C38.4733-8.48682 38.4373-8.47412 38.4035-8.47412 38.3612-8.47412 38.3231-8.50163 38.2892-8.55664 37.9253-9.13639 37.4915-9.63363 36.988-10.0483ZM47.9346-4.75439C49.1449-3.85726 50.3446-2.8099 51.5337-1.6123 51.6014-1.5446 51.6353-1.48324 51.6353-1.42822 51.6353-1.37321 51.6056-1.30973 51.5464-1.23779 51.2713-0.903483 50.9814-0.607259 50.6768-0.349121 50.6217-0.29834 50.5688-0.272949 50.5181-0.272949 50.4673-0.272949 50.4059-0.306803 50.334-0.374512 49.3564-1.52132 48.2308-2.59619 46.957-3.59912 45.5986-2.18148 44.1429-1.03678 42.5898-0.165039 42.4333-0.0973307 42.3338-0.0634766 42.2915-0.0634766 42.2069-0.0634766 42.1328-0.101562 42.0693-0.177734 41.8281-0.47819 41.4642-0.761719 40.9775-1.02832 42.0228-1.55729 42.9199-2.10319 43.6689-2.66602 44.2783-3.12305 44.9067-3.68164 45.5542-4.3418 46.481-5.30241 47.2956-6.38997 47.998-7.60449L44.6465-7.5918C43.9779-7.5918 43.2923-7.56429 42.5898-7.50928 42.5052-7.50081 42.4481-7.57487 42.4185-7.73145 42.3423-8.05729 42.3042-8.50797 42.3042-9.0835 42.7697-9.04964 43.5018-9.03271 44.5005-9.03271L48.0742-9.03271C48.527-9.03271 48.8254-9.07292 48.9692-9.15332 49.0158-9.18717 49.0645-9.2041 49.1152-9.2041 49.1576-9.2041 49.2316-9.17025 49.3374-9.10254 49.6167-8.88249 49.8981-8.5778 50.1816-8.18848 50.224-8.11654 50.2451-8.06152 50.2451-8.02344 50.2451-7.93457 50.188-7.84782 50.0737-7.76318 49.896-7.60661 49.7373-7.41406 49.5977-7.18555 49.111-6.36035 48.5566-5.54997 47.9346-4.75439Z" transform="translate(11.3495 19)"/></g></g><text font-family="Yu Gothic,Yu Gothic_MSFontService,sans-serif" font-weight="700" font-size="13" transform="translate(99.4729 321)">サービス</text><g clip-path="url(#clip14)" filter="url(#fx4)" transform="translate(89 319)"><g clip-path="url(#clip15)"><path d="M5.78271-6.68408C7.41618-6.17204 8.79362-5.58171 9.91504-4.91309 10.0293-4.85384 10.0864-4.77979 10.0864-4.69092 10.0864-4.65706 10.078-4.61898 10.061-4.57666 9.90023-4.17041 9.71403-3.79378 9.50244-3.44678 9.44743-3.34945 9.3903-3.30078 9.33105-3.30078 9.28027-3.30078 9.23161-3.32194 9.18506-3.36426 7.96631-4.14714 6.82796-4.70361 5.77002-5.03369L5.77002-2.1582C5.77002-1.68424 5.78695-0.835775 5.8208 0.387207 5.8208 0.404134 5.8208 0.416829 5.8208 0.425293 5.8208 0.531087 5.74251 0.583984 5.58594 0.583984 5.39128 0.59668 5.19873 0.603027 5.0083 0.603027 4.81364 0.603027 4.62109 0.59668 4.43066 0.583984 4.26562 0.583984 4.18311 0.518392 4.18311 0.387207 4.21696-0.450684 4.23389-1.30339 4.23389-2.1709L4.23389-8.56934C4.23389-9.36068 4.19157-10.0018 4.10693-10.4927 4.86865-10.4419 5.41032-10.3721 5.73193-10.2832 5.89697-10.2493 5.97949-10.1753 5.97949-10.061 5.97949-9.98909 5.94352-9.88965 5.87158-9.7627 5.81234-9.64844 5.78271-9.24219 5.78271-8.54395ZM8.125-9.40088 8.81055-9.87695C8.84017-9.89811 8.86768-9.90869 8.89307-9.90869 8.92269-9.90869 8.96077-9.88965 9.00732-9.85156 9.45166-9.50879 9.86214-9.04541 10.2388-8.46143 10.2642-8.42757 10.2769-8.39583 10.2769-8.36621 10.2769-8.32812 10.2536-8.29004 10.207-8.25195L9.65479-7.85205C9.6167-7.82243 9.58284-7.80762 9.55322-7.80762 9.51514-7.80762 9.47705-7.83512 9.43896-7.89014 9.03271-8.50797 8.59473-9.01156 8.125-9.40088ZM9.31836-10.2578 9.97217-10.7275C10.0018-10.7487 10.0293-10.7593 10.0547-10.7593 10.0843-10.7593 10.1203-10.7402 10.1626-10.7021 10.6662-10.3213 11.0788-9.87484 11.4004-9.36279 11.4258-9.32047 11.4385-9.2845 11.4385-9.25488 11.4385-9.20833 11.4131-9.16602 11.3623-9.12793L10.8418-8.72168C10.8037-8.69629 10.7699-8.68359 10.7402-8.68359 10.6937-8.68359 10.6535-8.7111 10.6196-8.76611 10.2557-9.34587 9.82194-9.8431 9.31836-10.2578ZM20.2586-6.11914C20.7072-6.80469 21.124-7.57275 21.5091-8.42334 21.7546-9.00732 21.9196-9.54053 22.0042-10.0229 22.7744-9.74365 23.3203-9.4707 23.6419-9.2041 23.7266-9.14062 23.7689-9.06657 23.7689-8.98193 23.7689-8.87191 23.7202-8.77669 23.6229-8.69629 23.4875-8.5778 23.2928-8.28792 23.0389-7.82666 22.4465-6.68408 21.9534-5.82503 21.5599-5.24951 22.1523-4.78825 22.7892-4.20003 23.4705-3.48486 23.5213-3.42139 23.5467-3.36003 23.5467-3.30078 23.5467-3.2627 23.5256-3.20768 23.4832-3.13574 23.3097-2.90723 23.0452-2.59831 22.6898-2.20898 22.6432-2.14974 22.5903-2.12012 22.5311-2.12012 22.4761-2.12012 22.4168-2.1582 22.3534-2.23438 21.8159-2.8776 21.2489-3.45101 20.6522-3.95459 19.2684-2.21533 17.7852-0.861165 16.2025 0.10791 16.0924 0.175618 15.993 0.209473 15.9041 0.209473 15.811 0.209473 15.7285 0.17985 15.6566 0.120605 15.2038-0.256022 14.8145-0.495117 14.4886-0.59668 15.5804-1.23568 16.522-1.90641 17.3133-2.60889 18.0243-3.24365 18.7161-3.99479 19.389-4.8623 18.5892-5.45898 17.745-5.97526 16.8563-6.41113 17.3302-7.01628 17.6159-7.37174 17.7132-7.47754 17.7555-7.51986 17.7979-7.54102 17.8402-7.54102 17.8783-7.54102 17.9312-7.52409 17.9989-7.49023 18.7056-7.13477 19.4588-6.67773 20.2586-6.11914ZM34.652-6.73486 34.652-2.43115C34.652-1.66943 34.6647-0.768066 34.6901 0.272949 34.6901 0.294108 34.6901 0.306803 34.6901 0.311035 34.6901 0.433756 34.6245 0.495117 34.4933 0.495117 34.2817 0.507812 34.0659 0.51416 33.8459 0.51416 33.6258 0.51416 33.41 0.507812 33.1984 0.495117 33.0757 0.495117 33.0143 0.440104 33.0143 0.330078 33.0143 0.321615 33.0143 0.306803 33.0143 0.285645 33.0186 0.0825195 33.0291-0.397786 33.0461-1.15527 33.0588-1.65039 33.0651-2.05876 33.0651-2.38037L33.0651-5.4082C31.7575-4.30794 30.5662-3.4764 29.4914-2.91357 29.4321-2.87972 29.3665-2.86279 29.2946-2.86279 29.2015-2.86279 29.1105-2.90511 29.0216-2.98975 28.7762-3.23519 28.4038-3.49121 27.9045-3.75781 29.4406-4.54915 30.8053-5.43783 31.9987-6.42383 33.0566-7.29134 33.9792-8.19694 34.7663-9.14062 35.1471-9.58496 35.4222-10.0314 35.5915-10.48 36.277-10.0949 36.7573-9.7902 37.0324-9.56592 37.1001-9.51937 37.134-9.45589 37.134-9.37549 37.134-9.26123 37.0726-9.16602 36.9499-9.08984 36.7594-8.96289 36.5013-8.72379 36.1755-8.37256 35.7269-7.83512 35.2191-7.28923 34.652-6.73486ZM41.7393-8.09961C41.9551-8.36198 42.2576-8.70052 42.647-9.11523 42.702-9.18294 42.7633-9.2168 42.8311-9.2168 42.8691-9.2168 42.9263-9.19564 43.0024-9.15332 43.8107-8.72168 44.638-8.10596 45.4844-7.30615 45.5605-7.22998 45.5986-7.16862 45.5986-7.12207 45.5986-7.07552 45.5732-7.02051 45.5225-6.95703 45.2389-6.5804 44.9702-6.25456 44.7163-5.97949 44.6444-5.91178 44.5915-5.87793 44.5576-5.87793 44.5153-5.87793 44.4603-5.91178 44.3926-5.97949 43.6012-6.79622 42.7168-7.50293 41.7393-8.09961ZM42.0249-1.6123C42.7189-1.80273 43.305-2.01855 43.7832-2.25977 44.6211-2.69564 45.3172-3.09554 45.8716-3.45947 46.3582-3.77686 46.9084-4.18311 47.522-4.67822 48.3937-5.38493 49.0856-5.9943 49.5977-6.50635 50.0843-6.99723 50.5815-7.56641 51.0894-8.21387 51.1571-7.64258 51.2777-7.13688 51.4512-6.69678 51.4935-6.59521 51.5146-6.5127 51.5146-6.44922 51.5146-6.35189 51.4448-6.2207 51.3052-6.05566 50.5477-5.17122 49.5511-4.25293 48.3154-3.30078 47.2406-2.45866 45.9329-1.61019 44.3926-0.755371 43.9355-0.480306 43.6457-0.279297 43.5229-0.152344 43.4341-0.0677083 43.3558-0.0253906 43.2881-0.0253906 43.2204-0.0253906 43.1463-0.0719401 43.0659-0.165039 42.6639-0.617839 42.3169-1.10026 42.0249-1.6123Z" transform="translate(11.3495 19)"/></g></g><text font-family="Yu Gothic,Yu Gothic_MSFontService,sans-serif" font-weight="700" font-size="13" transform="translate(99.4729 337)">ドメイン</text><rect x="431.5" y="407.5" width="125" height="27" stroke="#41719C" stroke-width="1.33333" stroke-miterlimit="8" fill="#FFFFFF"/><text font-family="Yu Gothic,Yu Gothic_MSFontService,sans-serif" font-weight="400" font-size="13" transform="translate(473.023 425)">特徴値</text><rect x="431.5" y="438.5" width="125" height="26" stroke="#41719C" stroke-width="1.33333" stroke-miterlimit="8" fill="#FFFFFF"/><text font-family="Yu Gothic,Yu Gothic_MSFontService,sans-serif" font-weight="400" font-size="13" transform="translate(446.357 455)">オペレーション</text><rect x="431.5" y="467.5" width="125" height="26" stroke="#41719C" stroke-width="1.33333" stroke-miterlimit="8" fill="#FFFFFF"/><text font-family="Yu Gothic,Yu Gothic_MSFontService,sans-serif" font-weight="400" font-size="13" transform="translate(466.357 484)">イベント</text><rect x="437.5" y="536.5" width="125" height="46" stroke="#41719C" stroke-width="1.33333" stroke-miterlimit="8" fill="#5B9BD5"/><text fill="#FFFFFF" font-family="Yu Gothic,Yu Gothic_MSFontService,sans-serif" font-weight="400" font-size="13" transform="translate(472.682 555)">ドメイン<tspan font-size="13" x="-20" y="16">オペレーション</tspan></text><path d="M161.5 500.5 162.625 500.5 162.625 518.5 161.5 518.5ZM163.75 500.5 166 500.5 166 518.5 163.75 518.5ZM167.125 500.5 296.5 500.5 296.5 491.5 314.5 509.5 296.5 527.5 296.5 518.5 167.125 518.5Z" stroke="#2F528F" stroke-width="1.33333" stroke-miterlimit="8" fill="#4472C4" fill-rule="evenodd" fill-opacity="0.501961"/><path d="M0 8.75013 1.0937 8.75013 1.0937 26.2501 0 26.2501ZM2.1874 8.75013 4.37507 8.75013 4.37507 26.2501 2.1874 26.2501ZM5.46877 8.75013 222.5 8.75013 222.5 0 240 17.5 222.5 35 222.5 26.2501 5.46877 26.2501Z" stroke="#2F528F" stroke-width="1.33333" stroke-miterlimit="8" fill="#4472C4" fill-rule="evenodd" fill-opacity="0.501961" transform="matrix(-1 0 0 1 401.5 403.5)"/><path d="M0.0190166-0.33279 10.9763 0.293339 21.5759 2.17494 31.4863 5.06022 40.3313 8.76135 44.2934 10.8996 47.8809 13.1654 50.9676 15.6222 53.6803 18.1456 55.8357 20.7447 57.4275 23.419 58.4516 26.2352 58.7686 28.9615 59.0811 31.649 59.0624 31.5713 60.0624 34.2588 60.0382 34.2075 61.6007 36.895 61.5691 36.8497 63.6941 39.4122 63.6645 39.3809 66.352 41.8809 66.3267 41.8596 69.4517 44.2346 69.4302 44.2196 72.9302 46.4696 72.9083 46.4567 76.8458 48.5817 76.8154 48.5672 85.6904 52.2547 85.6557 52.2425 95.5307 55.1175 95.4958 55.1093 106.058 56.9843 106.018 56.9797 110.199 57.2084 110.163 57.8741 105.962 57.6442 95.3616 55.7626 85.4516 52.8774 76.544 49.1763 72.5805 47.0373 69.0587 44.7733 65.9101 42.3804 63.1947 39.8544 61.0382 37.254 59.4475 34.5179 58.4235 31.766 58.1064 29.0385 57.7939 26.351 57.8117 26.4264 56.8117 23.6764 56.8386 23.733 55.2761 21.108 55.3059 21.1503 53.1809 18.5878 53.2105 18.6191 50.523 16.1191 50.5424 16.1358 47.4799 13.6983 47.5095 13.7193 43.947 11.4693 43.9667 11.4808 40.0292 9.35584 40.0588 9.37 31.2463 5.6825 31.2818 5.69505 21.4068 2.82005 21.4417 2.8282 10.8792 0.953202 10.9185 0.95779-0.0190166 0.33279ZM109.068 53.4744 116.837 57.9054 108.631 61.4624Z" fill="#4472C4" transform="matrix(1 0 0 -1 314.5 509.405)"/><path d="M0.00951992-0.333197 10.957-0.0204119 21.5388 0.918798 31.4338 2.35921 40.2632 4.23782 44.2189 5.24242 47.8005 6.43631 50.8807 7.63066 53.5959 8.89356 55.7583 10.2292 57.3677 11.5811 58.434 12.9806 58.7625 14.4261 59.075 15.8011 59.0151 15.673 60.0151 16.9855 59.9644 16.9323 61.5269 18.2448 61.4877 18.2164 63.6127 19.5289 63.5781 19.5103 66.2656 20.7603 66.2434 20.7509 69.3684 21.9384 69.352 21.9327 72.852 23.0577 72.8368 23.0532 76.7743 24.1157 76.7542 24.1109 85.6292 25.9234 85.6105 25.9201 95.4855 27.3576 95.467 27.3555 106.029 28.293 106.008 28.2918 110.181 28.3907 110.165 29.0572 105.981 28.958 95.3987 28.0187 85.5051 26.5785 76.6107 24.762 72.6555 23.6948 69.1397 22.5647 65.9953 21.3698 63.2791 20.1064 61.1167 18.7708 59.5073 17.4189 58.441 16.0194 58.1125 14.5739 57.8 13.1989 57.8599 13.327 56.8599 12.0145 56.9106 12.0677 55.3481 10.7552 55.3873 10.7836 53.2623 9.4711 53.2969 9.48974 50.6094 8.23974 50.6295 8.24829 47.567 7.06079 47.5821 7.06623 44.0196 5.87873 44.0429 5.88558 40.1054 4.88558 40.1181 4.88854 31.3056 3.01354 31.327 3.01736 21.452 1.57986 21.4705 1.58203 10.908 0.644528 10.928 0.645697-0.00951992 0.333197ZM108.935 24.6935 116.837 28.882 108.745 32.6912Z" fill="#4472C4" transform="matrix(1 0 0 -1 314.5 509.382)"/><path d="M314.516 509.167 326.032 509.73 337.188 511.36 347.656 513.867 356.998 517.065 361.146 518.95 364.915 520.898 368.255 522.977 371.035 525.188 373.317 527.47 375.041 529.834 376.073 532.219 376.454 534.636 376.829 537.011 376.806 536.93 377.806 539.243 377.769 539.179 379.457 541.491 379.423 541.452 381.673 543.702 381.645 543.677 384.395 545.864 384.364 545.842 387.676 547.905 387.659 547.895 391.346 549.895 391.32 549.882 395.507 551.694 395.485 551.685 404.797 554.935 404.764 554.926 415.139 557.363 415.111 557.358 426.236 558.983 426.204 558.98 431.02 559.215 430.988 559.881 426.155 559.645 415 558.015 404.594 555.571 395.254 552.311 391.042 550.488 387.332 548.476 383.995 546.398 381.215 544.187 378.934 541.905 377.209 539.542 376.177 537.156 375.796 534.74 375.421 532.365 375.444 532.445 374.444 530.132 374.481 530.197 372.793 527.884 372.827 527.923 370.577 525.673 370.605 525.698 367.855 523.511 367.886 523.533 364.574 521.471 364.597 521.484 360.847 519.546 360.862 519.554 356.737 517.679 356.767 517.69 347.455 514.503 347.485 514.512 337.047 512.012 337.077 512.017 325.952 510.392 325.984 510.396 314.484 509.833ZM429.868 555.488 437.663 559.874 429.477 563.478Z" fill="#4472C4"/><text font-family="Yu Gothic,Yu Gothic_MSFontService,sans-serif" font-weight="400" font-size="13" transform="translate(76.112 420)">状態変更を<tspan font-size="13" x="0" y="16">伴わない参照</tspan><tspan font-size="13" x="0" y="90">状態変更を</tspan><tspan font-size="13" x="0" y="106">伴うアクセス</tspan></text><path d="M1-1.59408e-06 1 2-0.999997 2-1 1.59408e-06ZM1.00001 4 1.00001 6-0.99999 6-0.999994 4ZM1.00001 8 1.00002 10-0.999984 10-0.999987 8ZM1.00002 12 1.00002 14-0.999978 14-0.999981 12ZM1.00003 16 1.00003 18-0.999971 18-0.999974 16ZM1.00003 20 1.00004 22-0.999965 22-0.999968 20ZM1.00004 24 1.00004 26-0.999959 26-0.999962 24ZM1.00004 28 1.00005 30-0.999952 30-0.999955 28ZM1.00005 32 1.00005 34-0.999946 34-0.999949 32ZM1.00006 36 1.00006 38-0.999939 38-0.999943 36ZM1.00006 40 1.00007 42-0.999933 42-0.999936 40ZM1.00007 44 1.00007 46-0.999927 46-0.99993 44ZM1.00008 48 1.00008 50-0.99992 50-0.999923 48ZM1.00008 52 1.00009 54-0.999914 54-0.999917 52ZM1.00009 56 1.00009 57.8604-0.999908 57.8604-0.999911 56ZM9.22342e-05 57.8604 6.66675 52.527 0.000104987 65.8604-6.66658 52.527Z" fill="#4472C4" transform="matrix(1 0 0 -1 489 303.86)"/><path d="M314 204 316 204 316 206 314 206ZM318 204 320 204 320 206 318 206ZM322 204 324 204 324 206 322 206ZM326 204 328 204 328 206 326 206ZM330 204 332 204 332 206 330 206ZM334 204 336 204 336 206 334 206ZM338 204 340 204 340 206 338 206ZM342 204 344 204 344 206 342 206ZM346 204 348 204 348 206 346 206ZM350 204 352 204 352 206 350 206ZM354 204 356 204 356 206 354 206ZM358 204 360 204 360 206 358 206ZM362 204 364 204 364 206 362 206ZM366 204 368 204 368 206 366 206ZM370 204 372 204 372 206 370 206ZM374 204 376 204 376 206 374 206ZM378 204 380 204 380 206 378 206ZM382 204 384 204 384 206 382 206ZM386 204 386.372 204 386.372 206 386 206ZM386.372 205 381.039 198.333 394.372 205 381.039 211.667Z" fill="#4472C4"/><rect x="167" y="172" width="147" height="66" stroke="#4472C4" stroke-width="2" stroke-miterlimit="8" fill="#FFFFFF"/><text font-family="Yu Gothic,Yu Gothic_MSFontService,sans-serif" font-weight="400" font-size="13" transform="translate(187.306 201)">Adaptor <tspan font-size="13" x="52.3333" y="0">で必要な</tspan><tspan font-size="13" x="6.16667" y="16">概念情報モデル</tspan></text><path d="M125 304.349 125 302.349 127 302.349 127 304.349ZM125 300.349 125 298.349 127 298.349 127 300.349ZM125 296.349 125 294.349 127 294.349 127 296.349ZM125 292.349 125 290.349 127 290.349 127 292.349ZM125 288.349 125 286.349 127 286.349 127 288.349ZM125 284.349 125 282.349 127 282.349 127 284.349ZM125 280.349 125 278.349 127 278.349 127 280.349ZM125 276.349 125 274.349 127 274.349 127 276.349ZM125 272.349 125 270.349 127 270.349 127 272.349ZM125 268.349 125 266.349 127 266.349 127 268.349ZM125 264.349 125 262.349 127 262.349 127 264.349ZM125 260.349 125 258.349 127 258.349 127 260.349ZM125 256.349 125 254.349 127 254.349 127 256.349ZM125 252.349 125 250.349 127 250.349 127 252.349ZM125 248.349 125 246.349 127 246.349 127 248.349ZM125 244.349 125 242.349 127 242.349 127 244.349ZM125 240.349 125 238.349 127 238.349 127 240.349ZM125 236.349 125 234.349 127 234.349 127 236.349ZM125 232.349 125 230.349 127 230.349 127 232.349ZM125 228.349 125 226.349 127 226.349 127 228.349ZM125 224.349 125 222.349 127 222.349 127 224.349ZM125 220.349 125 218.349 127 218.349 127 220.349ZM125 216.349 125 214.349 127 214.349 127 216.349ZM125 212.349 125 210.349 127 210.349 127 212.349ZM125 208.349 125 206.349 127 206.349 127 208.349ZM126.651 204 128.651 204 128.651 206 126.651 206ZM130.651 204 132.651 204 132.651 206 130.651 206ZM134.651 204 136.651 204 136.651 206 134.651 206ZM138.651 204 140.651 204 140.651 206 138.651 206ZM142.651 204 144.651 204 144.651 206 142.651 206ZM146.651 204 148.651 204 148.651 206 146.651 206ZM150.651 204 152.651 204 152.651 206 150.651 206ZM154.651 204 156.651 204 156.651 206 154.651 206ZM158.465 205 153.132 198.333 166.465 205 153.132 211.667Z" fill="#4472C4"/><path d="M0-1 2-1 2 1 0 1ZM4-1 6-1 6 1 4 1ZM8-1 10-1 10 1 8 1ZM12-1 14-1 14 1 12 1ZM16-1 18-1 18 1 16 1ZM20-1 22-1 22 1 20 1ZM24-1 26-1 26 1 24 1ZM28-1 30-1 30 1 28 1ZM32-1 33.9302-1 33.9302 1.06976 31.9302 1.06976 31.9302 0 32.9302 1 32 1ZM33.9302 3.06976 33.9302 5.06976 31.9302 5.06976 31.9302 3.06976ZM33.9302 7.06976 33.9302 9.06976 31.9302 9.06976 31.9302 7.06976ZM33.9302 11.0698 33.9302 13.0698 31.9302 13.0698 31.9302 11.0698ZM33.9302 15.0698 33.9302 17.0698 31.9302 17.0698 31.9302 15.0698ZM33.9302 19.0698 33.9302 21.0698 31.9302 21.0698 31.9302 19.0698ZM33.9302 23.0698 33.9302 25.0698 31.9302 25.0698 31.9302 23.0698ZM33.9302 27.0698 33.9302 29.0698 31.9302 29.0698 31.9302 27.0698ZM33.9302 31.0698 33.9302 33.0698 31.9302 33.0698 31.9302 31.0698ZM33.9302 35.0698 33.9302 37.0698 31.9302 37.0698 31.9302 35.0698ZM33.9302 39.0698 33.9302 41.0698 31.9302 41.0698 31.9302 39.0698ZM33.9302 43.0698 33.9302 45.0698 31.9302 45.0698 31.9302 43.0698ZM33.9302 47.0698 33.9302 49.0698 31.9302 49.0698 31.9302 47.0698ZM33.9302 51.0698 33.9302 51.2093 32.9302 50.2093 34.7907 50.2093 34.7907 52.2093 31.9302 52.2093 31.9302 51.0698ZM36.7907 50.2093 38.7907 50.2093 38.7907 52.2093 36.7907 52.2093ZM40.7907 50.2093 42.7907 50.2093 42.7907 52.2093 40.7907 52.2093ZM44.7907 50.2093 46.7907 50.2093 46.7907 52.2093 44.7907 52.2093ZM48.7907 50.2093 50.7907 50.2093 50.7907 52.2093 48.7907 52.2093ZM52.7907 50.2093 54.7907 50.2093 54.7907 52.2093 52.7907 52.2093ZM56.7907 50.2093 57.8605 50.2093 57.8605 52.2093 56.7907 52.2093ZM57.8605 51.2093 52.5271 44.5427 65.8605 51.2093 52.5271 57.876Z" fill="#4472C4" transform="matrix(-1.83697e-16 -1 -1 1.83697e-16 291.209 303.86)"/><path d="M0-1 2-1 2 1 0 1ZM4-1 6-1 6 1 4 1ZM8-1 10-1 10 1 8 1ZM12-1 14-1 14 1 12 1ZM16-1 18-1 18 1 16 1ZM20-1 22-1 22 1 20 1ZM23 0 23 2 25 2 25 0ZM25 4 25 6 23 6 23 4ZM25 8 25 10 23 10 23 8ZM25 12 25 14 23 14 23 12ZM25 16 25 18 23 18 23 16ZM25 20 25 22 23 22 23 20ZM25 24 25 26 23 26 23 24ZM25 28 25 30 23 30 23 28ZM25 32 25 34 23 34 23 32ZM25 36 25 38 23 38 23 36ZM25 40 25 42 23 42 23 40ZM25 44 25 46 23 46 23 44ZM25 48 25 50 23 50 23 48ZM25 52 25 54 23 54 23 52ZM25 56 25 58 23 58 23 56ZM25 60 25 62 23 62 23 60ZM25 64 25 66 23 66 23 64ZM25 68 25 70 23 70 23 68ZM25 72 25 74 23 74 23 72ZM25 76 25 78 23 78 23 76ZM25 80 25 82 23 82 23 80ZM25 84 25 86 23 86 23 84ZM25 88 25 90 23 90 23 88ZM25 92 25 94 23 94 23 92ZM25 96 25 98 23 98 23 96ZM25 100 25 102 23 102 23 100ZM25 104 25 106 23 106 23 104ZM25 108 25 110 23 110 23 108ZM25 112 25 114 23 114 23 112ZM25 116 25 118 23 118 23 116ZM25 120 25 122 23 122 23 120ZM25 124 25 126 23 126 23 124ZM25 128 25 130 23 130 23 128ZM25 132 25 134 23 134 23 132ZM25 136 25 138 23 138 23 136ZM25 140 25 142 23 142 23 140ZM25 144 25 146 23 146 23 144ZM25 148 25 150 23 150 23 148ZM25 152 25 154 23 154 23 152ZM25 156 25 158 23 158 23 156ZM25 160 25 162 23 162 23 160ZM25 164 25 166 23 166 23 164ZM25 168 25 170 23 170 23 168ZM25 172 25 174 23 174 23 172ZM25 176 25 178 23 178 23 176ZM25 180 25 182 23 182 23 180ZM25 184 25 186 23 186 23 184ZM25 188 25 190 23 190 23 188ZM25 192 25 194 23 194 23 192ZM25 196 25 198 23 198 23 196ZM22.1394 199.139 20.1394 199.139 20.1394 197.139 22.1394 197.139ZM18.1394 199.139 16.1394 199.139 16.1394 197.139 18.1394 197.139ZM14.1394 199.139 12.1394 199.139 12.1394 197.139 14.1394 197.139ZM10.1394 199.139 9.33333 199.139 9.33333 197.139 10.1394 197.139ZM9.33333 198.139 14.6667 204.806 1.33333 198.139 14.6667 191.473Z" fill="#4472C4" transform="matrix(1.83697e-16 1 1 -1.83697e-16 292 652)"/></g></svg>