<svg width="607" height="894" xmlns="http://www.w3.org/2000/svg" xmlns:xlink="http://www.w3.org/1999/xlink" overflow="hidden"><defs><clipPath id="clip0"><rect x="34" y="30" width="607" height="894"/></clipPath></defs><g clip-path="url(#clip0)" transform="translate(-34 -30)"><rect x="35.5001" y="32.5001" width="605" height="890" stroke="#D9D9D9" stroke-width="1.33333" stroke-miterlimit="8" fill="none"/><rect x="399.5" y="93.5001" width="156" height="80" stroke="#000000" stroke-width="1.33333" stroke-miterlimit="8" fill="#FFFFFF"/><text font-family="Yu Gothic,Yu Gothic_MSFontService,sans-serif" font-weight="400" font-size="11" transform="translate(452.462 130)">Generator<tspan font-size="11" x="-43.58" y="13">File</tspan><tspan font-size="11" x="-22.4133" y="13">Pat</tspan><tspan font-size="11" x="-5.58002" y="13">h</tspan><tspan font-size="11" x="-309.116" y="99">*</tspan></text><path d="M476.741 623.5 476.741 638.681 390.5 638.681 390.5 653.862" stroke="#000000" stroke-width="0.666667" stroke-miterlimit="8" fill="none" fill-rule="evenodd"/><rect x="80.5001" y="92.5001" width="156" height="81" stroke="#000000" stroke-width="1.33333" stroke-miterlimit="8" fill="#FFFFFF"/><text font-family="Yu Gothic,Yu Gothic_MSFontService,sans-serif" font-weight="400" font-size="11" transform="translate(113.271 130)">Meta<tspan font-size="11" x="28.6667" y="0">Model</tspan><tspan font-size="11" x="62.5" y="0">Clas</tspan><tspan font-size="11" x="84.1667" y="0">s</tspan><tspan font-size="11" x="-23.4133" y="13">Key Letter</tspan></text><rect x="399.5" y="381.5" width="156" height="81" stroke="#000000" stroke-width="1.33333" stroke-miterlimit="8" fill="#FFFFFF"/><text font-family="Yu Gothic,Yu Gothic_MSFontService,sans-serif" font-weight="400" font-size="11" transform="translate(443.048 419)">Coloring Spec<tspan font-size="11" x="-34.1667" y="13">Name</tspan></text><rect x="80.5001" y="237.5" width="156" height="80" stroke="#000000" stroke-width="1.33333" stroke-miterlimit="8" fill="#FFFFFF"/><text font-family="Yu Gothic,Yu Gothic_MSFontService,sans-serif" font-weight="400" font-size="11" transform="translate(105.765 281)">Meta<tspan font-size="11" x="28.6667" y="0">Model</tspan><tspan font-size="11" x="62.5" y="0">Instance</tspan></text><path d="M158.5 173.5 158.5 237.516" stroke="#000000" stroke-width="0.666667" stroke-miterlimit="8" fill="none" fill-rule="evenodd"/><rect x="399.5" y="237.5" width="156" height="80" stroke="#000000" stroke-width="1.33333" stroke-miterlimit="8" fill="#FFFFFF"/><text font-family="Yu Gothic,Yu Gothic_MSFontService,sans-serif" font-weight="400" font-size="11" transform="translate(427.882 274)">Coloring for Domain<tspan font-size="11" x="-19" y="13">Domain Name</tspan></text><rect x="399.5" y="526.5" width="156" height="80" stroke="#000000" stroke-width="1.33333" stroke-miterlimit="8" fill="#FFFFFF"/><text font-family="Yu Gothic,Yu Gothic_MSFontService,sans-serif" font-weight="400" font-size="11" transform="translate(415.715 563)">Coloring Parameter Spec<tspan font-size="11" x="-6.83334" y="13">Name</tspan></text><path d="M399.675 395.404 318.088 395.404 318.088 133.5 236.5 133.5" stroke="#000000" stroke-width="0.666667" stroke-miterlimit="8" fill="none" fill-rule="evenodd"/><text font-family="Yu Gothic,Yu Gothic_MSFontService,sans-serif" font-weight="400" font-size="11" transform="translate(383.352 393)">*<tspan font-size="11" x="102.361" y="-21">*</tspan></text><path d="M477.5 317.5 477.5 381.516" stroke="#000000" stroke-width="0.666667" stroke-miterlimit="8" fill="none" fill-rule="evenodd"/><path d="M477.5 173.5 477.5 237.516" stroke="#000000" stroke-width="0.666667" stroke-miterlimit="8" fill="none" fill-rule="evenodd"/><path d="M477.5 462.5 477.5 526.516" stroke="#000000" stroke-width="0.666667" stroke-miterlimit="8" fill="none" fill-rule="evenodd"/><text font-family="Yu Gothic,Yu Gothic_MSFontService,sans-serif" font-weight="400" font-size="11" transform="translate(485.713 524)">1..*</text><rect x="332.5" y="653.5" width="116" height="80" stroke="#000000" stroke-width="1.33333" stroke-miterlimit="8" fill="#FFFFFF"/><text font-family="Yu Gothic,Yu Gothic_MSFontService,sans-serif" font-weight="400" font-size="11" transform="translate(349.271 684)">Coloring Identity <tspan font-size="11" x="1.08667" y="13">Parameter Spec</tspan></text><rect x="494.5" y="653.5" width="116" height="80" stroke="#000000" stroke-width="1.33333" stroke-miterlimit="8" fill="#FFFFFF"/><text font-family="Yu Gothic,Yu Gothic_MSFontService,sans-serif" font-weight="400" font-size="11" transform="translate(505.988 684)">Coloring Embellish <tspan font-size="11" x="6.5" y="13">Parameter Spec</tspan></text><path d="M468.5 623.5 476.5 609.5 484.5 623.5Z" stroke="#000000" stroke-width="1.33333" stroke-miterlimit="8" fill="#FFFFFF" fill-rule="evenodd"/><path d="M0 0 15.1807 0 15.1807 75.8889 30.3614 75.8889" stroke="#000000" stroke-width="0.666667" stroke-miterlimit="8" fill="none" fill-rule="evenodd" transform="matrix(1.83697e-16 1 1 -1.83697e-16 476.5 623.5)"/><rect x="81.5001" y="523.5" width="156" height="81" stroke="#000000" stroke-width="1.33333" stroke-miterlimit="8" fill="#FFFFFF"/><text font-family="Yu Gothic,Yu Gothic_MSFontService,sans-serif" font-weight="400" font-size="11" transform="translate(99.3588 561)">Coloring for Meta Model <tspan font-size="11" x="38.7467" y="13">Instance</tspan><tspan font-size="11" x="45.0804" y="-227">*</tspan><tspan font-size="11" x="283.993" y="-95">*</tspan></text><path d="M399.6 448.48 158.5 448.48 158.5 317.5" stroke="#000000" stroke-width="0.666667" stroke-miterlimit="8" fill="none" fill-rule="evenodd"/><path d="M0 0 30.4154 73.222" stroke="#000000" stroke-width="0.666667" stroke-miterlimit="8" stroke-dasharray="0.666667 0.666667" fill="none" fill-rule="evenodd" transform="matrix(-1 0 0 1 189.915 450.5)"/><path d="M194.741 750.5 194.741 765.681 108.5 765.681 108.5 780.862" stroke="#000000" stroke-width="0.666667" stroke-miterlimit="8" fill="none" fill-rule="evenodd"/><rect x="118.5" y="653.5" width="156" height="80" stroke="#000000" stroke-width="1.33333" stroke-miterlimit="8" fill="#FFFFFF"/><text font-family="Yu Gothic,Yu Gothic_MSFontService,sans-serif" font-weight="400" font-size="11" transform="translate(147.813 690)">Coloring Parameter<tspan font-size="11" x="-20.5" y="13">Value</tspan><tspan font-size="11" x="56.3307" y="-39">1..*</tspan></text><rect x="51.5001" y="780.5" width="115" height="81" stroke="#000000" stroke-width="1.33333" stroke-miterlimit="8" fill="#FFFFFF"/><text font-family="Yu Gothic,Yu Gothic_MSFontService,sans-serif" font-weight="400" font-size="11" transform="translate(62.289 811)">Coloring Embellish <tspan font-size="11" x="4.66667" y="13">Parameter Value</tspan></text><rect x="213.5" y="780.5" width="115" height="81" stroke="#000000" stroke-width="1.33333" stroke-miterlimit="8" fill="#FFFFFF"/><text font-family="Yu Gothic,Yu Gothic_MSFontService,sans-serif" font-weight="400" font-size="11" transform="translate(229.832 811)">Coloring Identity <tspan font-size="11" x="-0.746674" y="13">Parameter Value</tspan></text><path d="M187.5 750.5 195.5 736.5 203.5 750.5Z" stroke="#000000" stroke-width="1.33333" stroke-miterlimit="8" fill="#FFFFFF" fill-rule="evenodd"/><path d="M0 0 15.1807 0 15.1807 75.8889 30.3614 75.8889" stroke="#000000" stroke-width="0.666667" stroke-miterlimit="8" fill="none" fill-rule="evenodd" transform="matrix(1.83697e-16 1 1 -1.83697e-16 195.5 750.5)"/><path d="M390.159 733.5 390.159 820.537 328.5 820.537" stroke="#000000" stroke-width="0.666667" stroke-miterlimit="8" fill="none" fill-rule="evenodd"/><path d="M552.199 733.5 552.199 884.711 108.5 884.711 108.5 860.711" stroke="#000000" stroke-width="0.666667" stroke-miterlimit="8" fill="none" fill-rule="evenodd"/><text font-family="Yu Gothic,Yu Gothic_MSFontService,sans-serif" font-weight="400" font-size="11" transform="translate(91.4065 883)">*<tspan font-size="11" x="248.346" y="-42">*</tspan></text><path d="M0 0 24.6571 0 24.6571 36.3617 49.3141 36.3617" stroke="#000000" stroke-width="0.666667" stroke-miterlimit="8" fill="none" fill-rule="evenodd" transform="matrix(-1.83697e-16 -1 -1 1.83697e-16 195.862 653.814)"/><text font-family="Yu Gothic,Yu Gothic_MSFontService,sans-serif" font-weight="400" font-size="11" transform="translate(174.033 336)">target<tspan font-size="11" x="190.155" y="103">spec</tspan><tspan font-size="11" x="69.8351" y="-213">target</tspan></text></g></svg>