<svg width="607" height="499" xmlns="http://www.w3.org/2000/svg" xmlns:xlink="http://www.w3.org/1999/xlink" overflow="hidden"><defs><clipPath id="clip0"><rect x="34" y="30" width="607" height="499"/></clipPath></defs><g clip-path="url(#clip0)" transform="translate(-34 -30)"><rect x="35.5001" y="32.5001" width="605" height="496" stroke="#D9D9D9" stroke-width="1.33333" stroke-miterlimit="8" fill="none"/><rect x="203.5" y="72.5001" width="96" height="58" stroke="#000000" stroke-width="1.33333" stroke-miterlimit="8" stroke-dasharray="5.33333 4" fill="#FFFFFF"/><text font-family="Yu Gothic,Yu Gothic_MSFontService,sans-serif" font-weight="400" font-size="11" transform="translate(237.345 92)">Class<tspan font-size="11" x="-24.7467" y="13">Name</tspan><tspan font-size="11" x="-24.7467" y="25">KeyLetter</tspan></text><rect x="203.5" y="178.5" width="96" height="57" stroke="#000000" stroke-width="1.33333" stroke-miterlimit="8" stroke-dasharray="5.33333 4" fill="#FFFFFF"/><text font-family="Yu Gothic,Yu Gothic_MSFontService,sans-serif" font-weight="400" font-size="11" transform="translate(229.932 191)">Property<tspan font-size="11" x="-17.3333" y="13">Name</tspan><tspan font-size="11" x="-17.3333" y="25">IsIdentity</tspan><tspan font-size="11" x="-17.3333" y="38">IsWritabl</tspan><tspan font-size="11" x="26.8333" y="38">e</tspan></text><path d="M251.5 130.5 251.5 177.909" stroke="#000000" stroke-width="0.666667" stroke-miterlimit="8" fill="none" fill-rule="evenodd"/><text font-family="Yu Gothic,Yu Gothic_MSFontService,sans-serif" font-weight="400" font-size="11" transform="translate(263.944 165)">1..*</text><rect x="380.5" y="72.5001" width="96" height="58" stroke="#000000" stroke-width="1.33333" stroke-miterlimit="8" stroke-dasharray="5.33333 4" fill="#FFFFFF"/><text font-family="Yu Gothic,Yu Gothic_MSFontService,sans-serif" font-weight="400" font-size="11" transform="translate(397.679 92)">Relationship<tspan font-size="11" x="-7.57999" y="13">RelID</tspan><tspan font-size="11" x="-7.57999" y="25">Phrase</tspan></text><path d="M298.5 83.5001 323.499 83.5001 323.499 120.685 299.499 120.685" stroke="#000000" stroke-width="0.666667" stroke-miterlimit="8" fill="none" fill-rule="evenodd"/><path d="M325.5 101.5 381.156 101.5" stroke="#000000" stroke-width="0.666667" stroke-miterlimit="8" stroke-dasharray="2 0.666667" fill="none" fill-rule="evenodd"/><text font-family="Yu Gothic,Yu Gothic_MSFontService,sans-serif" font-weight="400" font-size="11" transform="translate(309.95 79)">*<tspan font-size="11" x="-1.93387" y="55">*</tspan></text><rect x="203.5" y="267.5" width="96" height="58" stroke="#000000" stroke-width="1.33333" stroke-miterlimit="8" fill="#FFFFFF"/><text font-family="Yu Gothic,Yu Gothic_MSFontService,sans-serif" font-weight="400" font-size="11" transform="translate(229.832 300)">Instance</text><path d="M0 0 24 0 24 194.989 1.33333 194.989" stroke="#000000" stroke-width="0.666667" stroke-miterlimit="8" fill="none" fill-rule="evenodd" transform="matrix(-1 1.22465e-16 1.22465e-16 1 204.833 101.5)"/><text font-family="Yu Gothic,Yu Gothic_MSFontService,sans-serif" font-weight="400" font-size="11" transform="translate(187.486 311)">*</text><path d="M299.5 296.5 381.001 296.5" stroke="#000000" stroke-width="0.666667" stroke-miterlimit="8" fill="none" fill-rule="evenodd"/><text font-family="Yu Gothic,Yu Gothic_MSFontService,sans-serif" font-weight="400" font-size="11" transform="translate(357.812 311)">1..*</text><rect x="380.5" y="267.5" width="96" height="58" stroke="#000000" stroke-width="1.33333" stroke-miterlimit="8" fill="#FFFFFF"/><text font-family="Yu Gothic,Yu Gothic_MSFontService,sans-serif" font-weight="400" font-size="11" transform="translate(391.933 293)">Property Value<tspan font-size="11" x="-1.83334" y="13">Valu</tspan>e</text><path d="M0 0 60.9128 0 60.9128 129.501" stroke="#000000" stroke-width="0.666667" stroke-miterlimit="8" fill="none" fill-rule="evenodd" transform="matrix(-1.83697e-16 -1 -1 1.83697e-16 429.001 267.413)"/><text font-family="Yu Gothic,Yu Gothic_MSFontService,sans-serif" font-weight="400" font-size="11" transform="translate(439.097 265)">*</text><path d="M286.35 325.5 286.35 376.236 219.5 376.236 219.5 327.236" stroke="#000000" stroke-width="0.666667" stroke-miterlimit="8" fill="none" fill-rule="evenodd"/><text font-family="Yu Gothic,Yu Gothic_MSFontService,sans-serif" font-weight="400" font-size="11" transform="translate(205.897 343)">*<tspan font-size="11" x="89.4015" y="1">*</tspan></text><rect x="204.5" y="434.5" width="96" height="58" stroke="#000000" stroke-width="1.33333" stroke-miterlimit="8" fill="#FFFFFF"/><text font-family="Yu Gothic,Yu Gothic_MSFontService,sans-serif" font-weight="400" font-size="11" transform="translate(241.165 467)">Link</text><path d="M252.054 434.594 250.5 377.5" stroke="#000000" stroke-width="0.666667" stroke-miterlimit="8" stroke-dasharray="0.666667 0.666667" fill="none" fill-rule="evenodd"/><path d="M0 0-24 0-24 362.073 176.834 362.073" stroke="#000000" stroke-width="0.666667" stroke-miterlimit="8" fill="none" fill-rule="evenodd" transform="matrix(-1 0 0 1 477.334 101.5)"/><text font-family="Yu Gothic,Yu Gothic_MSFontService,sans-serif" font-weight="400" font-size="11" transform="translate(305.846 480)">*</text></g></svg>