<svg width="607" height="499" xmlns="http://www.w3.org/2000/svg" xmlns:xlink="http://www.w3.org/1999/xlink" overflow="hidden"><defs><clipPath id="clip0"><rect x="34" y="30" width="607" height="499"/></clipPath></defs><g clip-path="url(#clip0)" transform="translate(-34 -30)"><rect x="35.5001" y="32.5001" width="605" height="496" stroke="#D9D9D9" stroke-width="1.33333" stroke-miterlimit="8" fill="none"/><rect x="123.5" y="97.5001" width="96" height="58" stroke="#000000" stroke-width="1.33333" stroke-miterlimit="8" stroke-dasharray="5.33333 4" fill="#FFFFFF"/><text font-family="Yu Gothic,Yu Gothic_MSFontService,sans-serif" font-weight="400" font-size="11" transform="translate(157.291 117)">Class<tspan font-size="11" x="-24.7467" y="13">Name</tspan><tspan font-size="11" x="-24.7467" y="25">KeyLetter</tspan></text><rect x="123.5" y="233.5" width="96" height="58" stroke="#000000" stroke-width="1.33333" stroke-miterlimit="8" stroke-dasharray="5.33333 4" fill="#FFFFFF"/><text font-family="Yu Gothic,Yu Gothic_MSFontService,sans-serif" font-weight="400" font-size="11" transform="translate(149.832 266)">Instance</text><path d="M171.5 155.5 171.554 234.152" stroke="#000000" stroke-width="0.666667" stroke-miterlimit="8" fill="none" fill-rule="evenodd"/><text font-family="Yu Gothic,Yu Gothic_MSFontService,sans-serif" font-weight="400" font-size="11" transform="translate(150.333 229)">*</text><path d="M219.5 262.5 301.001 262.5" stroke="#000000" stroke-width="0.666667" stroke-miterlimit="8" fill="none" fill-rule="evenodd"/><text font-family="Yu Gothic,Yu Gothic_MSFontService,sans-serif" font-weight="400" font-size="11" transform="translate(277.812 277)">1..*</text><rect x="300.5" y="233.5" width="96" height="58" stroke="#000000" stroke-width="1.33333" stroke-miterlimit="8" stroke-dasharray="5.33333 4" fill="#FFFFFF"/><text font-family="Yu Gothic,Yu Gothic_MSFontService,sans-serif" font-weight="400" font-size="11" transform="translate(311.933 259)">Property Value<tspan font-size="11" x="-1.83334" y="13">Valu</tspan>e</text><path d="M206.35 291.5 206.35 342.236 139.5 342.236 139.5 293.236" stroke="#000000" stroke-width="0.666667" stroke-miterlimit="8" fill="none" fill-rule="evenodd"/><text font-family="Yu Gothic,Yu Gothic_MSFontService,sans-serif" font-weight="400" font-size="11" transform="translate(125.897 309)">*<tspan font-size="11" x="89.4015" y="1">*</tspan></text><rect x="123.5" y="402.5" width="96" height="58" stroke="#000000" stroke-width="1.33333" stroke-miterlimit="8" stroke-dasharray="5.33333 4" fill="#FFFFFF"/><text font-family="Yu Gothic,Yu Gothic_MSFontService,sans-serif" font-weight="400" font-size="11" transform="translate(160.498 434)">Link</text><path d="M171.054 402.594 169.5 345.5" stroke="#000000" stroke-width="0.666667" stroke-miterlimit="8" stroke-dasharray="0.666667 0.666667" fill="none" fill-rule="evenodd"/><text font-family="Yu Gothic,Yu Gothic_MSFontService,sans-serif" font-weight="400" font-size="11" transform="translate(406.099 456)">0..1</text><rect x="432.5" y="296.5" width="96" height="58" stroke="#000000" stroke-width="1.33333" stroke-miterlimit="8" fill="#FFFFFF"/><text font-family="Yu Gothic,Yu Gothic_MSFontService,sans-serif" font-weight="400" font-size="11" transform="translate(459.413 323)">Updated<tspan font-size="11" x="-15.4133" y="13">Property Value</tspan></text><rect x="432.5" y="402.5" width="96" height="58" stroke="#000000" stroke-width="1.33333" stroke-miterlimit="8" fill="#FFFFFF"/><text font-family="Yu Gothic,Yu Gothic_MSFontService,sans-serif" font-weight="400" font-size="11" transform="translate(447.416 434)">Updated<tspan font-size="11" x="45.1667" y="0">Link</tspan></text><rect x="432.5" y="147.5" width="96" height="58" stroke="#000000" stroke-width="1.33333" stroke-miterlimit="8" fill="#FFFFFF"/><text font-family="Yu Gothic,Yu Gothic_MSFontService,sans-serif" font-weight="400" font-size="11" transform="translate(459.413 174)">Updated<tspan font-size="11" x="-0.0799866" y="13">Instance</tspan></text><path d="M0 0 227.752 0 227.752 57.8736" stroke="#000000" stroke-width="0.666667" stroke-miterlimit="8" fill="none" fill-rule="evenodd" transform="matrix(-1 1.22465e-16 1.22465e-16 1 433.252 176.5)"/><path d="M432.5 325.738 348.5 325.738 348.5 291.5" stroke="#000000" stroke-width="0.666667" stroke-miterlimit="8" fill="none" fill-rule="evenodd"/><text font-family="Yu Gothic,Yu Gothic_MSFontService,sans-serif" font-weight="400" font-size="11" transform="translate(406.099 343)">0..1<tspan font-size="11" x="2.11255" y="-173">0..1</tspan></text><path d="M0 0 0.000104987 91.243" stroke="#000000" stroke-width="0.666667" stroke-miterlimit="8" fill="none" fill-rule="evenodd" transform="matrix(1 0 0 -1 480.5 296.743)"/><text font-family="Yu Gothic,Yu Gothic_MSFontService,sans-serif" font-weight="400" font-size="11" transform="translate(495.99 285)">1..*</text><path d="M0 0 213.501 0.000104987" stroke="#000000" stroke-width="0.666667" stroke-miterlimit="8" fill="none" fill-rule="evenodd" transform="matrix(-1 0 0 1 433.001 431.5)"/></g></svg>