<svg width="607" height="673" xmlns="http://www.w3.org/2000/svg" xmlns:xlink="http://www.w3.org/1999/xlink" overflow="hidden"><defs><clipPath id="clip0"><rect x="34" y="30" width="607" height="673"/></clipPath></defs><g clip-path="url(#clip0)" transform="translate(-34 -30)"><rect x="35.5001" y="32.5001" width="605" height="670" stroke="#D9D9D9" stroke-width="1.33333" stroke-miterlimit="8" fill="none"/><rect x="127.5" y="172.5" width="96" height="58" stroke="#000000" stroke-width="1.33333" stroke-miterlimit="8" fill="#FFFFFF"/><text font-family="Yu Gothic,Yu Gothic_MSFontService,sans-serif" font-weight="400" font-size="11" transform="translate(155.845 198)">Domain<tspan font-size="11" x="-19.2467" y="13">Nam</tspan><tspan font-size="11" x="3.92" y="13">e</tspan></text><path d="M223.5 201.5 305.001 201.5" stroke="#000000" stroke-width="0.666667" stroke-miterlimit="8" fill="none" fill-rule="evenodd"/><text font-family="Yu Gothic,Yu Gothic_MSFontService,sans-serif" font-weight="400" font-size="11" transform="translate(406.843 82)">*</text><rect x="304.5" y="172.5" width="96" height="58" stroke="#000000" stroke-width="1.33333" stroke-miterlimit="8" fill="#FFFFFF"/><text font-family="Yu Gothic,Yu Gothic_MSFontService,sans-serif" font-weight="400" font-size="11" transform="translate(333.346 192)">Domain<tspan font-size="11" x="-5.24667" y="13">Operation</tspan><tspan font-size="11" x="-19.2467" y="25">Nam</tspan><tspan font-size="11" x="3.91998" y="25">e</tspan></text><rect x="127.5" y="277.5" width="96" height="58" stroke="#000000" stroke-width="1.33333" stroke-miterlimit="8" fill="#FFFFFF"/><text font-family="Yu Gothic,Yu Gothic_MSFontService,sans-serif" font-weight="400" font-size="11" transform="translate(161.345 297)">Class<tspan font-size="11" x="-24.7467" y="13">Name</tspan><tspan font-size="11" x="-24.7467" y="25">KeyLetter</tspan></text><rect x="128.5" y="501.5" width="96" height="58" stroke="#000000" stroke-width="1.33333" stroke-miterlimit="8" fill="#FFFFFF"/><text font-family="Yu Gothic,Yu Gothic_MSFontService,sans-serif" font-weight="400" font-size="11" transform="translate(155.283 515)">Property<tspan font-size="11" x="-17.3333" y="13">Name</tspan><tspan font-size="11" x="-17.3333" y="25">IsIdentity</tspan><tspan font-size="11" x="-17.3333" y="38">IsWritabl</tspan>e</text><rect x="127.5" y="382.5" width="96" height="58" stroke="#000000" stroke-width="1.33333" stroke-miterlimit="8" fill="#FFFFFF"/><text font-family="Yu Gothic,Yu Gothic_MSFontService,sans-serif" font-weight="400" font-size="11" transform="translate(161.345 402)">Class <tspan font-size="11" x="-10.7467" y="13">Operation</tspan><tspan font-size="11" x="-24.7467" y="25">Nam</tspan><tspan font-size="11" x="-1.58" y="25">e</tspan></text><rect x="128.5" y="610.5" width="96" height="57" stroke="#000000" stroke-width="1.33333" stroke-miterlimit="8" fill="#FFFFFF"/><text font-family="Yu Gothic,Yu Gothic_MSFontService,sans-serif" font-weight="400" font-size="11" transform="translate(161.586 636)">Event<tspan font-size="11" x="-24.4133" y="13">Nam</tspan><tspan font-size="11" x="-1.24667" y="13">e</tspan></text><path d="M175.5 230.5 175.5 277.83" stroke="#000000" stroke-width="0.666667" stroke-miterlimit="8" fill="none" fill-rule="evenodd"/><path d="M175.5 335.5 175.5 382.83" stroke="#000000" stroke-width="0.666667" stroke-miterlimit="8" fill="none" fill-rule="evenodd"/><path d="M127.5 288.5 68.5001 288.5 68.5001 639.217 128.074 639.217" stroke="#000000" stroke-width="0.666667" stroke-miterlimit="8" fill="none" fill-rule="evenodd"/><path d="M128.5 325.5 104.5 325.5 104.5 530.79 128.853 530.79" stroke="#000000" stroke-width="0.666667" stroke-miterlimit="8" fill="none" fill-rule="evenodd"/><rect x="304.5" y="382.5" width="96" height="58" stroke="#000000" stroke-width="1.33333" stroke-miterlimit="8" fill="#FFFFFF"/><text font-family="Yu Gothic,Yu Gothic_MSFontService,sans-serif" font-weight="400" font-size="11" transform="translate(338.846 396)">Class <tspan font-size="11" x="-10.7467" y="13">Operation</tspan><tspan font-size="11" x="-12.2467" y="25">Parameter</tspan><tspan font-size="11" x="-24.7467" y="38">Nam</tspan><tspan font-size="11" x="-1.58002" y="38">e</tspan></text><rect x="304.5" y="54.5001" width="96" height="58" stroke="#000000" stroke-width="1.33333" stroke-miterlimit="8" fill="#FFFFFF"/><text font-family="Yu Gothic,Yu Gothic_MSFontService,sans-serif" font-weight="400" font-size="11" transform="translate(333.346 68)">Domain<tspan font-size="11" x="-5.24667" y="13">Operation </tspan><tspan font-size="11" x="-6.74667" y="25">Parameter</tspan><tspan font-size="11" x="-19.2467" y="38">Nam</tspan><tspan font-size="11" x="3.91998" y="38">e</tspan></text><rect x="305.5" y="610.5" width="96" height="57" stroke="#000000" stroke-width="1.33333" stroke-miterlimit="8" fill="#FFFFFF"/><text font-family="Yu Gothic,Yu Gothic_MSFontService,sans-serif" font-weight="400" font-size="11" transform="translate(339.087 623)">Event <tspan font-size="11" x="-20.08" y="13">Supplemental </tspan><tspan font-size="11" x="2" y="25">Data</tspan><tspan font-size="11" x="-24.4133" y="38">Nam</tspan><tspan font-size="11" x="-1.24667" y="38">e</tspan></text><path d="M352.5 112.5 352.5 172.607" stroke="#000000" stroke-width="0.666667" stroke-miterlimit="8" fill="none" fill-rule="evenodd"/><rect x="515.5" y="382.5" width="96" height="58" stroke="#000000" stroke-width="1.33333" stroke-miterlimit="8" fill="#FFFFFF"/><text font-family="Yu Gothic,Yu Gothic_MSFontService,sans-serif" font-weight="400" font-size="11" transform="translate(537.711 415)">Data Type</text><path d="M223.5 411.5 305.001 411.5" stroke="#000000" stroke-width="0.666667" stroke-miterlimit="8" fill="none" fill-rule="evenodd"/><path d="M0 0 81.5009 0.000104987" stroke="#000000" stroke-width="0.666667" stroke-miterlimit="8" fill="none" fill-rule="evenodd" transform="matrix(1 0 0 -1 224.5 639.5)"/><path d="M0 0 338.862 0 338.862 90.0831" stroke="#000000" stroke-width="0.666667" stroke-miterlimit="8" fill="none" fill-rule="evenodd" transform="matrix(1 0 0 -1 224.5 530.583)"/><path d="M0 0 194.85 0 194.85 198.326" stroke="#000000" stroke-width="0.666667" stroke-miterlimit="8" fill="none" fill-rule="evenodd" transform="matrix(1 0 0 -1 401.5 638.826)"/><path d="M175.5 440.5 175.5 464.5 531.214 464.5 531.214 440.5" stroke="#000000" stroke-width="0.666667" stroke-miterlimit="8" fill="none" fill-rule="evenodd"/><path d="M400.5 411.5 457.856 411.5 457.856 429.895 515.212 429.895" stroke="#000000" stroke-width="0.666667" stroke-miterlimit="8" fill="none" fill-rule="evenodd"/><path d="M400.5 201.5 530.713 201.5 530.713 383.065" stroke="#000000" stroke-width="0.666667" stroke-miterlimit="8" fill="none" fill-rule="evenodd"/><path d="M400.5 83.5001 595.712 83.5001 595.712 382.95" stroke="#000000" stroke-width="0.666667" stroke-miterlimit="8" fill="none" fill-rule="evenodd"/><text font-family="Yu Gothic,Yu Gothic_MSFontService,sans-serif" font-weight="400" font-size="11" transform="translate(406.099 199)">*<tspan font-size="11" x="-113.208" y="0">*</tspan><tspan font-size="11" x="-1.724" y="207">*</tspan><tspan font-size="11" x="-247.8" y="256">*</tspan><tspan font-size="11" x="-221.937" y="183">*</tspan><tspan font-size="11" x="-223.364" y="73">*</tspan><tspan font-size="11" x="-292.03" y="455">*</tspan><tspan font-size="11" x="-291.252" y="349">1..*</tspan><tspan font-size="11" x="0" y="453">*</tspan><tspan font-size="11" x="-109.847" y="455">*</tspan><tspan font-size="11" x="-110.777" y="230">*</tspan><tspan font-size="11" x="-172.15" y="349">*</tspan></text><rect x="304.5" y="277.5" width="96" height="58" stroke="#000000" stroke-width="1.33333" stroke-miterlimit="8" fill="#FFFFFF"/><text font-family="Yu Gothic,Yu Gothic_MSFontService,sans-serif" font-weight="400" font-size="11" transform="translate(321.679 297)">Relationship<tspan font-size="11" x="-7.57999" y="13">RelID</tspan><tspan font-size="11" x="-7.57999" y="25">Phrase</tspan></text><path d="M222.5 288.5 247.499 288.5 247.499 325.685 223.499 325.685" stroke="#000000" stroke-width="0.666667" stroke-miterlimit="8" fill="none" fill-rule="evenodd"/><path d="M249.5 306.5 305.156 306.5" stroke="#000000" stroke-width="0.666667" stroke-miterlimit="8" stroke-dasharray="2 0.666667" fill="none" fill-rule="evenodd"/><text font-family="Yu Gothic,Yu Gothic_MSFontService,sans-serif" font-weight="400" font-size="11" transform="translate(233.95 284)">*<tspan font-size="11" x="-1.93385" y="55">*</tspan><tspan font-size="11" x="235.568" y="171">Return typ</tspan>e<tspan font-size="11" x="233.506" y="87">Return typ</tspan>e<tspan font-size="11" x="127.713" y="-157">*</tspan><tspan font-size="11" x="307.424" y="92">0..</tspan><tspan font-size="11" x="319.091" y="92">1</tspan><tspan font-size="11" x="300.226" y="173">0..</tspan><tspan font-size="11" x="311.893" y="173">1</tspan></text></g></svg>