<svg width="607" height="829" xmlns="http://www.w3.org/2000/svg" xmlns:xlink="http://www.w3.org/1999/xlink" overflow="hidden"><defs><clipPath id="clip0"><rect x="34" y="30" width="607" height="829"/></clipPath></defs><g clip-path="url(#clip0)" transform="translate(-34 -30)"><rect x="35.5001" y="32.5001" width="605" height="826" stroke="#D9D9D9" stroke-width="1.33333" stroke-miterlimit="8" fill="none"/><rect x="210.5" y="207.5" width="96" height="58" stroke="#000000" stroke-width="1.33333" stroke-miterlimit="8" stroke-dasharray="5.33333 4" fill="#FFFFFF"/><text font-family="Yu Gothic,Yu Gothic_MSFontService,sans-serif" font-weight="400" font-size="11" transform="translate(239.346 227)">Domain<tspan font-size="11" x="-5.24667" y="13">Operation</tspan><tspan font-size="11" x="-19.2467" y="25">Nam</tspan><tspan font-size="11" x="3.92" y="25">e</tspan></text><rect x="210.5" y="89.5001" width="96" height="58" stroke="#000000" stroke-width="1.33333" stroke-miterlimit="8" stroke-dasharray="5.33333 4" fill="#FFFFFF"/><text font-family="Yu Gothic,Yu Gothic_MSFontService,sans-serif" font-weight="400" font-size="11" transform="translate(239.346 103)">Domain<tspan font-size="11" x="-5.24667" y="13">Operation </tspan><tspan font-size="11" x="-6.74667" y="25">Parameter</tspan><tspan font-size="11" x="-19.2467" y="38">Nam</tspan><tspan font-size="11" x="3.92" y="38">e</tspan></text><path d="M258.5 147.5 258.5 207.607" stroke="#000000" stroke-width="0.666667" stroke-miterlimit="8" fill="none" fill-rule="evenodd"/><text font-family="Yu Gothic,Yu Gothic_MSFontService,sans-serif" font-weight="400" font-size="11" transform="translate(267.663 162)">*</text><rect x="380.5" y="207.5" width="96" height="58" stroke="#000000" stroke-width="1.33333" stroke-miterlimit="8" fill="#FFFFFF"/><text font-family="Yu Gothic,Yu Gothic_MSFontService,sans-serif" font-weight="400" font-size="11" transform="translate(408.639 227)">Domain<tspan font-size="11" x="-5.24664" y="13">Operation </tspan><tspan font-size="11" x="-6.33331" y="25">Invocation</tspan></text><rect x="380.5" y="89.5001" width="96" height="58" stroke="#000000" stroke-width="1.33333" stroke-miterlimit="8" fill="#FFFFFF"/><text font-family="Yu Gothic,Yu Gothic_MSFontService,sans-serif" font-weight="400" font-size="11" transform="translate(396.083 102)">Parameter of <tspan font-size="11" x="13.08" y="13">Domain</tspan><tspan font-size="11" x="7.83334" y="25">Operation </tspan><tspan font-size="11" x="6.74667" y="38">Invocation</tspan></text><path d="M0 0 0.526719 60.3898" stroke="#000000" stroke-width="0.666667" stroke-miterlimit="8" fill="none" fill-rule="evenodd" transform="matrix(-1 0 0 1 429.027 147.5)"/><text font-family="Yu Gothic,Yu Gothic_MSFontService,sans-serif" font-weight="400" font-size="11" transform="translate(437.323 165)">*</text><path d="M0 0 73.2236 0.000104987" stroke="#000000" stroke-width="0.666667" stroke-miterlimit="8" fill="none" fill-rule="evenodd" transform="matrix(-1 0 0 1 379.724 236.5)"/><text font-family="Yu Gothic,Yu Gothic_MSFontService,sans-serif" font-weight="400" font-size="11" transform="translate(368.609 254)">*</text><path d="M0 0 73.7503 0.282625" stroke="#000000" stroke-width="0.666667" stroke-miterlimit="8" fill="none" fill-rule="evenodd" transform="matrix(-1 0 0 1 380.25 118.5)"/><text font-family="Yu Gothic,Yu Gothic_MSFontService,sans-serif" font-weight="400" font-size="11" transform="translate(364.493 111)">*</text><rect x="210.5" y="428.5" width="96" height="58" stroke="#000000" stroke-width="1.33333" stroke-miterlimit="8" stroke-dasharray="5.33333 4" fill="#FFFFFF"/><text font-family="Yu Gothic,Yu Gothic_MSFontService,sans-serif" font-weight="400" font-size="11" transform="translate(244.319 448)">Class<tspan font-size="11" x="-10.7467" y="13">Operation</tspan><tspan font-size="11" x="-24.7467" y="25">Nam</tspan><tspan font-size="11" x="-1.58" y="25">e</tspan></text><rect x="210.5" y="310.5" width="96" height="58" stroke="#000000" stroke-width="1.33333" stroke-miterlimit="8" stroke-dasharray="5.33333 4" fill="#FFFFFF"/><text font-family="Yu Gothic,Yu Gothic_MSFontService,sans-serif" font-weight="400" font-size="11" transform="translate(244.319 323)">Class<tspan font-size="11" x="-10.7467" y="13">Operation </tspan><tspan font-size="11" x="-12.2467" y="25">Parameter</tspan><tspan font-size="11" x="-24.7467" y="38">Nam</tspan><tspan font-size="11" x="-1.58" y="38">e</tspan></text><path d="M258.5 368.5 258.5 428.607" stroke="#000000" stroke-width="0.666667" stroke-miterlimit="8" fill="none" fill-rule="evenodd"/><text font-family="Yu Gothic,Yu Gothic_MSFontService,sans-serif" font-weight="400" font-size="11" transform="translate(267.136 383)">*</text><rect x="379.5" y="428.5" width="96" height="58" stroke="#000000" stroke-width="1.33333" stroke-miterlimit="8" fill="#FFFFFF"/><text font-family="Yu Gothic,Yu Gothic_MSFontService,sans-serif" font-weight="400" font-size="11" transform="translate(413.613 448)">Class<tspan font-size="11" x="-10.7467" y="13">Operation </tspan><tspan font-size="11" x="-11.8333" y="25">Invocation</tspan></text><rect x="380.5" y="310.5" width="96" height="58" stroke="#000000" stroke-width="1.33333" stroke-miterlimit="8" fill="#FFFFFF"/><text font-family="Yu Gothic,Yu Gothic_MSFontService,sans-serif" font-weight="400" font-size="11" transform="translate(395.556 323)">Parameter of <tspan font-size="11" x="18.58" y="13">Class</tspan><tspan font-size="11" x="7.83331" y="25">Operation </tspan><tspan font-size="11" x="6.74667" y="38">Invocation</tspan></text><path d="M0 0 0.526719 60.3898" stroke="#000000" stroke-width="0.666667" stroke-miterlimit="8" fill="none" fill-rule="evenodd" transform="matrix(-1 0 0 1 428.027 368.5)"/><text font-family="Yu Gothic,Yu Gothic_MSFontService,sans-serif" font-weight="400" font-size="11" transform="translate(436.796 386)">*</text><path d="M0 0 73.2236 0.000104987" stroke="#000000" stroke-width="0.666667" stroke-miterlimit="8" fill="none" fill-rule="evenodd" transform="matrix(-1 0 0 1 379.724 457.5)"/><text font-family="Yu Gothic,Yu Gothic_MSFontService,sans-serif" font-weight="400" font-size="11" transform="translate(368.083 475)">*</text><path d="M0 0 73.7503 0.282625" stroke="#000000" stroke-width="0.666667" stroke-miterlimit="8" fill="none" fill-rule="evenodd" transform="matrix(-1 0 0 1 380.25 339.5)"/><text font-family="Yu Gothic,Yu Gothic_MSFontService,sans-serif" font-weight="400" font-size="11" transform="translate(363.966 332)">*</text><rect x="379.5" y="536.5" width="96" height="58" stroke="#000000" stroke-width="1.33333" stroke-miterlimit="8" stroke-dasharray="5.33333 4" fill="#FFFFFF"/><text font-family="Yu Gothic,Yu Gothic_MSFontService,sans-serif" font-weight="400" font-size="11" transform="translate(405.636 568)">Instance</text><rect x="210.5" y="766.5" width="96" height="58" stroke="#000000" stroke-width="1.33333" stroke-miterlimit="8" stroke-dasharray="5.33333 4" fill="#FFFFFF"/><text font-family="Yu Gothic,Yu Gothic_MSFontService,sans-serif" font-weight="400" font-size="11" transform="translate(244.513 792)">Event<tspan font-size="11" x="-24.4133" y="13">Nam</tspan><tspan font-size="11" x="-1.24666" y="13">e</tspan></text><rect x="210.5" y="648.5" width="96" height="58" stroke="#000000" stroke-width="1.33333" stroke-miterlimit="8" stroke-dasharray="5.33333 4" fill="#FFFFFF"/><text font-family="Yu Gothic,Yu Gothic_MSFontService,sans-serif" font-weight="400" font-size="11" transform="translate(244.513 661)">Event <tspan font-size="11" x="-20.08" y="13">Supplemental </tspan><tspan font-size="11" x="2" y="25">Data</tspan><tspan font-size="11" x="-24.4133" y="38">Nam</tspan><tspan font-size="11" x="-1.24666" y="38">e</tspan></text><path d="M258.5 706.5 258.5 766.607" stroke="#000000" stroke-width="0.666667" stroke-miterlimit="8" fill="none" fill-rule="evenodd"/><text font-family="Yu Gothic,Yu Gothic_MSFontService,sans-serif" font-weight="400" font-size="11" transform="translate(267.663 720)">*</text><rect x="380.5" y="766.5" width="96" height="58" stroke="#000000" stroke-width="1.33333" stroke-miterlimit="8" fill="#FFFFFF"/><text font-family="Yu Gothic,Yu Gothic_MSFontService,sans-serif" font-weight="400" font-size="11" transform="translate(399.806 798)">Event Send</text><rect x="380.5" y="648.5" width="96" height="57" stroke="#000000" stroke-width="1.33333" stroke-miterlimit="8" fill="#FFFFFF"/><text font-family="Yu Gothic,Yu Gothic_MSFontService,sans-serif" font-weight="400" font-size="11" transform="translate(396.083 661)">Parameter of <tspan font-size="11" x="18.2467" y="13">Event </tspan><tspan font-size="11" x="-1.83334" y="25">Supplemental </tspan><tspan font-size="11" x="20.2467" y="38">Data</tspan></text><path d="M0 0 0.526719 60.3898" stroke="#000000" stroke-width="0.666667" stroke-miterlimit="8" fill="none" fill-rule="evenodd" transform="matrix(-1 0 0 1 429.027 705.5)"/><text font-family="Yu Gothic,Yu Gothic_MSFontService,sans-serif" font-weight="400" font-size="11" transform="translate(437.323 723)">*</text><path d="M0 0 73.2236 0.000104987" stroke="#000000" stroke-width="0.666667" stroke-miterlimit="8" fill="none" fill-rule="evenodd" transform="matrix(-1 0 0 1 379.724 795.5)"/><text font-family="Yu Gothic,Yu Gothic_MSFontService,sans-serif" font-weight="400" font-size="11" transform="translate(368.609 813)">*</text><path d="M0 0 73.7503 0.282625" stroke="#000000" stroke-width="0.666667" stroke-miterlimit="8" fill="none" fill-rule="evenodd" transform="matrix(-1 0 0 1 380.25 676.5)"/><text font-family="Yu Gothic,Yu Gothic_MSFontService,sans-serif" font-weight="400" font-size="11" transform="translate(364.493 670)">*</text><path d="M0 0 0.393701 50.0905" stroke="#000000" stroke-width="0.666667" stroke-miterlimit="8" fill="none" fill-rule="evenodd" transform="matrix(-1 0 0 1 427.894 486.5)"/><text font-family="Yu Gothic,Yu Gothic_MSFontService,sans-serif" font-weight="400" font-size="11" transform="translate(439.125 502)">*</text><path d="M475.5 565.5 500.42 565.5 500.42 795.269 476.42 795.269" stroke="#000000" stroke-width="0.666667" stroke-miterlimit="8" fill="none" fill-rule="evenodd"/><text font-family="Yu Gothic,Yu Gothic_MSFontService,sans-serif" font-weight="400" font-size="11" transform="translate(481.6 808)">*<tspan font-size="11" x="-45.4371" y="-275">target</tspan><tspan font-size="11" x="1.55569" y="-251">target</tspan></text></g></svg>