<svg width="608" height="856" xmlns="http://www.w3.org/2000/svg" xmlns:xlink="http://www.w3.org/1999/xlink" overflow="hidden"><defs><clipPath id="clip0"><rect x="59" y="49" width="608" height="856"/></clipPath></defs><g clip-path="url(#clip0)" transform="translate(-59 -49)"><rect x="60.5001" y="51.5001" width="605" height="853" stroke="#D9D9D9" stroke-width="1.33333" stroke-miterlimit="8" fill="none"/><rect x="321.5" y="397.5" width="251" height="90" stroke="#000000" stroke-width="1.33333" stroke-miterlimit="8" fill="#FFFFFF"/><text font-family="Yu Gothic,Yu Gothic_MSFontService,sans-serif" font-weight="400" font-size="11" transform="translate(407.564 412)">&lt;&lt; interface&gt;&gt;<tspan font-weight="700" font-size="11" x="-10.8333" y="13">IColoringGenerator</tspan><tspan font-size="11" x="-77.3333" y="25">GetColoringForSpec</tspan><tspan font-size="11" x="21.6667" y="25">():</tspan><tspan font-size="11" x="33" y="25">ColoringDomainSpec</tspan><tspan font-size="11" x="-77.3333" y="38">FixTarget</tspan><tspan font-size="11" x="-30.6667" y="38">()</tspan><tspan font-size="11" x="-77.3333" y="51">IsTarget</tspan><tspan font-size="11" x="-36.5" y="51">():bool</tspan><tspan font-size="11" x="-77.3333" y="64">Generate():</tspan><tspan font-size="11" x="-20.5" y="64">GenerationResult</tspan></text><path d="M438.5 501.5 446.5 487.5 454.5 501.5Z" stroke="#000000" stroke-width="1.33333" stroke-miterlimit="8" fill="#FFFFFF" fill-rule="evenodd"/><rect x="321.5" y="535.5" width="251" height="62" stroke="#000000" stroke-width="1.33333" stroke-miterlimit="8" fill="#FFFFFF"/><text font-family="Yu Gothic,Yu Gothic_MSFontService,sans-serif" font-style="oblique" font-weight="700" font-size="11" transform="translate(377.762 570)">SpecificColoringGeneartor</text><path d="M0 0 0.000104987 34.5871" stroke="#000000" stroke-width="0.666667" stroke-miterlimit="8" stroke-dasharray="2 0.666667" fill="none" fill-rule="evenodd" transform="matrix(1 0 0 -1 446.5 536.087)"/><path d="M0 15 8 0 16 15 8 30Z" stroke="#000000" stroke-width="1.33333" stroke-miterlimit="8" fill="#FFFFFF" fill-rule="evenodd" transform="matrix(-6.12323e-17 -1 -1 6.12323e-17 602.5 576.5)"/><path d="M0 0.333333-24.0008 0.333333-23.6674 0-23.6674 39.412-24.0008 39.0787 155.829 39.0787 155.829 63.2739 155.162 63.2739 155.162 39.412 155.495 39.7454-24.3341 39.7454-24.3341-0.333333 0-0.333333ZM160.45 55.4418 155.495 63.9354 150.541 55.4418C150.448 55.2828 150.502 55.0787 150.661 54.9859 150.82 54.8932 151.024 54.9469 151.117 55.1059L155.783 63.1059 155.207 63.1059 159.874 55.1059C159.967 54.9469 160.171 54.8932 160.33 54.9859 160.489 55.0787 160.543 55.2828 160.45 55.4418Z" transform="matrix(-1 0 0 1 601.995 568.5)"/><text font-family="Yu Gothic,Yu Gothic_MSFontService,sans-serif" font-weight="400" font-size="11" transform="translate(420.78 723)">*</text><rect x="321.5" y="632.5" width="251" height="48" stroke="#000000" stroke-width="1.33333" stroke-miterlimit="8" fill="#FFFFFF"/><text font-family="Yu Gothic,Yu Gothic_MSFontService,sans-serif" font-weight="700" font-size="11" transform="translate(391.811 647)">ColoringDomainSpec<tspan font-weight="400" font-size="11" x="-61.58" y="13">DomainNam</tspan><tspan font-weight="400" font-size="11" x="-0.246674" y="13">e</tspan></text><rect x="321.5" y="727.5" width="251" height="49" stroke="#000000" stroke-width="1.33333" stroke-miterlimit="8" fill="#FFFFFF"/><text font-family="Yu Gothic,Yu Gothic_MSFontService,sans-serif" font-weight="700" font-size="11" transform="translate(411.811 742)">ColoringSpec<tspan font-weight="400" font-size="11" x="-81.58" y="13">Name</tspan></text><rect x="321.5" y="811.5" width="251" height="48" stroke="#000000" stroke-width="1.33333" stroke-miterlimit="8" fill="#FFFFFF"/><text font-family="Yu Gothic,Yu Gothic_MSFontService,sans-serif" font-weight="700" font-size="11" transform="translate(384.644 825)">ColoringParameterSpec<tspan font-weight="400" font-size="11" x="-54.4133" y="13">Name</tspan><tspan font-weight="400" font-size="11" x="-54.4133" y="25">IsIdentit</tspan><tspan font-weight="400" font-size="11" x="-13.7467" y="25">y</tspan></text><path d="M0 15 8 0 16 15 8 30Z" stroke="#000000" stroke-width="1.33333" stroke-miterlimit="8" fill="#FFFFFF" fill-rule="evenodd" transform="matrix(-6.12323e-17 -1 -1 6.12323e-17 602.5 667.5)"/><path d="M0 0.333333-24.0008 0.333333-23.6674 0-23.6674 41.7804-24.0008 41.4471 155.829 41.4471 155.829 68.0102 155.162 68.0102 155.162 41.7804 155.495 42.1138-24.3341 42.1138-24.3341-0.333333 0-0.333333ZM160.45 60.1782 155.495 68.6718 150.541 60.1782C150.448 60.0192 150.502 59.8151 150.661 59.7223 150.82 59.6295 151.024 59.6833 151.117 59.8423L155.783 67.8423 155.207 67.8423 159.874 59.8423C159.967 59.6833 160.171 59.6295 160.33 59.7223 160.489 59.8151 160.543 60.0192 160.45 60.1782Z" transform="matrix(-1 0 0 1 601.995 659.5)"/><path d="M0 15 8 0 16 15 8 30Z" stroke="#000000" stroke-width="1.33333" stroke-miterlimit="8" fill="#FFFFFF" fill-rule="evenodd" transform="matrix(-6.12323e-17 -1 -1 6.12323e-17 602.5 758.5)"/><path d="M0 0.333333-24.0008 0.333333-23.6674 0-23.6674 37.8267-24.0008 37.4933 155.829 37.4933 155.829 60.103 155.162 60.103 155.162 37.8267 155.495 38.16-24.3341 38.16-24.3341-0.333333 0-0.333333ZM160.45 52.2709 155.495 60.7645 150.541 52.2709C150.448 52.1119 150.502 51.9078 150.661 51.815 150.82 51.7223 151.024 51.776 151.117 51.935L155.783 59.935 155.207 59.935 159.874 51.935C159.967 51.776 160.171 51.7223 160.33 51.815 160.489 51.9078 160.543 52.1119 160.45 52.2709Z" transform="matrix(-1 0 0 1 601.995 750.5)"/><text font-family="Yu Gothic,Yu Gothic_MSFontService,sans-serif" font-weight="400" font-size="11" transform="translate(455.946 718)">Specifications<tspan font-size="11" x="3.83646" y="-92">coloringDomainSpec</tspan><tspan font-size="11" x="-35.1662" y="93">*</tspan><tspan font-size="11" x="0" y="88">Parameters</tspan></text><rect x="104.5" y="198.5" width="251" height="89" stroke="#000000" stroke-width="1.33333" stroke-miterlimit="8" fill="#FFFFFF"/><text font-family="Yu Gothic,Yu Gothic_MSFontService,sans-serif" font-weight="700" font-size="11" transform="translate(184.837 212)">ColoringManager<tspan font-weight="400" font-size="11" x="-71.5" y="13">Resolve():bool</tspan><tspan font-weight="400" font-size="11" x="-71.5" y="25">LoadGenerator</tspan><tspan font-weight="400" font-size="11" x="2.33334" y="25">():</tspan><tspan font-weight="400" font-size="11" x="13.6667" y="25">IColoringGenerator</tspan><tspan font-weight="400" font-size="11" x="-71.5" y="38">HasConfig</tspan><tspan font-weight="400" font-size="11" x="-20.1667" y="38">():bool</tspan><tspan font-weight="400" font-size="11" x="-71.5" y="51">GenerateForColoring:IList</tspan><tspan font-weight="400" font-size="11" x="55.8333" y="51">&lt;</tspan><tspan font-weight="400" font-size="11" x="63.5" y="51">GenerationResult</tspan><tspan font-weight="400" font-size="11" x="149.5" y="51">&gt;</tspan></text><rect x="321.5" y="322.5" width="251" height="55" stroke="#000000" stroke-width="1.33333" stroke-miterlimit="8" fill="#FFFFFF"/><text font-family="Yu Gothic,Yu Gothic_MSFontService,sans-serif" font-weight="400" font-size="11" transform="translate(415.731 337)">&lt;&lt; <tspan font-size="11" x="18.3333" y="0">static&gt;&gt;</tspan><tspan font-weight="700" font-size="11" x="-30.92" y="13">ColoringGeneratorEntry</tspan><tspan font-size="11" x="-85.5" y="25">GetGenerator</tspan><tspan font-size="11" x="-18.6667" y="25">():</tspan><tspan font-size="11" x="-7.33334" y="25">IColoringGenerator</tspan></text><path d="M330.231 362.891 387.564 362.891 444.897 362.891 502.231 362.891 502.231 363.891 444.897 363.891 387.564 363.891 330.231 363.891Z" fill-rule="evenodd"/><path d="M572.5 349.167 574.5 349.167 574.5 349.833 572.5 349.833ZM575.167 349.167 577.167 349.167 577.167 349.833 575.167 349.833ZM577.833 349.167 579.833 349.167 579.833 349.833 577.833 349.833ZM580.5 349.167 582.5 349.167 582.5 349.833 580.5 349.833ZM583.167 349.167 585.167 349.167 585.167 349.833 583.167 349.833ZM585.833 349.167 587.833 349.167 587.833 349.833 585.833 349.833ZM588.5 349.167 590.5 349.167 590.5 349.833 588.5 349.833ZM591.167 349.167 593.167 349.167 593.167 349.833 591.167 349.833ZM593.833 349.167 595.833 349.167 595.833 349.833 593.833 349.833ZM596.5 349.167 596.834 349.167 596.834 351.5 596.167 351.5 596.167 349.5 596.5 349.833 596.5 349.833ZM596.834 352.167 596.834 354.167 596.167 354.167 596.167 352.167ZM596.834 354.833 596.834 356.833 596.167 356.833 596.167 354.833ZM596.834 357.5 596.834 359.5 596.167 359.5 596.167 357.5ZM596.834 360.167 596.834 362.167 596.167 362.167 596.167 360.167ZM596.834 362.833 596.834 364.833 596.167 364.833 596.167 362.833ZM596.834 365.5 596.834 367.5 596.167 367.5 596.167 365.5ZM596.834 368.167 596.834 370.167 596.167 370.167 596.167 368.167ZM596.834 370.833 596.834 372.833 596.167 372.833 596.167 370.833ZM596.834 373.5 596.834 375.5 596.167 375.5 596.167 373.5ZM596.834 376.167 596.834 378.167 596.167 378.167 596.167 376.167ZM596.834 378.833 596.834 380.833 596.167 380.833 596.167 378.833ZM596.834 381.5 596.834 383.5 596.167 383.5 596.167 381.5ZM596.834 384.167 596.834 386.167 596.167 386.167 596.167 384.167ZM596.834 386.833 596.834 388.833 596.167 388.833 596.167 386.833ZM596.834 389.5 596.834 391.5 596.167 391.5 596.167 389.5ZM596.834 392.167 596.834 394.167 596.167 394.167 596.167 392.167ZM596.834 394.833 596.834 396.833 596.167 396.833 596.167 394.833ZM596.834 397.5 596.834 399.5 596.167 399.5 596.167 397.5ZM596.834 400.167 596.834 402.167 596.167 402.167 596.167 400.167ZM596.834 402.833 596.834 404.833 596.167 404.833 596.167 402.833ZM596.834 405.5 596.834 407.5 596.167 407.5 596.167 405.5ZM596.834 408.167 596.834 410.167 596.167 410.167 596.167 408.167ZM596.834 410.833 596.834 412.833 596.167 412.833 596.167 410.833ZM596.834 413.5 596.834 415.5 596.167 415.5 596.167 413.5ZM596.834 416.167 596.834 418.167 596.167 418.167 596.167 416.167ZM596.834 418.833 596.834 420.833 596.167 420.833 596.167 418.833ZM596.834 421.5 596.834 423.5 596.167 423.5 596.167 421.5ZM596.834 424.167 596.834 426.167 596.167 426.167 596.167 424.167ZM596.834 426.833 596.834 428.833 596.167 428.833 596.167 426.833ZM596.834 429.5 596.834 431.5 596.167 431.5 596.167 429.5ZM596.834 432.167 596.834 434.167 596.167 434.167 596.167 432.167ZM596.834 434.833 596.834 436.833 596.167 436.833 596.167 434.833ZM596.834 437.5 596.834 439.5 596.167 439.5 596.167 437.5ZM596.834 440.167 596.834 442.167 596.167 442.167 596.167 440.167ZM596.834 442.833 596.834 444.833 596.167 444.833 596.167 442.833ZM596.834 445.5 596.834 447.5 596.167 447.5 596.167 445.5ZM596.834 448.167 596.834 450.167 596.167 450.167 596.167 448.167ZM596.834 450.833 596.834 452.833 596.167 452.833 596.167 450.833ZM596.834 453.5 596.834 455.5 596.167 455.5 596.167 453.5ZM596.834 456.167 596.834 458.167 596.167 458.167 596.167 456.167ZM596.834 458.833 596.834 460.833 596.167 460.833 596.167 458.833ZM596.834 461.5 596.834 463.5 596.167 463.5 596.167 461.5ZM596.834 464.167 596.834 466.167 596.167 466.167 596.167 464.167ZM596.834 466.833 596.834 468.833 596.167 468.833 596.167 466.833ZM596.834 469.5 596.834 471.5 596.167 471.5 596.167 469.5ZM596.834 472.167 596.834 474.167 596.167 474.167 596.167 472.167ZM596.834 474.833 596.834 476.833 596.167 476.833 596.167 474.833ZM596.834 477.5 596.834 479.5 596.167 479.5 596.167 477.5ZM596.834 480.167 596.834 482.167 596.167 482.167 596.167 480.167ZM596.834 482.833 596.834 484.833 596.167 484.833 596.167 482.833ZM596.834 485.5 596.834 487.5 596.167 487.5 596.167 485.5ZM596.834 488.167 596.834 490.167 596.167 490.167 596.167 488.167ZM596.834 490.833 596.834 492.833 596.167 492.833 596.167 490.833ZM596.834 493.5 596.834 495.5 596.167 495.5 596.167 493.5ZM596.834 496.167 596.834 498.167 596.167 498.167 596.167 496.167ZM596.834 498.833 596.834 500.833 596.167 500.833 596.167 498.833ZM596.834 501.5 596.834 503.5 596.167 503.5 596.167 501.5ZM596.834 504.167 596.834 506.167 596.167 506.167 596.167 504.167ZM596.834 506.833 596.834 508.833 596.167 508.833 596.167 506.833ZM596.834 509.5 596.834 511.5 596.167 511.5 596.167 509.5ZM596.834 512.167 596.834 514.167 596.167 514.167 596.167 512.167ZM596.834 514.833 596.834 516.833 596.167 516.833 596.167 514.833ZM596.834 517.5 596.834 519.5 596.167 519.5 596.167 517.5ZM596.834 520.167 596.834 522.167 596.167 522.167 596.167 520.167ZM596.834 522.833 596.834 524.833 596.167 524.833 596.167 522.833ZM596.834 525.5 596.834 527.5 596.167 527.5 596.167 525.5ZM596.834 528.167 596.834 530.167 596.167 530.167 596.167 528.167ZM596.834 530.833 596.834 532.833 596.167 532.833 596.167 530.833ZM596.834 533.5 596.834 535.5 596.167 535.5 596.167 533.5ZM596.834 536.167 596.834 538.167 596.167 538.167 596.167 536.167ZM596.834 538.833 596.834 540.833 596.167 540.833 596.167 538.833ZM596.834 541.5 596.834 543.5 596.167 543.5 596.167 541.5ZM596.834 544.167 596.834 546.167 596.167 546.167 596.167 544.167ZM596.834 546.833 596.834 548.833 596.167 548.833 596.167 546.833ZM596.834 549.5 596.834 551.5 596.167 551.5 596.167 549.5ZM596.834 552.167 596.834 553.357 595.358 553.357 595.358 552.69 596.5 552.69 596.167 553.024 596.167 552.167ZM594.691 553.357 592.691 553.357 592.691 552.69 594.691 552.69ZM592.024 553.357 590.024 553.357 590.024 552.69 592.024 552.69ZM589.358 553.357 587.358 553.357 587.358 552.69 589.358 552.69ZM586.691 553.357 584.691 553.357 584.691 552.69 586.691 552.69ZM584.024 553.357 582.024 553.357 582.024 552.69 584.024 552.69ZM581.358 553.357 579.358 553.357 579.358 552.69 581.358 552.69ZM578.691 553.357 576.691 553.357 576.691 552.69 578.691 552.69ZM576.024 553.357 574.024 553.357 574.024 552.69 576.024 552.69ZM573.358 553.357 573.16 553.357 573.16 552.69 573.358 552.69ZM580.992 557.978 572.499 553.024 580.992 548.069C581.151 547.977 581.355 548.03 581.448 548.189 581.541 548.348 581.487 548.552 581.328 548.645L573.328 553.312 573.328 552.736 581.328 557.403C581.487 557.495 581.541 557.699 581.448 557.858 581.355 558.017 581.151 558.071 580.992 557.978Z"/><text font-family="Yu Gothic,Yu Gothic_MSFontService,sans-serif" font-weight="400" font-size="11" transform="translate(598.741 544)">create</text><path d="M355.5 270.167 357.5 270.167 357.5 270.833 355.5 270.833ZM358.167 270.167 360.167 270.167 360.167 270.833 358.167 270.833ZM360.833 270.167 362.833 270.167 362.833 270.833 360.833 270.833ZM363.5 270.167 365.5 270.167 365.5 270.833 363.5 270.833ZM366.167 270.167 368.167 270.167 368.167 270.833 366.167 270.833ZM368.833 270.167 370.833 270.167 370.833 270.833 368.833 270.833ZM371.5 270.167 373.5 270.167 373.5 270.833 371.5 270.833ZM374.167 270.167 376.167 270.167 376.167 270.833 374.167 270.833ZM376.833 270.167 378.833 270.167 378.833 270.833 376.833 270.833ZM379.5 270.167 381.5 270.167 381.5 270.833 379.5 270.833ZM382.167 270.167 384.167 270.167 384.167 270.833 382.167 270.833ZM384.833 270.167 386.833 270.167 386.833 270.833 384.833 270.833ZM387.5 270.167 389.5 270.167 389.5 270.833 387.5 270.833ZM390.167 270.167 392.167 270.167 392.167 270.833 390.167 270.833ZM392.833 270.167 394.833 270.167 394.833 270.833 392.833 270.833ZM395.5 270.167 397.5 270.167 397.5 270.833 395.5 270.833ZM398.167 270.167 400.167 270.167 400.167 270.833 398.167 270.833ZM400.833 270.167 402.833 270.167 402.833 270.833 400.833 270.833ZM403.5 270.167 405.5 270.167 405.5 270.833 403.5 270.833ZM406.167 270.167 408.167 270.167 408.167 270.833 406.167 270.833ZM408.833 270.167 410.833 270.167 410.833 270.833 408.833 270.833ZM411.5 270.167 413.5 270.167 413.5 270.833 411.5 270.833ZM414.167 270.167 416.167 270.167 416.167 270.833 414.167 270.833ZM416.833 270.167 418.833 270.167 418.833 270.833 416.833 270.833ZM419.5 270.167 421.5 270.167 421.5 270.833 419.5 270.833ZM422.167 270.167 424.167 270.167 424.167 270.833 422.167 270.833ZM424.833 270.167 426.833 270.167 426.833 270.833 424.833 270.833ZM427.5 270.167 429.5 270.167 429.5 270.833 427.5 270.833ZM430.167 270.167 432.167 270.167 432.167 270.833 430.167 270.833ZM432.833 270.167 434.833 270.167 434.833 270.833 432.833 270.833ZM435.5 270.167 437.5 270.167 437.5 270.833 435.5 270.833ZM438.167 270.167 440.167 270.167 440.167 270.833 438.167 270.833ZM440.833 270.167 442.833 270.167 442.833 270.833 440.833 270.833ZM443.5 270.167 445.5 270.167 445.5 270.833 443.5 270.833ZM446.167 270.167 447.012 270.167 447.012 271.988 446.345 271.988 446.345 270.5 446.678 270.833 446.167 270.833ZM447.012 272.655 447.012 274.655 446.345 274.655 446.345 272.655ZM447.012 275.322 447.012 277.322 446.345 277.322 446.345 275.322ZM447.012 277.988 447.012 279.988 446.345 279.988 446.345 277.988ZM447.012 280.655 447.012 282.655 446.345 282.655 446.345 280.655ZM447.012 283.322 447.012 285.322 446.345 285.322 446.345 283.322ZM447.012 285.988 447.012 287.988 446.345 287.988 446.345 285.988ZM447.012 288.655 447.012 290.655 446.345 290.655 446.345 288.655ZM447.012 291.322 447.012 293.322 446.345 293.322 446.345 291.322ZM447.012 293.988 447.012 295.988 446.345 295.988 446.345 293.988ZM447.012 296.655 447.012 298.655 446.345 298.655 446.345 296.655ZM447.012 299.322 447.012 301.322 446.345 301.322 446.345 299.322ZM447.012 301.988 447.012 303.988 446.345 303.988 446.345 301.988ZM447.012 304.655 447.012 306.655 446.345 306.655 446.345 304.655ZM447.012 307.322 447.012 309.322 446.345 309.322 446.345 307.322ZM447.012 309.988 447.012 311.988 446.345 311.988 446.345 309.988ZM447.012 312.655 447.012 314.655 446.345 314.655 446.345 312.655ZM447.012 315.322 447.012 317.322 446.345 317.322 446.345 315.322ZM447.012 317.988 447.012 319.988 446.345 319.988 446.345 317.988ZM447.012 320.655 447.012 321.88 446.345 321.88 446.345 320.655ZM451.633 314.048 446.678 322.542 441.724 314.048C441.631 313.889 441.685 313.685 441.844 313.592 442.003 313.5 442.207 313.553 442.3 313.712L446.966 321.712 446.391 321.712 451.057 313.712C451.15 313.553 451.354 313.5 451.513 313.592 451.672 313.685 451.726 313.889 451.633 314.048Z"/><path d="M0 15 8 0 16 15 8 30Z" stroke="#000000" stroke-width="1.33333" stroke-miterlimit="8" fill="#FFFFFF" fill-rule="evenodd" transform="matrix(1 -1.22465e-16 -1.22465e-16 -1 224.5 318.5)"/><path d="M0 15 8 0 16 15 8 30Z" stroke="#000000" stroke-width="1.33333" stroke-miterlimit="8" fill="#FFFFFF" fill-rule="evenodd" transform="matrix(1 -1.22465e-16 -1.22465e-16 -1 150.5 318.5)"/><path d="M0-0.333333 124.113-0.333333 124.113 88.229 123.447 88.229 123.447 0 123.78 0.333333 0 0.333333ZM128.735 80.397 123.78 88.8906 118.826 80.397C118.733 80.238 118.787 80.0339 118.946 79.9411 119.105 79.8483 119.309 79.9021 119.401 80.0611L124.068 88.0611 123.492 88.0611 128.159 80.0611C128.252 79.9021 128.456 79.8483 128.615 79.9411 128.774 80.0339 128.827 80.238 128.735 80.397Z" transform="matrix(1.83697e-16 1 1 -1.83697e-16 232.5 318.5)"/><text font-family="Yu Gothic,Yu Gothic_MSFontService,sans-serif" font-weight="400" font-size="11" transform="translate(221.434 461)">coloringGenerators<tspan font-size="11" x="83.9682" y="-24">*</tspan></text><rect x="104.5" y="523.5" width="155" height="48" stroke="#000000" stroke-width="1.33333" stroke-miterlimit="8" fill="#FFFFFF"/><text font-family="Yu Gothic,Yu Gothic_MSFontService,sans-serif" font-weight="700" font-size="11" transform="translate(128.735 551)">ColoringForInstance</text><path d="M0-0.333333 102.845-0.333333 102.845 23.5136 102.512 23.1803 204.363 23.1803 204.363 23.8469 102.178 23.8469 102.178 0 102.512 0.333333 0 0.333333ZM196.531 18.559 205.025 23.5136 196.531 28.4682C196.372 28.5609 196.168 28.5072 196.075 28.3482 195.983 28.1892 196.036 27.9851 196.195 27.8923L204.195 23.2257 204.195 23.8015 196.195 19.1349C196.036 19.0421 195.983 18.838 196.075 18.679 196.168 18.52 196.372 18.4662 196.531 18.559Z" transform="matrix(1.83697e-16 1 1 -1.83697e-16 158.5 318.5)"/><text font-family="Yu Gothic,Yu Gothic_MSFontService,sans-serif" font-weight="400" font-size="11" transform="translate(168.659 519)">*<tspan font-size="11" x="26.6518" y="-2">coloringSettings</tspan></text><path d="M259.5 554.167 290.533 554.167 290.533 752.104 290.199 751.77 320.238 751.77 320.238 752.437 289.866 752.437 289.866 554.5 290.199 554.833 259.5 554.833ZM312.406 747.149 320.9 752.104 312.406 757.058C312.247 757.151 312.043 757.097 311.951 756.938 311.858 756.779 311.911 756.575 312.071 756.482L320.071 751.816 320.071 752.392 312.071 747.725C311.911 747.632 311.858 747.428 311.951 747.269 312.043 747.11 312.247 747.056 312.406 747.149Z"/><text font-family="Yu Gothic,Yu Gothic_MSFontService,sans-serif" font-weight="400" font-size="11" transform="translate(255.635 771)">Specification</text><rect x="77.5001" y="653.5" width="156" height="48" stroke="#000000" stroke-width="1.33333" stroke-miterlimit="8" fill="#FFFFFF"/><text font-family="Yu Gothic,Yu Gothic_MSFontService,sans-serif" font-weight="400" font-size="11" transform="translate(117.619 674)">&lt;&lt;interface&gt;&gt;<tspan font-size="11" x="9.58" y="13">CIClassDef</tspan></text><path d="M182.449 571.5 182.449 612.667 155.5 612.667 155.833 612.334 155.833 652.508 155.167 652.508 155.167 612.001 182.115 612.001 181.782 612.334 181.782 571.5ZM160.455 644.676 155.5 653.17 150.546 644.676C150.453 644.517 150.506 644.313 150.665 644.22 150.824 644.128 151.029 644.181 151.121 644.34L155.788 652.34 155.212 652.34 159.879 644.34C159.972 644.181 160.176 644.128 160.335 644.22 160.494 644.313 160.547 644.517 160.455 644.676Z"/><text font-family="Yu Gothic,Yu Gothic_MSFontService,sans-serif" font-weight="400" font-size="11" transform="translate(163.843 647)">Target</text><rect x="77.5001" y="750.5" width="156" height="49" stroke="#000000" stroke-width="1.33333" stroke-miterlimit="8" fill="#FFFFFF"/><text font-family="Yu Gothic,Yu Gothic_MSFontService,sans-serif" font-weight="400" font-size="11" transform="translate(117.619 772)">&lt;&lt;interface&gt;&gt;<tspan font-size="11" x="-24.3333" y="13">CIM</tspan><tspan font-size="11" x="-4" y="13">Class</tspan><tspan font-style="oblique" font-size="11" x="23.1667" y="13">ClassKeyLetter</tspan></text><path d="M146.5 715.5 154.5 701.5 162.5 715.5Z" stroke="#000000" stroke-width="1.33333" stroke-miterlimit="8" fill="#FFFFFF" fill-rule="evenodd"/><path d="M155.127 751.283 154.5 715.5" stroke="#000000" stroke-width="0.666667" stroke-miterlimit="8" stroke-dasharray="2 0.666667" fill="none" fill-rule="evenodd"/><rect x="104.5" y="85.5001" width="251" height="54" stroke="#000000" stroke-width="1.33333" stroke-miterlimit="8" fill="#FFFFFF"/><text font-family="Yu Gothic,Yu Gothic_MSFontService,sans-serif" font-weight="400" font-size="11" transform="translate(192.035 116)">CodeGenerator</text><path d="M0 15 8 0 16 15 8 30Z" stroke="#000000" stroke-width="1.33333" stroke-miterlimit="8" fill="#FFFFFF" fill-rule="evenodd" transform="matrix(-6.12323e-17 -1 -1 6.12323e-17 385.5 135.5)"/><path d="M0 0.333333-24.0007 0.333333-23.6674 0-23.6674 42.7683-24.0007 42.435 155.829 42.435 155.829 69.9872 155.162 69.9872 155.162 42.7683 155.495 43.1017-24.3341 43.1017-24.3341-0.333333 0-0.333333ZM160.45 62.1551 155.495 70.6487 150.541 62.1551C150.448 61.9961 150.502 61.792 150.661 61.6992 150.82 61.6064 151.024 61.6602 151.116 61.8192L155.783 69.8192 155.207 69.8192 159.874 61.8192C159.967 61.6602 160.171 61.6064 160.33 61.6992 160.489 61.792 160.543 61.9961 160.45 62.1551Z" transform="matrix(-1 0 0 1 384.995 127.5)"/><path d="M296.5 327.924C296.5 314.435 307.435 303.5 320.924 303.5L625.076 303.5C638.565 303.5 649.5 314.435 649.5 327.924L649.5 850.076C649.5 863.565 638.565 874.5 625.076 874.5L320.924 874.5C307.435 874.5 296.5 863.565 296.5 850.076Z" stroke="#507E32" stroke-width="1.33333" stroke-miterlimit="8" stroke-dasharray="5.33333 4" fill="none" fill-rule="evenodd"/><text font-family="Yu Gothic,Yu Gothic_MSFontService,sans-serif" font-weight="400" font-size="13" transform="translate(500.729 248)">Plugin<tspan font-size="13" x="42.3333" y="0">可能な</tspan><tspan font-size="13" x="0" y="16">色付け用ジェネレータ</tspan><tspan font-size="13" x="0" y="32">（</tspan><tspan font-size="13" x="13.3333" y="32">DLL</tspan><tspan font-size="13" x="43.1667" y="32">ファイル）</tspan></text><path d="M0.266569-0.20013 16.6936 21.6803 16.1604 22.0805-0.266569 0.20013ZM19.6258 19.4789C20.9522 21.2455 20.5952 23.7529 18.8285 25.0793 17.0619 26.4056 14.5545 26.0486 13.2282 24.282 11.9018 22.5153 12.2588 20.0079 14.0254 18.6816 15.7921 17.3552 18.2995 17.7122 19.6258 19.4789Z" fill="#70AD47" transform="matrix(-1 0 0 1 568.927 289.5)"/><path d="M489.5 76.5001 585.5 76.5001 585.5 136.5 573.5 148.5 489.5 148.5Z" fill="#ED7D31" fill-rule="evenodd"/><path d="M573.5 148.5 575.9 138.9 585.5 136.5Z" fill="#BF6427" fill-rule="evenodd"/><path d="M573.5 148.5 575.9 138.9 585.5 136.5 573.5 148.5 489.5 148.5 489.5 76.5001 585.5 76.5001 585.5 136.5" stroke="#AE5A21" stroke-width="1.33333" stroke-miterlimit="8" fill="none" fill-rule="evenodd"/><text fill="#FFFFFF" font-family="Yu Gothic,Yu Gothic_MSFontService,sans-serif" font-weight="400" font-size="13" transform="translate(511.777 94)">Coloring<tspan font-size="13" x="8.74664" y="16">JSON</tspan><tspan font-size="13" x="14.1667" y="32">File</tspan></text><path d="M2.60948e-07-0.333333 2-0.333332 2 0.333335-2.60948e-07 0.333333ZM2.66667-0.333331 4.66667-0.33333 4.66667 0.333337 2.66667 0.333335ZM5.33333-0.333329 7.33333-0.333328 7.33333 0.333339 5.33333 0.333338ZM8-0.333327 10-0.333326 10 0.333341 8 0.33334ZM10.6667-0.333325 12.6667-0.333323 12.6667 0.333343 10.6667 0.333342ZM13.3333-0.333323 15.3333-0.333321 15.3333 0.333345 13.3333 0.333344ZM16-0.333321 18-0.333319 18 0.333347 16 0.333346ZM18.6667-0.333319 20.6667-0.333317 20.6667 0.333349 18.6667 0.333348ZM21.3333-0.333317 23.3333-0.333315 23.3333 0.333352 21.3333 0.33335ZM24-0.333315 26-0.333313 26 0.333354 24 0.333352ZM26.6667-0.333312 28.6667-0.333311 28.6667 0.333356 26.6667 0.333354ZM29.3333-0.33331 31.3333-0.333309 31.3333 0.333358 29.3333 0.333356ZM32-0.333308 34-0.333307 34 0.33336 32 0.333358ZM34.6667-0.333306 36.6667-0.333305 36.6667 0.333362 34.6667 0.33336ZM37.3333-0.333304 39.3333-0.333303 39.3333 0.333364 37.3333 0.333363ZM40-0.333302 42-0.3333 42 0.333366 40 0.333365ZM42.6667-0.3333 44.6667-0.333298 44.6667 0.333368 42.6667 0.333367ZM45.3333-0.333298 47.3333-0.333296 47.3333 0.33337 45.3333 0.333369ZM48-0.333296 50-0.333294 50 0.333372 48 0.333371ZM50.6667-0.333294 52.6667-0.333292 52.6667 0.333375 50.6667 0.333373ZM53.3333-0.333292 55.3333-0.33329 55.3333 0.333377 53.3333 0.333375ZM56-0.33329 58-0.333288 58 0.333379 56 0.333377ZM58.6667-0.333287 60.6667-0.333286 60.6667 0.333381 58.6667 0.333379ZM61.3333-0.333285 63.3333-0.333284 63.3333 0.333383 61.3333 0.333381ZM64-0.333283 66-0.333282 66 0.333385 64 0.333383ZM66.6667-0.333281 68.6667-0.33328 68.6667 0.333387 66.6667 0.333385ZM69.3333-0.333279 71.3333-0.333277 71.3333 0.333389 69.3333 0.333388ZM72-0.333277 74-0.333275 74 0.333391 72 0.33339ZM74.6667-0.333275 76.6667-0.333273 76.6667 0.333393 74.6667 0.333392ZM77.3333-0.333273 79.3333-0.333271 79.3333 0.333395 77.3333 0.333394ZM80-0.333271 82-0.333269 82 0.333398 80 0.333396ZM82.6667-0.333269 84.6667-0.333267 84.6667 0.3334 82.6667 0.333398ZM85.3333-0.333267 87.3333-0.333265 87.3333 0.333402 85.3333 0.3334ZM88-0.333264 90-0.333263 90 0.333404 88 0.333402ZM90.6667-0.333262 92.6667-0.333261 92.6667 0.333406 90.6667 0.333404ZM93.3333-0.33326 95.3333-0.333259 95.3333 0.333408 93.3333 0.333406ZM96-0.333258 98-0.333257 98 0.33341 96 0.333408ZM98.6667-0.333256 100.667-0.333255 100.667 0.333412 98.6667 0.333411ZM101.333-0.333254 103.333-0.333252 103.333 0.333414 101.333 0.333413ZM104-0.333252 106-0.33325 106 0.333416 104 0.333415ZM106.667-0.33325 108.667-0.333248 108.667 0.333418 106.667 0.333417ZM109.333-0.333248 111.333-0.333246 111.333 0.33342 109.333 0.333419ZM112-0.333246 114-0.333244 114 0.333423 112 0.333421ZM114.667-0.333244 116.667-0.333242 116.667 0.333425 114.667 0.333423ZM117.333-0.333241 119.333-0.33324 119.333 0.333427 117.333 0.333425ZM120-0.333239 122-0.333238 122 0.333429 120 0.333427ZM122.667-0.333237 124.667-0.333236 124.667 0.333431 122.667 0.333429ZM125.333-0.333235 127.333-0.333234 127.333 0.333433 125.333 0.333431ZM128-0.333233 130-0.333232 130 0.333435 128 0.333434ZM130.667-0.333231 132.667-0.333229 132.667 0.333437 130.667 0.333436ZM133.333-0.333229 133.449-0.333229 133.449 0.333438 133.333 0.333438ZM125.617-4.95449 134.111 0.000104881 125.617 4.95469C125.458 5.04745 125.254 4.99374 125.162 4.83472 125.069 4.6757 125.123 4.4716 125.282 4.37884L133.282-0.287822 133.282 0.288031 125.282-4.37864C125.123-4.4714 125.069-4.67551 125.162-4.83453 125.254-4.99354 125.458-5.04726 125.617-4.95449Z" transform="matrix(1 0 0 -1 355.5 112.5)"/></g></svg>