<svg width="607" height="499" xmlns="http://www.w3.org/2000/svg" xmlns:xlink="http://www.w3.org/1999/xlink" overflow="hidden"><defs><clipPath id="clip0"><rect x="34" y="30" width="607" height="499"/></clipPath></defs><g clip-path="url(#clip0)" transform="translate(-34 -30)"><rect x="35.5001" y="32.5001" width="605" height="496" stroke="#D9D9D9" stroke-width="1.33333" stroke-miterlimit="8" fill="none"/><rect x="112.5" y="124.5" width="91" height="64" stroke="#000000" stroke-width="1.33333" stroke-miterlimit="8" fill="#FFFFFF"/><text font-family="Yu Gothic,Yu Gothic_MSFontService,sans-serif" font-weight="400" font-size="13" transform="translate(137.149 160)">O_OBJ</text><path d="M346.628 188.5 346.628 281.659 203.5 281.659" stroke="#000000" stroke-width="0.666667" stroke-miterlimit="8" fill="none" fill-rule="evenodd"/><text font-family="Yu Gothic,Yu Gothic_MSFontService,sans-serif" font-weight="400" font-size="13" transform="translate(228.686 147)">R104<tspan font-size="13" x="55.2376" y="10">*</tspan><tspan font-size="13" x="206.591" y="-19">Oid_ID</tspan><tspan font-size="13" x="251.925" y="-19">は識別子の次数</tspan></text><rect x="292.5" y="124.5" width="109" height="64" stroke="#000000" stroke-width="1.33333" stroke-miterlimit="8" fill="#FFFFFF"/><text font-family="Yu Gothic,Yu Gothic_MSFontService,sans-serif" font-weight="400" font-size="13" transform="translate(331.179 154)">O<tspan font-size="13" x="9.83331" y="0">_ID</tspan><tspan font-size="11" x="-29.7467" y="14">Oid_ID</tspan><tspan font-size="11" x="3.58664" y="14">:</tspan><tspan font-size="11" x="9.58664" y="14">INTEGE</tspan><tspan font-size="11" x="48.42" y="14">R</tspan></text><path d="M203.5 156.5 292.044 156.5" stroke="#000000" stroke-width="0.666667" stroke-miterlimit="8" fill="none" fill-rule="evenodd"/><rect x="112.5" y="249.5" width="91" height="64" stroke="#000000" stroke-width="1.33333" stroke-miterlimit="8" fill="#FFFFFF"/><text font-family="Yu Gothic,Yu Gothic_MSFontService,sans-serif" font-weight="400" font-size="13" transform="translate(132.066 285)">O<tspan font-size="13" x="9.83333" y="0">_ATTR</tspan></text><path d="M157.5 188.5 157.5 249.643" stroke="#000000" stroke-width="0.666667" stroke-miterlimit="8" fill="none" fill-rule="evenodd"/><text font-family="Yu Gothic,Yu Gothic_MSFontService,sans-serif" font-weight="400" font-size="13" transform="translate(121.277 224)">R102<tspan font-size="13" x="41.6461" y="24">*</tspan><tspan font-size="13" x="230.646" y="-21">*</tspan><tspan font-size="13" x="86.6461" y="74">*</tspan></text><rect x="426.5" y="249.5" width="91" height="64" stroke="#000000" stroke-width="1.33333" stroke-miterlimit="8" fill="#FFFFFF"/><text font-family="Yu Gothic,Yu Gothic_MSFontService,sans-serif" font-weight="400" font-size="13" transform="translate(447.066 285)">O<tspan font-size="13" x="9.83334" y="0">_OIDA</tspan></text><path d="M346.5 249.5 425.761 281.516" stroke="#000000" stroke-width="0.666667" stroke-miterlimit="8" stroke-dasharray="2.66667 2" fill="none" fill-rule="evenodd"/><path d="M104.167 388.934 104.167 350.884 157.632 350.884 157.299 351.217 157.299 320.167 157.966 320.167 157.966 351.55 104.5 351.55 104.833 351.217 104.833 388.934ZM153.632 321.5 157.632 313.5 161.632 321.5Z"/><rect x="59.5001" y="389.5" width="91" height="64" stroke="#000000" stroke-width="1.33333" stroke-miterlimit="8" fill="#FFFFFF"/><text font-family="Yu Gothic,Yu Gothic_MSFontService,sans-serif" font-weight="400" font-size="13" transform="translate(74.4335 425)">O<tspan font-size="13" x="9.83334" y="0">_RATTR</tspan></text><rect x="166.5" y="389.5" width="92" height="64" stroke="#000000" stroke-width="1.33333" stroke-miterlimit="8" fill="#FFFFFF"/><text font-family="Yu Gothic,Yu Gothic_MSFontService,sans-serif" font-weight="400" font-size="13" transform="translate(182.103 425)">O<tspan font-size="13" x="9.83333" y="0">_BATTR</tspan></text><path d="M0-0.333333 38.0501-0.333333 38.0501 54.5374 37.7167 54.2041 68.7668 54.2041 68.7668 54.8708 37.3834 54.8708 37.3834 0 37.7167 0.333333 0 0.333333ZM67.4335 50.5374 75.4335 54.5374 67.4335 58.5374Z" transform="matrix(-1.83697e-16 -1 -1 1.83697e-16 212.038 388.934)"/><text font-family="Yu Gothic,Yu Gothic_MSFontService,sans-serif" font-weight="400" font-size="13" transform="translate(121.277 336)">R106</text><rect x="322.5" y="440.5" width="92" height="64" stroke="#000000" stroke-width="1.33333" stroke-miterlimit="8" fill="#FFFFFF"/><text font-family="Yu Gothic,Yu Gothic_MSFontService,sans-serif" font-weight="400" font-size="13" transform="translate(333.189 476)">O<tspan font-size="13" x="9.83334" y="0">_DBATTR</tspan></text><rect x="322.5" y="351.5" width="92" height="64" stroke="#000000" stroke-width="1.33333" stroke-miterlimit="8" fill="#FFFFFF"/><text font-family="Yu Gothic,Yu Gothic_MSFontService,sans-serif" font-weight="400" font-size="13" transform="translate(333.189 387)">O<tspan font-size="13" x="9.83334" y="0">_NBATTR</tspan></text><path d="M0-0.333333 32.571-0.333333 32.571 37.7169 32.2376 37.3835 57.8086 37.3835 57.8086 38.0502 31.9043 38.0502 31.9043 0 32.2376 0.333333 0 0.333333ZM56.4753 33.7169 64.4753 37.7169 56.4753 41.7169Z" transform="matrix(-1 1.22465e-16 1.22465e-16 1 322.975 383.5)"/><path d="M322.975 473.181 290.404 473.181 290.404 421.5 290.738 421.833 265.167 421.833 265.167 421.167 291.071 421.167 291.071 472.848 290.738 472.514 322.975 472.514ZM266.5 425.5 258.5 421.5 266.5 417.5Z"/><text font-family="Yu Gothic,Yu Gothic_MSFontService,sans-serif" font-weight="400" font-size="13" transform="translate(296.548 429)">R107</text><path d="M0.153219-0.296032 61.143 31.2708 60.8366 31.8629-0.153219 0.296032ZM62.8284 28.0144C64.7904 29.0299 65.5576 31.4435 64.5422 33.4055 63.5268 35.3674 61.1131 36.1347 59.1512 35.1192 57.1893 34.1038 56.422 31.6901 57.4374 29.7282 58.4529 27.7663 60.8665 26.999 62.8284 28.0144Z" fill="#70AD47" transform="matrix(-1 0 0 1 449.49 130.5)"/><text font-family="Yu Gothic,Yu Gothic_MSFontService,sans-serif" font-weight="400" font-size="13" transform="translate(481.083 394)">書換可能な特徴値</text><path d="M4.96188e-07-0.333333 70.529-0.333228 70.529 0.333438-4.96188e-07 0.333333ZM70.529-3.99989C72.7382-3.99989 74.529-2.20903 74.529 0.000110941 74.529 2.20925 72.7382 4.00011 70.529 4.0001 68.3199 4.0001 66.529 2.20924 66.529 9.90326e-05 66.529-2.20904 68.3199-3.9999 70.529-3.99989Z" fill="#70AD47" transform="matrix(-1 0 0 1 472.029 390.5)"/><text font-family="Yu Gothic,Yu Gothic_MSFontService,sans-serif" font-weight="400" font-size="13" transform="translate(306.754 240)">R105</text></g></svg>