<svg width="607" height="627" xmlns="http://www.w3.org/2000/svg" xmlns:xlink="http://www.w3.org/1999/xlink" overflow="hidden"><defs><clipPath id="clip0"><rect x="33" y="47" width="607" height="627"/></clipPath></defs><g clip-path="url(#clip0)" transform="translate(-33 -47)"><rect x="34.5001" y="48.5001" width="605" height="625" stroke="#D9D9D9" stroke-width="1.33333" stroke-miterlimit="8" fill="none"/><rect x="129.5" y="152.5" width="96" height="58" stroke="#000000" stroke-width="1.33333" stroke-miterlimit="8" fill="#FFFFFF"/><text font-family="Yu Gothic,Yu Gothic_MSFontService,sans-serif" font-weight="400" font-size="11" transform="translate(173.542 184)">A</text><path d="M177.5 152.718 177.5 128.5 303.067 128.5" stroke="#000000" stroke-width="0.666667" stroke-miterlimit="8" fill="none" fill-rule="evenodd"/><rect x="303.5" y="99.5001" width="96" height="58" stroke="#44546A" stroke-width="1.33333" stroke-miterlimit="8" fill="#FFFFFF"/><text font-family="Yu Gothic,Yu Gothic_MSFontService,sans-serif" font-weight="400" font-size="11" transform="translate(347.025 131)">B<tspan font-size="11" x="-56.0244" y="-6">*</tspan></text><rect x="95.5001" y="322.5" width="460" height="305" stroke="#000000" stroke-width="1.33333" stroke-miterlimit="8" fill="#FFFFFF"/><text font-family="Yu Gothic,Yu Gothic_MSFontService,sans-serif" font-weight="400" font-size="13" transform="translate(286.5 341)">GUI Window</text><rect x="130.5" y="350.5" width="186" height="119" stroke="#44546A" stroke-width="1.33333" stroke-miterlimit="8" fill="#FFFFFF"/><text font-family="Yu Gothic,Yu Gothic_MSFontService,sans-serif" font-weight="400" font-size="13" transform="translate(198.527 445)">List Box<tspan font-size="13" x="4.83334" y="16">(for</tspan><tspan font-size="13" x="30.8333" y="16">B</tspan>)</text><rect x="337.5" y="350.5" width="186" height="119" stroke="#ED7D31" stroke-width="1.33333" stroke-miterlimit="8" fill="#FFFFFF"/><text font-family="Yu Gothic,Yu Gothic_MSFontService,sans-serif" font-weight="400" font-size="13" transform="translate(404.639 445)">List Box<tspan font-size="13" x="4.75336" y="16">(for</tspan><tspan font-size="13" x="30.7534" y="16">C</tspan><tspan font-size="13" x="39.92" y="16">)</tspan></text><rect x="302.5" y="203.5" width="96" height="58" stroke="#ED7D31" stroke-width="1.33333" stroke-miterlimit="8" fill="#FFFFFF"/><text font-family="Yu Gothic,Yu Gothic_MSFontService,sans-serif" font-weight="400" font-size="11" transform="translate(346.694 236)">C</text><path d="M0 0 22.6072 0 22.6072 125.319" stroke="#000000" stroke-width="0.666667" stroke-miterlimit="8" fill="none" fill-rule="evenodd" transform="matrix(1.83697e-16 1 1 -1.83697e-16 177.5 210.5)"/><text font-family="Yu Gothic,Yu Gothic_MSFontService,sans-serif" font-weight="400" font-size="11" transform="translate(291.001 249)">*</text><path d="M398.5 232.5 474.686 232.5" stroke="#70AD47" stroke-width="0.666667" stroke-miterlimit="8" fill="none" fill-rule="evenodd"/><rect x="475.5" y="203.5" width="96" height="58" stroke="#FFC000" stroke-width="1.33333" stroke-miterlimit="8" fill="#FFFFFF"/><text font-family="Yu Gothic,Yu Gothic_MSFontService,sans-serif" font-weight="400" font-size="11" transform="translate(518.546 236)">D<tspan font-size="11" x="-55.6078" y="-6">*</tspan></text><rect x="338.5" y="489.5" width="186" height="119" stroke="#FFC000" stroke-width="1.33333" stroke-miterlimit="8" fill="#FFFFFF"/><text font-family="Yu Gothic,Yu Gothic_MSFontService,sans-serif" font-weight="400" font-size="13" transform="translate(405.711 544)">List Box<tspan font-size="13" x="4.33334" y="16">(for</tspan><tspan font-size="13" x="30.3333" y="16">D</tspan>)</text><rect x="355.5" y="365.5" width="118" height="14" stroke="#ED7D31" stroke-width="1.33333" stroke-miterlimit="8" stroke-opacity="0.301961" fill="#4472C4" fill-opacity="0.301961"/><rect x="355.5" y="389.5" width="118" height="13" stroke="#ED7D31" stroke-width="1.33333" stroke-miterlimit="8" stroke-opacity="0.301961" fill="#4472C4" fill-opacity="0.301961"/><rect x="355.5" y="412.5" width="118" height="13" stroke="#ED7D31" stroke-width="1.33333" stroke-miterlimit="8" stroke-opacity="0.301961" fill="#4472C4" fill-opacity="0.301961"/><path d="M156 211.5 156 212.438 141 212.438 141 211.5ZM156 213.375 156 215.25 141 215.25 141 213.375ZM156 216.188 156 307.5 163.5 307.5 148.5 322.5 133.5 307.5 141 307.5 141 216.188Z" stroke="#000000" stroke-width="1.33333" stroke-miterlimit="8" stroke-opacity="0.501961" fill="#4472C4" fill-rule="evenodd" fill-opacity="0.501961"/><text font-family="Yu Gothic,Yu Gothic_MSFontService,sans-serif" font-weight="400" font-size="13" transform="translate(61.4246 265)">A<tspan font-size="13" x="8.66666" y="0">のどれか一つの概念</tspan><tspan font-size="13" x="0" y="16">インスタンスに対応</tspan></text><path d="M0.331722-0.0327364 22.3063 222.639 21.6429 222.704-0.331722 0.0327364ZM28.609 222.017C28.9706 225.681 26.2934 228.944 22.6293 229.306 18.9652 229.667 15.7017 226.99 15.3402 223.326 14.9786 219.662 17.6558 216.398 21.3199 216.037 24.984 215.675 28.2474 218.352 28.609 222.017Z" fill="#44546A" fill-opacity="0.501961" transform="matrix(-1 0 0 1 316.475 157.5)"/><path d="M350.83 261.452 364.626 356.259 363.967 356.355 350.17 261.548ZM370.894 355.347C371.424 358.99 368.9 362.374 365.257 362.904 361.613 363.434 358.23 360.911 357.699 357.267 357.169 353.624 359.693 350.24 363.337 349.71 366.98 349.18 370.364 351.703 370.894 355.347Z" fill="#ED7D31" fill-opacity="0.501961"/><rect x="148.5" y="365.5" width="118" height="13" stroke="#44546A" stroke-width="1.33333" stroke-miterlimit="8" stroke-opacity="0.301961" fill="#4472C4" fill-opacity="0.301961"/><rect x="148.5" y="388.5" width="118" height="14" stroke="#44546A" stroke-width="1.33333" stroke-miterlimit="8" stroke-opacity="0.301961" fill="#4472C4" fill-opacity="0.301961"/><rect x="148.5" y="412.5" width="118" height="13" stroke="#44546A" stroke-width="1.33333" stroke-miterlimit="8" stroke-opacity="0.301961" fill="#4472C4" fill-opacity="0.301961"/><path d="M0.332527-0.0231767 18.0024 253.495 17.3374 253.541-0.332527 0.0231767ZM24.3205 253.055C24.5765 256.728 21.8064 259.913 18.1335 260.169 14.4605 260.425 11.2754 257.655 11.0194 253.982 10.7634 250.309 13.5334 247.124 17.2064 246.868 20.8794 246.612 24.0645 249.382 24.3205 253.055Z" fill="#FFC000" fill-opacity="0.501961" transform="matrix(-1 0 0 1 523.17 261.5)"/><path d="M0 0.333333-24 0.333333-23.6666 0-23.6666 68.7255-24 68.3921 42.784 68.3921 42.784 86.5065 42.1174 86.5065 42.1174 68.7255 42.4507 69.0588-24.3333 69.0588-24.3333-0.333333 0-0.333333ZM46.4507 85.1731 42.4507 93.1731 38.4507 85.1731Z" fill="#70AD47" fill-opacity="0.501961" transform="matrix(-1 0 0 1 473.951 395.5)"/><path d="M433.813 235.386 492.147 396.221 491.521 396.448 433.187 235.614ZM498.101 394.061C499.357 397.523 497.568 401.346 494.107 402.602 490.646 403.857 486.822 402.069 485.567 398.607 484.311 395.146 486.1 391.323 489.561 390.067 493.022 388.812 496.846 390.6 498.101 394.061Z" fill="#70AD47" fill-opacity="0.501961"/><text font-family="Yu Gothic,Yu Gothic_MSFontService,sans-serif" font-weight="400" font-size="13" transform="translate(276.422 284)">リンクされた概念<tspan font-size="13" x="0" y="16">インスタンス群を表示</tspan></text></g></svg>