<svg width="607" height="428" xmlns="http://www.w3.org/2000/svg" xmlns:xlink="http://www.w3.org/1999/xlink" overflow="hidden"><defs><clipPath id="clip0"><rect x="34" y="75" width="607" height="428"/></clipPath></defs><g clip-path="url(#clip0)" transform="translate(-34 -75)"><rect x="35.5001" y="76.5001" width="605" height="425" stroke="#D9D9D9" stroke-width="1.33333" stroke-miterlimit="8" fill="none"/><rect x="191.5" y="110.5" width="96" height="58" stroke="#000000" stroke-width="1.33333" stroke-miterlimit="8" fill="#FFFFFF"/><text font-family="Yu Gothic,Yu Gothic_MSFontService,sans-serif" font-weight="400" font-size="11" transform="translate(235.451 142)">A</text><path d="M287.5 139.5 369.001 139.5" stroke="#000000" stroke-width="0.666667" stroke-miterlimit="8" fill="none" fill-rule="evenodd"/><rect x="368.5" y="110.5" width="96" height="58" stroke="#000000" stroke-width="1.33333" stroke-miterlimit="8" fill="#FFFFFF"/><text font-family="Yu Gothic,Yu Gothic_MSFontService,sans-serif" font-weight="400" font-size="11" transform="translate(412.869 142)">B<tspan font-size="11" x="-56.0244" y="-5">*</tspan></text><rect x="98.5001" y="240.5" width="460" height="215" stroke="#4472C4" stroke-width="1.33333" stroke-miterlimit="8" fill="#FFFFFF"/><text font-family="Yu Gothic,Yu Gothic_MSFontService,sans-serif" font-weight="400" font-size="13" transform="translate(287.912 212)">GUI Window</text><rect x="191.5" y="310.5" width="333" height="120" stroke="#4472C4" stroke-width="1.33333" stroke-miterlimit="8" fill="#FFFFFF"/><text font-family="Yu Gothic,Yu Gothic_MSFontService,sans-serif" font-weight="400" font-size="13" transform="translate(332.732 374)">List Box</text><path d="M252 179.5 252 181.062 227 181.062 227 179.5ZM252 182.625 252 185.75 227 185.75 227 182.625ZM252 187.313 252 215.5 264.5 215.5 239.5 240.5 214.5 215.5 227 215.5 227 187.313Z" stroke="#2F528F" stroke-width="1.33333" stroke-miterlimit="8" stroke-opacity="0.501961" fill="#4472C4" fill-rule="evenodd" fill-opacity="0.501961"/><path d="M429.75 179.5 429.75 181.094 404.25 181.094 404.25 179.5ZM429.75 182.688 429.75 185.875 404.25 185.875 404.25 182.688ZM429.75 187.469 429.75 285 442.5 285 417 310.5 391.5 285 404.25 285 404.25 187.469Z" stroke="#2F528F" stroke-width="1.33333" stroke-miterlimit="8" stroke-opacity="0.501961" fill="#4472C4" fill-rule="evenodd" fill-opacity="0.501961"/></g></svg>