<svg width="607" height="453" xmlns="http://www.w3.org/2000/svg" xmlns:xlink="http://www.w3.org/1999/xlink" overflow="hidden"><defs><clipPath id="clip0"><rect x="23" y="157" width="607" height="453"/></clipPath></defs><g clip-path="url(#clip0)" transform="translate(-23 -157)"><rect x="129" y="363" width="173" height="49" stroke="#4472C4" stroke-width="2" stroke-miterlimit="8" fill="#FFFFFF"/><text font-family="Yu Gothic,Yu Gothic_MSFontService,sans-serif" font-weight="700" font-size="13" transform="translate(182.403 392)">概念モデル</text><rect x="129" y="523" width="173" height="49" stroke="#4472C4" stroke-width="2" stroke-miterlimit="8" fill="#FFFFFF"/><text font-family="Yu Gothic,Yu Gothic_MSFontService,sans-serif" font-weight="700" font-size="13" transform="translate(189.07 551)">実装技術</text><path d="M225.75 419.5 225.75 420.719 206.25 420.719 206.25 419.5ZM225.75 421.938 225.75 424.375 206.25 424.375 206.25 421.938ZM225.75 425.594 225.75 497 235.5 497 216 516.5 196.5 497 206.25 497 206.25 425.594Z" stroke="#2F528F" stroke-width="1.33333" stroke-miterlimit="8" stroke-opacity="0.501961" fill="#4472C4" fill-rule="evenodd" fill-opacity="0.501961"/><path d="M129 443 302 443 302 483.833 293.833 492 129 492Z" fill="#FFFFFF" fill-rule="evenodd"/><path d="M293.833 492 295.467 485.466 302 483.833Z" fill="#CDCDCD" fill-rule="evenodd"/><path d="M293.833 492 295.467 485.466 302 483.833 293.833 492 129 492 129 443 302 443 302 483.833" stroke="#ED7D31" stroke-width="2" stroke-miterlimit="8" fill="none" fill-rule="evenodd"/><text font-family="Yu Gothic,Yu Gothic_MSFontService,sans-serif" font-weight="700" font-size="13" transform="translate(162.403 467)">対応付けるルール</text><path d="M311.5 459.5 312.5 459.5 312.5 475.5 311.5 475.5ZM313.5 459.5 315.5 459.5 315.5 475.5 313.5 475.5ZM316.5 459.5 382.5 459.5 382.5 451.5 398.5 467.5 382.5 483.5 382.5 475.5 316.5 475.5Z" stroke="#2F528F" stroke-width="1.33333" stroke-miterlimit="8" stroke-opacity="0.501961" fill="#4472C4" fill-rule="evenodd" fill-opacity="0.501961"/><rect x="24.5001" y="159.5" width="605" height="449" stroke="#D9D9D9" stroke-width="1.33333" stroke-miterlimit="8" fill="none"/><path d="M139.701 219.933C137.549 208.757 148.633 198.465 164.459 196.945 170.872 196.329 177.392 197.25 182.976 199.56 188.893 191.684 202.719 188.69 213.858 192.874 215.806 193.606 217.594 194.533 219.166 195.627 223.774 189.098 234.999 186.445 244.237 189.702 246.794 190.604 249.024 191.907 250.757 193.513 258.184 187.339 271.31 186.576 280.072 191.81 283.755 194.009 286.238 197.043 287.094 200.391 299.264 202.736 306.443 211.619 303.129 220.232 302.851 220.956 302.501 221.665 302.083 222.355 311.844 231.329 309.454 244.192 296.747 251.084 292.791 253.23 288.118 254.619 283.181 255.118 283.071 264.773 271.891 272.537 258.209 272.459 253.638 272.433 249.166 271.516 245.288 269.807 240.661 280.632 224.519 286.75 209.235 283.472 202.83 282.099 197.296 279.194 193.576 275.254 177.927 281.92 157.615 278.334 148.209 267.244 148.09 267.104 147.974 266.964 147.859 266.822 137.618 267.669 128.341 262.507 127.139 255.294 126.498 251.449 128.295 247.6 132.051 244.774 123.183 241.087 120.205 232.994 125.398 226.698 128.394 223.065 133.648 220.664 139.546 220.232Z" stroke="#ED7D31" stroke-width="2" stroke-miterlimit="8" fill="#FFFFFF" fill-rule="evenodd"/><path d="M143.097 246.171C139.312 246.38 135.526 245.762 132.25 244.4M152.669 265.553C151.146 265.981 149.55 266.266 147.922 266.401M193.566 274.867C192.42 273.654 191.462 272.357 190.706 271M246.449 265.224C246.281 266.663 245.898 268.085 245.307 269.467M269.154 239.009C277.738 241.959 283.155 248.128 283.078 254.866M301.996 222.12C300.606 224.414 298.484 226.449 295.796 228.066M287.119 200.058C287.356 200.984 287.465 201.925 287.446 202.866M247.524 196.782C248.332 195.487 249.401 194.28 250.7 193.201M217.817 198.489C218.146 197.418 218.663 196.381 219.355 195.4M182.954 199.538C184.974 200.374 186.843 201.38 188.52 202.534M140.673 223.087C140.232 222.056 139.908 221.001 139.702 219.934" stroke="#ED7D31" stroke-width="2" stroke-miterlimit="8" fill="none" fill-rule="evenodd"/><text font-family="Yu Gothic,Yu Gothic_MSFontService,sans-serif" font-weight="700" font-size="13" transform="translate(169.142 237)">やりたいこと</text><path d="M225.75 294.5 225.75 295.719 206.25 295.719 206.25 294.5ZM225.75 296.938 225.75 299.375 206.25 299.375 206.25 296.938ZM225.75 300.594 225.75 334 235.5 334 216 353.5 196.5 334 206.25 334 206.25 300.594Z" stroke="#2F528F" stroke-width="1.33333" stroke-miterlimit="8" stroke-opacity="0.501961" fill="#4472C4" fill-rule="evenodd" fill-opacity="0.501961"/><rect x="407" y="442" width="174" height="50" stroke="#70AD47" stroke-width="2" stroke-miterlimit="8" fill="#FFFFFF"/><text font-family="Yu Gothic,Yu Gothic_MSFontService,sans-serif" font-weight="700" font-size="13" transform="translate(460.719 471)">実装コード<tspan font-weight="400" font-size="13" x="-292.199" y="-144">概念モデリング</tspan></text></g></svg>